<?xml version="1.0" encoding="UTF-8" standalone="no"?>
<svg
   width="12"
   height="12"
   viewBox="0 0 12 12"
   version="1.1"
   xmlns="http://www.w3.org/2000/svg"
   xmlns:svg="http://www.w3.org/2000/svg">
  <g>
    <rect id="ctl-frame" fill="none" stroke="#a6a6a6" stroke-width="0.75" x="1.375" y="1.375" width="9.25" height="9.25" />
    <path id="checked" aria-label="✔" fill="#bfbfbf" d="M 3.1365609,7.0612795 Q 3.0486703,6.9689943 3.0003304,6.9030764 2.9563851,6.8371584 2.9563851,6.775635 q 0,-0.079102 0.074707,-0.1582032 0.079102,-0.079102 0.197754,-0.140625 0.1230468,-0.061523 0.2636718,-0.09668 0.1450196,-0.039551 0.2768555,-0.039551 0.140625,0 0.2285156,0.039551 0.092285,0.035156 0.1757813,0.1230468 Q 4.5120492,6.8591311 4.7845101,7.2326662 5.0613656,7.6018068 5.3250375,7.9973147 5.5799203,7.3161623 5.8523812,6.6833498 6.1248421,6.0461428 6.4280648,5.4396975 6.735682,4.8288576 7.08285,4.2399904 7.4344125,3.6467287 7.8431039,3.0490725 7.9925179,2.8249514 8.2825568,2.7194826 q 0.294434,-0.1054687 0.751465,-0.1054687 0.136231,0 0.219727,0.039551 0.0835,0.039551 0.0835,0.1054687 0,0.057129 -0.02637,0.1142578 -0.02637,0.057129 -0.0791,0.131836 Q 8.2342168,4.3981936 7.4168343,5.9230959 6.5994515,7.4479982 5.9974007,9.1398928 5.95785,9.2629397 5.8040414,9.3244631 q -0.1538086,0.061523 -0.4526368,0.061523 -0.140625,0 -0.2373046,-0.00879 Q 5.01742,9.3684061 4.9515023,9.3420411 4.8855843,9.3200686 4.841639,9.2849123 4.7976937,9.2497561 4.766932,9.1970217 4.5779671,8.8894045 4.3977914,8.6257326 4.2220101,8.3576662 4.0286507,8.1071779 3.8396859,7.8566897 3.6199593,7.6018068 3.4046273,7.346924 3.1365609,7.0612795 Z" />
  </g>
</svg>
