<?xml version="1.0" encoding="UTF-8" standalone="no"?>
<svg
   width="20" height="20" viewBox="0 0 20 20"
   version="1.1" xmlns="http://www.w3.org/2000/svg" xmlns:svg="http://www.w3.org/2000/svg">
  <defs>
    <linearGradient id="rim" x1="10" y1="0" x2="12" y2="16" gradientUnits="userSpaceOnUse">
      <stop offset="0" stop-color="#d9d9d9" />
      <stop offset="1" stop-color="#444" />
    </linearGradient>
    <linearGradient id="face" x1="10" y1="1" x2="12" y2="16" gradientUnits="userSpaceOnUse">
      <stop offset="0" stop-color="#efefef" />
      <stop offset="1" stop-color="#777" />
    </linearGradient>
  </defs>
  <g>
    <circle id="sm-btn-ring" fill="#888" cx="10" cy="10" r="10" />
    <circle id="sm-btn-rim" fill="url(#rim)" cx="10" cy="10" r="9" />
    <circle id="sm-btn-face" fill="url(#face)" cx="10" cy="10" r="8" />
    <path id="btn-glyph" fill="#000" transform="translate(4,4)" d="M 10.358 5.764 L 10.358 5.894 L 10.358 5.894 L 10.358 6.014 L 10.358 6.134 L 11.958 7.064 L 10.958 9.294 L 9.258 8.944 C 9.138 9.044 9.048 9.114 8.968 9.234 L 9.318 10.984 L 7.088 11.984 L 6.158 10.384 L 6.038 10.384 L 5.918 10.384 L 5.918 10.384 L 5.788 10.384 L 4.838 11.984 L 2.608 10.984 L 2.998 9.234 C 2.898 9.114 2.798 9.024 2.708 8.944 L 0.968 9.294 L 0.041 7.064 L 1.558 6.134 L 1.558 6.014 L 1.558 5.894 L 1.558 5.894 L 1.558 5.764 L 0.041 4.814 L 0.968 2.584 L 2.708 2.974 C 2.808 2.874 2.898 2.774 2.998 2.684 L 2.608 0.947 L 4.838 0.017 L 5.788 1.534 L 5.918 1.534 L 5.918 1.534 L 6.038 1.534 L 6.158 1.534 L 7.088 0.017 L 9.318 0.947 L 8.968 2.684 C 9.068 2.784 9.138 2.874 9.258 2.974 L 10.958 2.584 L 11.958 4.814 Z M 9.728 6.534 L 9.728 6.244 L 9.728 5.944 L 9.728 5.694 L 9.728 5.414 L 11.058 4.554 L 10.558 3.344 L 9.028 3.714 L 8.618 3.304 C 8.498 3.174 8.358 3.044 8.208 2.934 L 8.558 1.344 L 7.388 0.836 L 6.508 2.214 L 6.218 2.214 L 5.918 2.214 L 5.668 2.214 L 5.388 2.214 L 4.528 0.836 L 3.318 1.344 L 3.688 2.934 C 3.538 3.044 3.398 3.174 3.278 3.304 C 3.148 3.424 3.018 3.564 2.908 3.714 L 1.318 3.344 L 0.81 4.554 L 2.188 5.424 L 2.188 5.704 L 2.188 6.004 L 2.188 6.244 L 2.188 6.534 L 0.81 7.414 L 1.318 8.584 L 2.908 8.234 C 3.018 8.384 3.148 8.524 3.278 8.644 L 3.688 9.054 L 3.318 10.584 L 4.528 11.084 L 5.398 9.754 L 5.668 9.754 L 5.918 9.754 L 6.218 9.754 L 6.508 9.754 L 7.388 11.084 L 8.558 10.584 L 8.208 9.054 L 8.618 8.644 L 9.028 8.234 L 10.558 8.584 L 11.058 7.414 Z M 5.918 3.774 C 6.238 3.774 6.528 3.874 6.798 3.944 C 7.068 4.064 7.308 4.214 7.498 4.414 C 7.698 4.614 7.858 4.854 7.968 5.114 C 8.088 5.384 8.148 5.654 8.148 5.944 C 8.148 6.264 8.048 6.554 7.968 6.824 C 7.858 7.094 7.698 7.334 7.498 7.524 C 7.308 7.724 7.068 7.884 6.798 7.994 C 6.528 8.114 6.238 8.174 5.918 8.174 C 5.628 8.174 5.358 8.074 5.088 7.994 C 4.828 7.884 4.588 7.724 4.388 7.524 C 4.188 7.334 4.038 7.094 3.918 6.824 C 3.808 6.554 3.748 6.264 3.748 5.944 C 3.748 5.654 3.848 5.384 3.918 5.114 C 4.038 4.854 4.188 4.614 4.388 4.414 C 4.588 4.214 4.828 4.064 5.088 3.944 C 5.358 3.834 5.628 3.774 5.918 3.774 Z M 5.918 7.524 C 6.158 7.524 6.368 7.524 6.568 7.414 C 6.768 7.314 6.918 7.214 7.038 7.064 C 7.188 6.944 7.308 6.794 7.388 6.594 C 7.488 6.394 7.498 6.184 7.498 5.944 C 7.498 5.754 7.498 5.554 7.388 5.364 C 7.288 5.174 7.188 5.014 7.038 4.874 C 6.918 4.734 6.768 4.624 6.568 4.544 C 6.368 4.444 6.158 4.424 5.918 4.424 C 5.728 4.424 5.528 4.424 5.338 4.544 C 5.148 4.644 4.988 4.734 4.848 4.874 C 4.708 5.014 4.598 5.174 4.518 5.364 C 4.418 5.554 4.398 5.754 4.398 5.944 C 4.398 6.184 4.398 6.394 4.518 6.594 C 4.618 6.794 4.708 6.944 4.848 7.064 C 4.988 7.214 5.148 7.334 5.338 7.414 C 5.528 7.514 5.728 7.524 5.918 7.524 Z" />
  </g>
</svg>
