<?xml version="1.0" encoding="UTF-8"?>
<svg width="16" height="4" viewBox="0 0 16 4" version="1.1" xmlns="http://www.w3.org/2000/svg" xmlns:svg="http://www.w3.org/2000/svg">
<path
   id="jack-right"
   fill="#000000"
   transform="translate(16,4)rotate(180)"
   d="m 14.6,1.1 c 0.2,0.39 0.5,0.65 0.8,0.93 l -0.6,0.48 c -0.3,-0.26 -0.4,-0.48 -0.7,-0.87 -0.2,-0.39 -0.4,-0.66 -0.7,-0.65 -0.2,0 -0.4,0.1 -0.5,0.22 -0.2,0.21 -0.4,0.62 -0.7,1.08 -0.3,0.51 -0.9,0.55 -1.3,0.54 h -0.4 v 0.52 c 0,0.2 -0.22,0.5 -0.32,0.5 h -4.4 c 0,0 -0.2,-0.1 -0.3,-0.3 v -0.36 h -3.2 v -1.4 h 3.2 v -0.36 c 0,-0.37 0.2,-0.46 0.2,-0.46 h 4.4 c 0.2,0 0.42,0.28 0.42,0.53 v 0.48 h 0.4 c 0.4,0 0.7,-0.13 0.8,-0.28 0.3,-0.41 0.5,-0.78 0.7,-1.09 0.2,-0.27 0.6,-0.51 1,-0.48 0.5,0 0.8,0.3 1.2,0.97 z m -13,0.66 h 0.3 v 1.4 h -0.3 c -0.2,-0.12 -0.2,-0.13 -0.2,-0.32 h -0.2 v 0.12 c 0,0.14 -0.1,0.25 -0.1,0.25 h -0.2 -0.1 c -0.1,0 -0.2,-0.45 -0.4,-0.63 0.2,-0.22 0.4,-0.68 0.4,-0.68 v 0 h 0.1 0.2 l 0.1,0.26 v 0 0 h 0.2 c 0,-0.26 0.2,-0.28 0.2,-0.32 z"
   />
</svg>
