<?xml version="1.0" encoding="UTF-8" standalone="no"?>
<svg width="100" height="60" viewBox="0 0 100 60"
version="1.1" xmlns="http://www.w3.org/2000/svg" xmlns:svg="http://www.w3.org/2000/svg">
<path id="logo" fill="#e0e0e0" stroke="#e0e0e0" stroke-width="0.5"
d="M 25.67 0.293 L 19.217 13.115 L 8.043 10.156 L 5.949 18.045 L 15.316 20.566
L 10.572 30.05 L 3.275 28.092 L 1.182 35.979 L 6.816 37.502 L 0.361 50.324
L 8.213 52.43 L 14.666 39.607 L 26.705 42.824 L 20.252 55.646 L 28.104 57.752
L 34.557 44.93 L 45.609 47.904 L 47.703 40.018 L 38.289 37.479 L 43.105 27.994
L 50.4 29.953 L 52.496 22.066 L 46.838 20.543 L 53.291 7.721 L 45.488 5.617
L 38.986 18.414 L 27.02 15.197 L 33.521 2.398 L 25.67 0.293 z M 82.982 3.148
L 80.814 11.301 L 86.305 12.777 L 83.318 23.979
C 81.504 20.075 78.551 17.575 74.457 16.479
C 70.187 15.333 66.102 16.14 62.201 18.898
C 58.3 21.624 55.658 25.567 54.277 30.729
C 52.929 35.325 53.218 40.042 55.145 44.881
C 57.071 49.236 60.225 52.002 64.607 53.18
C 68.268 54.18 72.082 53.525 76.047 51.219
L 74.914 55.43 L 91.916 60.002 L 94.082 51.848 L 88.328 50.275 L 99.693 7.648
L 82.982 3.148 z M 23.287 22.672 L 35.254 25.891 L 30.463 35.373 L 18.494 32.156 L 23.287 22.672 z
M 73.578 26.138 C 74.096 26.163 74.63 26.249 75.18 26.398 C 77.026 26.898 78.47 28.058 79.514 29.881
C 80.573 31.707 80.653 34.312 79.754 37.695 L 79.742 37.695 C 78.859 41.002 77.504 43.204 75.674 44.301
C 73.876 45.381 72.046 45.672 70.184 45.172 C 67.936 44.575 66.458 43.211 65.752 41.082
C 65.054 38.937 65.057 36.534 65.764 33.873 C 66.518 31.083 67.714 28.994 69.352 27.607
C 70.616 26.555 72.025 26.066 73.578 26.139 z" />
</svg>