<?xml version="1.0" encoding="UTF-8"?>
<svg
width="12" height="12" viewBox="0 0 12 12"
version="1.1" xmlns="http://www.w3.org/2000/svg" xmlns:svg="http://www.w3.org/2000/svg">
<path id="palette-1" fill="#4072bf" stroke="#4072bf00" stroke-width=".25" d="m 4.5,11 c -0.74,-0.03 -1.3,-0.14 -1.86,-0.34 -0.76,-0.3 -1.28,-0.81 -1.5,-1.5 -0.25,-0.74 -0.12,-1.5 0.63,-1.97 0.92,-0.57 1.13,-2.27 0.47,-2.65 -0.34,-0.19 -0.57,-0.37 -0.64,-0.66 -0.03,-0.1 -0.03,-0.31 0,-0.43 0.03,-0.13 0.1,-0.33 0.15,-0.44 0.08,-0.14 0.17,-0.27 0.36,-0.46 0.2,-0.2 0.35,-0.32 0.63036,-0.51 0.62,-0.41 1.35,-0.75 1.96,-0.9 0.59,-0.15 1.37,-0.19 2.04,-0.1 0.92,0.12 1.67,0.43 2.39,0.99 0.62,0.48 1.11,1.07 1.43,1.73 0.33,0.66 0.47,1.31 0.47,2.08 0,0.66 -0.11,1.26 -0.31,1.79 -0.16,0.42 -0.41,0.82 -0.72,1.2 -0.11,0.13 -0.4,0.43 -0.55,0.55 -0.69,0.59 -1.62,1.07 -2.63,1.36 -0.23,0.07 -0.37,0.1 -0.59,0.13 -0.55,0.09 -1.21,0.14 -1.73,0.12 z m -1.14,-1.49 c 0.47,-0.08 0.95,-0.42 1.2,-0.85 0.1,-0.18 0.15,-0.32 0.15,-0.49 0.01,-0.21 -0.04,-0.34 -0.16,-0.47 -0.12,-0.12 -0.28,-0.17 -0.49,-0.17 -0.22,0 -0.39,0.04 -0.63,0.16 -0.54,0.27 -0.92,0.78 -0.92,1.23 0,0.19 0.05,0.31 0.16,0.42 0.16,0.16 0.4,0.22 0.7,0.17 z" />
</svg>
