<?xml version="1.0" encoding="UTF-8" standalone="no"?>
<svg
width="12" height="12" viewBox="0 0 12 12"
version="1.1" xmlns="http://www.w3.org/2000/svg" xmlns:svg="http://www.w3.org/2000/svg">
<path id="palette-3" fill="#40bf55" stroke="#40bf5500" stroke-width=".25" d="M 4.23,11.9 C 3.49,11.9 2.82,11.8 2.03,11.5 1.24,11.2 0.519,10.6 0.259,9.74 -0.039,8.91 0.119,8.01 0.999,7.46 2.09,6.78 2.48,4.91 1.56,4.33 1.16,4.08 0.889,3.89 0.799,3.55 0.769,3.43 0.769,3.17 0.799,3.03 0.839,2.88 0.919,2.65 0.979,2.52 1.07,2.35 1.18,2.19 1.41,1.97 1.64,1.74 1.82,1.6 2.15,1.37 2.88,0.878 3.75,0.488 4.47,0.308 5.16,0.124 6.08,0.076 6.88,0.178 c 1.08,0.15 1.97,0.52 2.82,1.182 0.7,0.56 1.3,1.26 1.7,2.05 0.4,0.77 0.5,1.54 0.5,2.45 0,0.78 -0.1,1.49 -0.4,2.11 -0.1,0.51 -0.4,0.97 -0.8,1.47 -0.1,0.1 0,-0 -0.6,0.56 -0.64,0.6 -3.01,1.7 -3.83,1.8 -0.82,0.1 -1.3,0.1 -2.04,0.1 z M 2.88,10.2 C 3.44,10.1 4,9.74 4.3,9.24 4.42,8.98 4.48,8.81 4.48,8.62 4.49,8.37 4.44,8.21 4.29,8.06 4.15,7.92 3.96,7.86 3.71,7.86 c -0.26,0 -0.46,0 -0.74,0.18 -0.65,0.33 -1.09,0.93 -1.09,1.5 0,0.2 0.12,0.3 0.19,0.46 0.18,0.1 0.47,0.2 0.82,0.2 z" />
</svg>
