<?xml version="1.0" encoding="UTF-8" standalone="no"?>
<svg width="16" height="16" viewBox="0 0 16 16" version="1.1" xmlns="http://www.w3.org/2000/svg" xmlns:svg="http://www.w3.org/2000/svg">
<path id="q-mark" aria-label="?" fill="#2d9ae3" d="m 7.5,10 v -0.76 c 0,-0.38 0,-0.66 0.1,-0.85 0.1,-0.28 0.28,-0.47 0.46,-0.65 l 0.66,-0.75 c 0.19,-0.19 0.38,-0.38 0.47,-0.56 0.1,-0.29 0.1,-0.47 0.1,-0.75 0,-0.38 -0.1,-0.68 -0.28,-0.89 -0.19,-0.23 -0.47,-0.34 -0.94,-0.34 -0.46,0 -0.75,0.13 -0.93,0.4 -0.28,0.26 -0.38,0.64 -0.38,1.11 0,0.28 0,0.56 0.1,0.84 h -1.78 c -0.1,-0.47 -0.1,-0.66 -0.1,-1.22 0,-0.84 0.28,-1.52 0.85,-2.02 0.65,-0.51 1.4,-0.76 2.43,-0.76 0.94,0 1.63,0.24 2.23,0.72 0.6,0.48 0.9,1.13 0.9,1.97 0,0.47 -0.1,0.84 -0.3,1.22 -0.2,0.37 -0.5,0.75 -0.9,1.03 l -1.08,1.03 c -0.1,0.1 -0.29,0.28 -0.38,0.47 -0.1,0.16 -0.19,0.26 -0.19,0.56 v 0.2 z m -0.37,2.8 v -1.8 h 1.87 v 1.8 z" />
<circle id="q-circle" fill="none" stroke="#2d9ae3" stroke-width="1" cx="8" cy="8" r="7.5" />
</svg>