<?xml version="1.0" encoding="UTF-8" standalone="no"?>
<svg
width="180" height="380" viewBox="0 0 180 380"
version="1.1"
xmlns="http://www.w3.org/2000/svg"
xmlns:svg="http://www.w3.org/2000/svg">
<defs>
<linearGradient id="bw"
    x1="94" y1="244" x2="180" y2="244"
    gradientUnits="userSpaceOnUse" >
  <stop offset="0" style="stop-color:#ffffff;" />
  <stop offset="1" style="stop-color:#000000;" />
</linearGradient>
</defs>
<g>
  <rect id="Panel" x="0" y="0" width="180" height="380" fill="#0d0d0d" />
  <rect id="Header-background" x="0" y="0" width="180" height="12" fill="#f9a806" />
  <rect id="Outputs-background" x="7.5" y="315" width="165" height="54" rx="6" ry="6" fill="#000000" stroke="#ffffff" stroke-width=".5"/>
</g>
<g id="sample">
  <rect x="0" y="244" width="180" height="12" fill="#ffffff" />
  <rect x="90" y="244" width="90" height="12" fill="url(#bw)" />
  <g fill="#808080">
    <path d="m 92,244  -10,10 12,-10 z"/>
    <path d="m 104,244 -10,10 12,-10 z"/>
    <path d="m 116,244 -10,10 12,-10 z"/>
    <path d="m 128,244 -10,10 12,-10 z"/>
    <path d="m 140,244 -10,10 12,-10 z"/>
    <path d="m 152,244 -10,10 12,-10 z"/>
    <path d="m 164,244 -10,10 12,-10 z"/>
    <path d="m 176,244 -10,10 12,-10 z"/>

    <path d="m 88,256  10,-10 -12,10 z"/>
    <path d="m 100,256  10,-10 -12,10 z"/>
    <path d="m 112,256  10,-10 -12,10 z"/>
    <path d="m 124,256  10,-10 -12,10 z"/>
    <path d="m 136,256  10,-10 -12,10 z"/>
    <path d="m 148,256  10,-10 -12,10 z"/>
    <path d="m 160,256  10,-10 -12,10 z"/>
    <path d="m 172,256  10,-10 -12,10 z"/>
  </g>
</g>
<g id="fflfdp">
  <path id="frippery" fill="none" transform="translate(0,1)" stroke="#1a9157" stroke-width="1.2"
    stroke-linejoin="miter" stroke-opacity="0.25"
    d="m 1,3.75 c 3.5,0 6.8,2 10.33,2 3.5,0 6.8,-2 10.33,-2 3.5,0 6.8,2 10.33,2 3.5,0 6.8,-2 10.33,-2 3.5,0 6.8,2 10.33,2 3.5,0 6.8,-2 10.33,-2 3.5,0 6.8,2 10.33,2 3.5,0 6.8,-2 10.33,-2 3.5,0 6.8,2 10.33,2 3.5,0 6.8,-2 10.33,-2 3.5,0 6.8,2 10.33,2 3.5,0 6.8,-2 10.33,-2 3.5,0 6.8,2 10.33,2 3.5,0 6.8,-2 10.33,-2 3.5,0 6.8,2 10.33,2 3.5,0 6.8,-2 10.33,-2 3.5,0 6.8,2 10.33,2 3.5,0 6.8,-2 10.33,-2" />
</g>
<g id="title" transform="translate(0,1)">
  <g aria-label="copper" id="copper" transform="scale(3.78)">
    <path
      d="m 13.65,1.89 q -0.15,0 -0.27,-0.05 -0.12,-0.06 -0.2,-0.15 -0.08,-0.1 -0.12,-0.22 -0.04,-0.12 -0.04,-0.25 0,-0.13 0.04,-0.25 0.04,-0.12 0.12,-0.22 0.08,-0.1 0.2,-0.15 0.12,-0.06 0.27,-0.06 0.19,0 0.34,0.09 0.15,0.09 0.21,0.29 L 13.94,1.01 q -0.03,-0.1 -0.1,-0.16 -0.07,-0.06 -0.19,-0.06 -0.12,0 -0.19,0.06 -0.07,0.06 -0.11,0.16 -0.03,0.1 -0.03,0.2 0,0.11 0.03,0.21 0.03,0.1 0.11,0.16 0.07,0.06 0.19,0.06 0.12,0 0.19,-0.06 0.07,-0.06 0.1,-0.16 l 0.26,0.1 q -0.07,0.19 -0.21,0.29 -0.14,0.09 -0.34,0.09 z" />
    <path
      d="m 17.7,1.89 q -0.19,0 -0.33,-0.09 -0.15,-0.09 -0.23,-0.24 -0.08,-0.15 -0.08,-0.35 0,-0.2 0.08,-0.35 0.08,-0.15 0.23,-0.24 0.15,-0.09 0.34,-0.09 0.19499,0 0.33,0.09 0.15,0.08 0.23,0.24 0.08,0.1545809 0.08,0.35 0,0.2 -0.08,0.35 -0.08,0.15 -0.23,0.24 -0.15,0.09 -0.33,0.09 z m 0.0,-0.26 q 0.11,0 0.19,-0.05 0.08,-0.05 0.12,-0.15 0.04,-0.1 0.04,-0.22 0,-0.13 -0.04,-0.22 -0.04,-0.1 -0.12,-0.15 -0.08,-0.05 -0.19,-0.05 -0.11,0 -0.19,0.05 -0.08,0.05 -0.12,0.14 -0.04,0.09 -0.04,0.22 0,0.13 0.04,0.22 0.04,0.1 0.12,0.15 0.08,0.05 0.19,0.05 z" />
    <path
      d="M 21.27,2.4 V 0.56 h 0.29 v 0.36 l -0.07,0 q 0,-0.14 0.1,-0.23 0.07,-0.08 0.16,-0.12 0.1,-0.04 0.2,-0.04 0.17,0 0.3,0.09 0.13,0.09 0.2,0.24 0.0744,0.15 0.07,0.35 0,0.21 -0.077,0.36 -0.08,0.15 -0.21,0.23 -0.13,0.08 -0.29,0.08 -0.11,0 -0.21,-0.04 -0.09,-0.04 -0.16,-0.13 -0.06,-0.08 -0.09,-0.21 l 0.07,-0.01 v 0.9 z m 0.61,-0.78 q 0.1,0 0.18,-0.05 0.08,-0.05 0.12,-0.14 0.04,-0.09 0.04,-0.21 0,-0.12 -0.04,-0.21 -0.04,-0.09 -0.12,-0.14 -0.08,-0.05 -0.18,-0.05 -0.1,0 -0.18,0.05 -0.08,0.05 -0.12,0.14 -0.042,0.09 -0.04,0.21 0,0.12 0.04,0.21 0.04,0.09 0.12,0.14 0.08,0.05 0.18,0.05 z" />
    <path
      d="M 25.45,2.40 V 0.56 h 0.29 v 0.36 l -0.07,0 q 0,-0.14 0.1,-0.23 0.07,-0.08 0.16,-0.12 0.1,-0.04 0.2,-0.04 0.17,0 0.3,0.09 0.13,0.09 0.2,0.24 0.07,0.15 0.07,0.35 0,0.21 -0.08,0.36 -0.08,0.15 -0.21,0.23 -0.13,0.08 -0.29,0.08 -0.11,0 -0.21,-0.04 -0.09,-0.04 -0.16,-0.13 -0.06,-0.08 -0.09,-0.21 l 0.07,-0.01 v 0.9 z m 0.61,-0.781657 q 0.1,0 0.18,-0.05 0.08,-0.05 0.12,-0.14 0.04,-0.09 0.04,-0.21 0,-0.12 -0.04,-0.21 -0.04,-0.09 -0.12,-0.14 -0.08,-0.05 -0.18,-0.05 -0.1,0 -0.18,0.05 -0.08,0.05 -0.12,0.14 -0.04,0.09 -0.04,0.21 0,0.12 0.04,0.21 0.04,0.09 0.12,0.14 0.08,0.05 0.18,0.05 z" />
    <path
      d="m 30.2,1.89 q -0.16,0 -0.29,-0.05 -0.12,-0.05 -0.2,-0.15 -0.08,-0.1 -0.11,-0.21 -0.04,-0.12 -0.04,-0.25 0,-0.13 0.03,-0.25 0.04,-0.12 0.11,-0.22 0.07,-0.1 0.19,-0.15 0.12,-0.06 0.28,-0.06 0.15,0 0.26,0.05 0.11,0.05 0.18,0.14 0.07,0.09 0.11,0.21 0.04,0.12 0.04,0.25 0,0.02 0,0.05 0,0.03 0,0.07 h -0.9 q 0.01,0.16 0.11,0.24 0.1,0.08 0.24,0.08 0.11,0 0.2,-0.03 0.09,-0.03 0.16,-0.11 L 30.73,1.68 q -0.08,0.07 -0.16,0.12 -0.08,0.04 -0.17,0.07 -0.09,0.02 -0.2,0.02 z m 0.29,-0.73 q 0.01,-0.02 0.01,-0.04 0,-0.02 0,-0.04 0,-0.06 -0.02,-0.11 -0.02,-0.05 -0.06,-0.09 -0.04,-0.04 -0.1,-0.07 -0.06,-0.03 -0.13,-0.03 -0.1,0 -0.17,0.04 -0.07,0.04 -0.11,0.12 -0.04,0.07 -0.04,0.15 h 0.72 z" />
    <path
      d="M 33.71,1.86 V 0.56 h 0.3 v 0.35 l -0.06,0.01 q 0.01,-0.11 0.08,-0.2 0.06,-0.09 0.15,-0.13 0.09,-0.05 0.18,-0.05 0.06,0 0.12,0.02 0.06,0.02 0.12,0.05 L 34.46,0.87 Q 34.43,0.85 34.38,0.84 34.34,0.83 34.3,0.83 q -0.06,0 -0.11,0.02 -0.05,0.02 -0.1,0.07 -0.04,0.04 -0.06,0.11 -0.01,0.04 -0.02,0.1 0,0.06 -0.01,0.16 V 1.86 Z" />
  </g>
</g>
<g id="brand">
  <path id="medallion" d="m 90,366 a 39.85,27.42 0 0 0 -35.27,14.68 h 70.55 a 39.85,27.42 0 0 0 -35.28,-14.68 z"
    stroke="#f9a54b" stroke-width="1" />
  <g id="logo" aria-label="#d" transform="matrix(3.3,0,0,3.63,70,-79)"
    fill="#f2f2f2"
    >
    <path
      d="m 4.79,123.59 0.3,-0.58 0.36,0.1 -0.3,0.58 0.55,0.15 0.3,-0.58 0.36,0.1 -0.3,0.58 0.26,0.07 -0.096,0.36 -0.33,-0.09 -0.22,0.43 0.43,0.12 -0.1,0.36 -0.51,-0.14 -0.3,0.58 -0.36,-0.1 0.3,-0.58 -0.55,-0.15 -0.3,0.58 -0.36,-0.1 0.3,-0.58 -0.26,-0.07 0.1,-0.36 0.33,0.09 0.22,-0.43 -0.43,-0.12 0.1,-0.36 z m 0.73,0.58 -0.55,-0.15 -0.22,0.43 0.55,0.15 z" />
    <path
      d="m 8.22,125.35 -0.1,0.37 -0.78,-0.21 0.05,-0.1934 q -0.27,0.16 -0.52,0.09 -0.30,-0.08 -0.43,-0.38 -0.13,-0.3 -0.04,-0.65 0.095,-0.35 0.36,-0.54 0.27,-0.19 0.56,-0.11 0.28,0.08 0.41,0.34 l 0.14,-0.51 -0.25,-0.07 0.1,-0.37 0.77,0.21 -0.52,1.94 z m -0.66,-0.64 q 0.06,-0.23 -0.01,-0.36 -0.07,-0.12 -0.2,-0.16 -0.15,-0.04 -0.27,0.06 -0.11,0.09 -0.16,0.29 -0.049,0.18 0,0.33 0.049,0.14 0.20,0.19 0.13,0.03 0.25,-0.04 0.13,-0.08 0.19,-0.30 z" />
  </g>
</g>
</svg>