<?xml version="1.0" encoding="UTF-8" standalone="no"?>
<svg width="30" height="380" viewBox="0 0 30 380" version="1.1" xml:space="preserve" xmlns="http://www.w3.org/2000/svg"
  xmlns:svg="http://www.w3.org/2000/svg">
  <defs>
  <linearGradient id="pg" y2="380" gradientUnits="userSpaceOnUse">
    <stop offset="0" stop-color="#ebebeb" />
    <stop offset="1" stop-color="#e1e1e1" />
  </linearGradient>
  </defs>
  <g>
    <rect id="panel" fill="url(#pg)" width="30" height="380" />
    <path id="mast--medallion" fill="#f9a54b" stroke="#f9a54b" stroke-width="0.75" d="m 0,0 v 6.5273438 c 3.0908047,3.4967642 8.8075842,3.6547002 15,3.6621092 6.181921,-5.51e-4 11.896271,-0.14492 15,-3.6289061 V 0 Z" />
    <g aria-label="Copper mini">
      <path id="copper-title"  d="M 8.3818359,2.9841204 V 3.5861712 Q 8.4609375,3.5334368 8.6147461,3.3840227 8.7685547,3.2346087 8.9091797,3.1335344 9.0541992,3.0280657 9.2519531,2.9665422 q 0.2021485,-0.065918 0.3647461,-0.065918 0.2592774,0 0.5624998,0.1845703 0.303223,0.1801758 0.505371,0.6459961 0.351563,-0.4482422 0.685547,-0.637207 0.338379,-0.1933594 0.628418,-0.1933594 0.51416,0 0.870117,0.4262695 0.355957,0.421875 0.355957,1.0415039 v 2.3950195 h -1.125 V 4.6672258 q 0,-0.3120117 -0.171386,-0.5229492 -0.171387,-0.215332 -0.413086,-0.215332 -0.290039,0 -0.500977,0.2416992 -0.210937,0.2416992 -0.210937,0.5756836 V 6.7634172 H 9.6870117 v -2.043457 q 0,-0.3295898 -0.1757812,-0.5537109 Q 9.3398438,3.9377337 9.09375,3.9377337 q -0.2900391,0 -0.5009766,0.2504882 Q 8.3818359,4.4343157 8.3818359,4.7814837 V 6.7634172 H 7.2480469 V 2.9841204 Z
        M 14.230957,1.5866594 q 0,-0.2856445 0.206543,-0.4921875 0.206543,-0.20654294 0.496582,-0.20654294 0.290039,0 0.496582,0.20654294 0.206543,0.206543 0.206543,0.4921875 0,0.2900391 -0.206543,0.4965821 -0.206543,0.2065429 -0.496582,0.2065429 -0.290039,0 -0.496582,-0.2065429 -0.206543,-0.206543 -0.206543,-0.4965821 z m 0.14502,1.397461 h 1.125 v 3.7792968 h -1.125 z
        M 17.874023,2.9841204 v 0.4482422 q 0.575684,-0.5405274 1.208497,-0.5405274 0.540527,0 0.892089,0.4438477 0.355957,0.4438476 0.355957,1.133789 V 6.7634172 H 19.187988 V 4.6496477 q 0,-0.3251953 -0.180176,-0.5493164 -0.175781,-0.2241211 -0.430664,-0.2241211 -0.307617,0 -0.505371,0.2856445 -0.197754,0.28125 -0.197754,0.7294922 v 1.8720703 h -1.125 V 2.9841204 Z
        M 21.345703,1.5866594 q 0,-0.2856445 0.206543,-0.4921875 0.206543,-0.20654294 0.496582,-0.20654294 0.290039,0 0.496582,0.20654294 0.206543,0.206543 0.206543,0.4921875 0,0.2900391 -0.206543,0.4965821 -0.206543,0.2065429 -0.496582,0.2065429 -0.290039,0 -0.496582,-0.2065429 -0.206543,-0.206543 -0.206543,-0.4965821 z m 0.14502,1.397461 h 1.125 v 3.7792968 h -1.125 z" />
    </g>
    <g aria-label="HUE" fill="#bfbfbf">
      <path id="hue--lab-mini" d="M 1.0078125,11.091412 h 2.109375 v 3.726562 h 1.96875 V 11.091412 H 7.203125 v 9.757812 H 5.0859375 v -4.125 h -1.953125 v 4.125 h -2.125 z
        M 15.25,18.099224 q 0,1.375 -0.828125,2.164063 -0.820312,0.78125 -2.28125,0.78125 -1.515625,0 -2.3359375,-0.804688 -0.8125,-0.804687 -0.8125,-2.304687 v -6.84375 h 2.1250005 v 6.507812 q 0,0.6875 0.265625,1.0625 0.273437,0.367188 0.757812,0.367188 0.453125,0 0.710938,-0.359375 0.265625,-0.359375 0.265625,-0.96875 V 11.091412 H 15.25 Z
        M 21.890625,20.849224 h -4.867188 v -9.757812 h 4.5625 v 1.882812 h -2.46875 v 1.984375 h 2.117188 v 1.8125 h -2.117188 v 2.15625 h 2.773438 z" />
    </g>
    <g aria-label="SAT" fill="#bfbfbf">
      <path id="sat--lab-mini" d="M 5.9975096,44.610981 q -0.8359375,-0.976563 -1.6015625,-0.976563 -0.34375,0 -0.6171875,0.226563 -0.265625,0.226562 -0.265625,0.507812 0,0.507813 0.8515625,1.203125 0.890625,0.710938 1.265625,1.125 0.375,0.40625 0.6015625,0.960938 0.2265625,0.554687 0.2265625,1.210937 0,1.289063 -0.828125,2.117188 -0.8203125,0.828125 -2.1171875,0.828125 -1.0625,0 -2.078125,-0.757813 v -2.304687 q 0.9765625,1.0625 1.953125,1.0625 0.4375,0 0.7265625,-0.242188 0.296875,-0.242187 0.296875,-0.59375 0,-0.523437 -0.75,-1.164062 -1.1953125,-1.03125 -1.5703125,-1.53125 -0.3671875,-0.507813 -0.5546875,-1.015625 -0.1796875,-0.515625 -0.1796875,-1.039063 0,-1.125 0.7890625,-1.859375 0.7890625,-0.734375 2.0078125,-0.734375 0.921875,0 1.84375,0.53125 z
        M 14.645947,51.618793 h -2.0625 L 12.263135,50.095356 H 9.6928221 l -0.359375,1.523437 h -2.0625 L 10.06001,41.860981 h 2.140625 z m -2.6875,-3.101562 -0.859375,-4.257813 h -0.03125 l -0.992187,4.257813 z
        M 20.474072,43.759418 h -1.898437 v 7.859375 h -2.101563 v -7.84375 h -1.9375 v -1.914062 h 5.9375 z" />
    </g>
    <g aria-label="LUM" fill="#bfbfbf">
      <path id="lum--lab-mini" d="M 6.5136715,79.107574 h -4.5625 v -9.757812 h 2.09375 v 7.835937 h 2.46875 z
        M 13.732422,76.357574 q 0,1.375 -0.828125,2.164063 -0.820313,0.78125 -2.28125,0.78125 -1.5156255,0 -2.335938,-0.804688 -0.8125,-0.804687 -0.8125,-2.304687 v -6.84375 h 2.125 v 6.507812 q 0,0.6875 0.265625,1.0625 0.273438,0.367188 0.757813,0.367188 0.453125,0 0.710937,-0.359375 0.265625,-0.359375 0.265625,-0.96875 v -6.609375 h 2.132813 z
        M 24.498047,79.107574 h -2 l -0.476563,-7.984375 h -0.03125 l -1.492187,7.984375 h -1.5 l -1.414063,-8.03125 h -0.03125 l -0.539062,8.03125 h -2.015625 l 1.007812,-9.757812 h 2.65625 l 1.070313,6.429687 h 0.03125 l 1.179687,-6.429687 h 2.609375 z" />
    </g>
    <g aria-label="ALPHA" fill="#bfbfbf">
      <path id="alpha--lab-mini" d="M 8.3968861,106.59636 h -2.0625 L 6.0140736,105.07292 H 3.4437611 l -0.359375,1.52344 h -2.0625 l 2.7890625,-9.757813 h 2.140625 z m -2.6875,-3.10156 -0.859375,-4.257816 h -0.03125 L 3.8265736,103.4948 Z
        M 14.193761,106.59636 H 9.6312611 v -9.757813 h 2.0937499 v 7.835933 h 2.46875 z
        M 15.475011,96.838547 h 2.734375 q 3.1875,0 3.1875,3.054687 0,1.367186 -0.828125,2.117186 -0.828125,0.74219 -2.34375,0.74219 h -0.617187 v 3.84375 h -2.132813 z m 2.109375,4.382813 h 0.421875 q 0.5625,0 0.867188,-0.35938 0.3125,-0.35937 0.3125,-1.015621 0,-1.445312 -1.117188,-1.445312 h -0.484375 z
        M 22.615636,96.838547 h 2.109375 v 3.726563 h 1.96875 v -3.726563 h 2.117188 v 9.757813 h -2.117188 v -4.125 h -1.953125 v 4.125 h -2.125 z
        M 37.412511,106.59636 h -2.0625 l -0.320312,-1.52344 h -2.570313 l -0.359375,1.52344 h -2.0625 l 2.789063,-9.757813 h 2.140625 z m -2.6875,-3.10156 -0.859375,-4.257816 h -0.03125 l -0.992187,4.257816 z" />
    </g>
    <line id="i-sep" stroke="#cccccc" stroke-width=".5" x1="0" y1="124.5" x2="30" y2="124.5" />
    <g aria-label="IN" fill="#888" transform="translate(0, -112.5)">
      <path id="lab-in" d="M 10.197266,239.16988 h 1.101562 v 5.1289 h -1.101562 z M 18.720703,239.16988 h 1.082031 v 5.1289 h -1.070312 l -2.355469,-3.32031 v 3.32031 h -1.101562 v -5.1289 h 1.085937 l 2.359375,3.29687 z" />
    </g>
    <line id="o-sep" stroke="#cccccc" stroke-width=".5" x1="0" y1="237" x2="30" y2="237" />
    <rect id="mini-out-bg" fill="none" x="0" y="237" width="30" height="112" />
    <g aria-label="OUT" fill="#888" transform="translate(0, 112.5)">
      <path id="lab-out" d="M 4.8671875,129.30901 q 0,-1.13672 0.75,-1.875 0.7539062,-0.74219 1.7851562,-0.74219 1.1406251,0 1.8867188,0.74609 0.7460935,0.74219 0.7460935,1.87891 0,1.1289 -0.738281,1.875 -0.7382812,0.74609 -1.859375,0.74609 -1.1210938,0 -1.8476563,-0.74219 -0.7226562,-0.74218 -0.7226562,-1.88671 z m 2.5859375,-1.59375 q -0.6445313,-0.0117 -1.0390625,0.44531 -0.3945313,0.45703 -0.3945313,1.17969 0,0.68359 0.4023438,1.13281 0.4023437,0.44922 1.015625,0.44922 0.6445313,0 1.0390625,-0.44141 Q 8.875,130.03557 8.875,129.30901 q 0,-0.71485 -0.390625,-1.14844 -0.3867187,-0.4336 -1.03125,-0.44531 z
        M 13.957031,126.74651 h 1.089844 v 3.13671 q 0,0.4375 0.242188,0.70313 0.242187,0.26562 0.636718,0.26562 0.453125,0 0.703125,-0.26562 0.25,-0.26953 0.25,-0.75781 v -3.08203 h 1.085938 v 3.32031 q 0,0.4375 -0.226563,0.91015 -0.226562,0.46875 -0.699219,0.71875 -0.46875,0.25 -1.050781,0.25 -1.054687,0 -1.542968,-0.58593 -0.488282,-0.58985 -0.488282,-1.23828 z
        M 21.683594,126.74651 h 3.449218 v 1.08984 h -1.175781 v 4.03906 h -1.105469 v -4.03906 h -1.167968 z" />
    </g>
    <path id="medallion" fill="#f9a54b" stroke="#f9a54b" stroke-width="0.75"
      d="m 14.995,365.32 c -5.2414488,0.002 -10.3294645,0.71097 -15.02106256,2.02704 L -0.03678814,380 H 30.055911 c 0,0 -0.09535,-12.60996 -0.07493,-12.66559 C 25.298861,366.0256 20.22315,365.32068 14.995,365.32 Z" />
    <g aria-label="#d" transform="matrix(3.3,0,0,3.63,-5.4831,-78.381322)">
      <path id="logo" d="M 4.79,123.59 l 0.3,-0.58 0.36,0.1 -0.3,0.58 0.55,0.15 0.3,-0.58 0.36,0.1 -0.3,0.58 0.26,0.07 -0.096,0.36 -0.33,-0.09 -0.22,0.43 0.43,0.12 -0.1,0.36 -0.51,-0.14 -0.3,0.58 -0.36,-0.1 0.3,-0.58 -0.55,-0.15 -0.3,0.58 -0.36,-0.1 0.3,-0.58 -0.26,-0.07 0.1,-0.36 0.33,0.09 0.22,-0.43 -0.43,-0.12 0.1,-0.36 z m 0.73,0.58 -0.55,-0.15 -0.22,0.43 0.55,0.15 z M 8.22,125.35 l -0.1,0.37 -0.78,-0.21 0.05,-0.1934 q -0.27,0.16 -0.52,0.09 -0.3,-0.08 -0.43,-0.38 -0.13,-0.3 -0.04,-0.65 0.095,-0.35 0.36,-0.54 0.27,-0.19 0.56,-0.11 0.28,0.08 0.41,0.34 l 0.14,-0.51 -0.25,-0.07 0.1,-0.37 0.77,0.21 -0.52,1.94 z m -0.66,-0.64 q 0.06,-0.23 -0.01,-0.36 -0.07,-0.12 -0.2,-0.16 -0.15,-0.04 -0.27,0.06 -0.11,0.09 -0.16,0.29 -0.049,0.18 0,0.33 0.049,0.14 0.2,0.19 0.13,0.03 0.25,-0.04 0.13,-0.08 0.19,-0.3 z" />
    </g>
  </g>
</svg>