<?xml version="1.0" encoding="UTF-8" standalone="no"?>
<svg width="30" height="380" viewBox="0 0 30 380" version="1.1" xmlns="http://www.w3.org/2000/svg" xmlns:svg="http://www.w3.org/2000/svg">
<linearGradient id="pg" y2="100%" gradientUnits="userSpaceOnUse">
    <stop offset="0" stop-color="#282828" />
    <stop offset="1" stop-color="#181818" />
</linearGradient>
<rect id="panel" width="100%" height="100%" fill="url(#pg)" />
<rect id="mast" width="100%" height="20" fill="#f9a806" />
<path id="Fancy--title" d="M 0.2 3.504 L 5.29 3.504 L 5.29 5.24 L 2.2 5.24 L 2.2 7.07 L 5.29 7.07 L 5.29 8.82 L 2.2 8.82 L 2.2 12.48 L 0.2 12.48 Z M 9.86 12.48 L 9.86 11.48 L 9.86 11.48 C 9.58667 11.8667 9.31333 12.15 9.04 12.33 C 8.76 12.5033 8.41333 12.59 8 12.59 C 7.31333 12.59 6.73 12.2933 6.25 11.7 C 5.76333 11.1067 5.52 10.3867 5.52 9.54 C 5.52 8.7 5.78 7.98333 6.3 7.39 C 6.81333 6.78333 7.42333 6.48 8.13 6.48 C 8.46333 6.48 8.76667 6.55667 9.04 6.71 C 9.30667 6.86333 9.59 7.10333 9.89 7.43 L 9.89 6.61 L 11.641 6.61 L 11.641 12.48 Z M 8.58 8.23 C 8.23333 8.23 7.94333 8.37 7.71 8.65 C 7.47667 8.92333 7.36 9.27 7.36 9.69 C 7.36 10.0833 7.47 10.4 7.69 10.64 C 7.91 10.88 8.2 11 8.56 11 C 8.90667 11 9.20333 10.8633 9.45 10.59 C 9.69667 10.31 9.82 9.97333 9.82 9.58 C 9.82 9.21333 9.69667 8.9 9.45 8.64 C 9.20333 8.36667 8.91333 8.23 8.58 8.23 Z M 14.34 6.6 L 14.34 7.3 C 14.94 6.74 15.5667 6.46 16.22 6.46 C 16.7867 6.46 17.25 6.69 17.61 7.15 C 17.9833 7.61 18.17 8.19667 18.17 8.91 L 18.17 12.48 L 16.39 12.48 L 16.39 9.19 C 16.39 8.85667 16.2967 8.57333 16.11 8.34 C 15.9233 8.10667 15.7 7.99 15.44 7.99 C 15.12 7.99 14.8567 8.13667 14.65 8.43 C 14.4433 8.72333 14.34 9.10333 14.34 9.57 L 14.34 12.48 L 12.594 12.48 L 12.594 6.6 Z M 23.3 10.45 L 23.3 12.2 C 22.7 12.4667 22.19 12.6 21.77 12.6 C 20.8833 12.6 20.1433 12.31 19.55 11.73 C 18.9567 11.1433 18.66 10.4133 18.66 9.54 C 18.66 8.66 18.9333 7.93 19.48 7.35 C 20.0333 6.77 20.7333 6.48 21.58 6.48 C 22.1933 6.48 22.7667 6.62 23.3 6.9 L 23.3 8.55 C 22.7667 8.30333 22.2933 8.18 21.88 8.18 C 21.4933 8.18 21.1767 8.3 20.93 8.54 C 20.6967 8.78 20.58 9.09667 20.58 9.49 C 20.58 9.87667 20.6967 10.19 20.93 10.43 C 21.17 10.6633 21.4833 10.78 21.87 10.78 C 22.2233 10.78 22.7 10.67 23.3 10.45 Z M 23.3 6.61 L 25.1 6.61 L 26.8 10.03 L 28.3 6.61 L 30.1 6.61 L 26.5 15.04 L 24.7 15.04 L 26 12.06 Z" />
<path id="mini--title" d="M 8.77 15.01 L 8.77 15.59 C 8.83667 15.59 8.91333 15.5233 9 15.39 C 9.1 15.3033 9.2 15.2267 9.3 15.16 C 9.39333 15.0867 9.50667 15.03 9.64 14.99 C 9.77333 14.9233 9.89333 14.89 10 14.89 C 10.1733 14.89 10.3633 14.95 10.57 15.07 C 10.77 15.19 10.9367 15.43 11.07 15.79 C 11.3033 15.4433 11.5333 15.2067 11.76 15.08 C 11.98 14.9533 12.1883 14.89 12.385 14.89 C 12.7277 14.89 13.0177 15.03 13.255 15.31 C 13.4923 15.63 13.611 15.99 13.611 16.39 L 13.611 18.79 L 12.486 18.79 L 12.486 16.69 C 12.486 16.49 12.429 16.3233 12.315 16.19 C 12.1983 16.0567 12.06 15.99 11.9 15.99 C 11.7067 15.99 11.54 16.0567 11.4 16.19 C 11.26 16.3233 11.19 16.5233 11.19 16.79 L 11.19 18.79 L 10.07 18.79 L 10.07 16.79 C 10.07 16.5233 10.0133 16.3233 9.9 16.19 C 9.78667 16.0567 9.64667 15.99 9.48 15.99 C 9.28667 15.99 9.12 16.0567 8.98 16.19 C 8.84 16.39 8.77 16.59 8.77 16.79 L 8.77 18.79 L 7.63 18.79 L 7.63 14.97 Z M 14.62 13.61 C 14.62 13.4233 14.6867 13.26 14.82 13.12 C 14.96 12.98 15.1267 12.91 15.32 12.91 C 15.5133 12.91 15.68 12.98 15.82 13.12 C 15.9533 13.26 16.02 13.4233 16.02 13.61 C 16.02 13.8033 15.9533 13.97 15.82 14.11 C 15.68 14.25 15.5133 14.32 15.32 14.32 C 15.1267 14.32 14.96 14.25 14.82 14.11 C 14.6867 13.97 14.62 13.8033 14.62 13.61 Z M 14.76 15.01 L 15.89 15.01 L 15.89 18.79 L 14.76 18.79 Z M 18.26 15.01 L 18.26 15.49 C 18.6467 15.11 19.05 14.92 19.47 14.92 C 19.83 14.92 20.1267 15.0667 20.36 15.36 C 20.6 15.6467 20.72 16.0233 20.72 16.49 L 20.72 18.79 L 19.57 18.79 L 19.57 16.69 C 19.57 16.49 19.51 16.29 19.39 16.09 C 19.2767 15.9567 19.1333 15.89 18.96 15.89 C 18.76 15.89 18.5933 15.99 18.46 16.19 C 18.3267 16.39 18.26 16.6233 18.26 16.89 L 18.26 18.79 L 17.14 18.79 L 17.14 15.01 Z M 21.73 13.61 C 21.73 13.4233 21.8 13.26 21.94 13.12 C 22.08 12.98 22.2467 12.91 22.44 12.91 C 22.6333 12.91 22.7967 12.98 22.93 13.12 C 23.07 13.26 23.14 13.4233 23.14 13.61 C 23.14 13.8033 23.07 13.97 22.93 14.11 C 22.7967 14.25 22.6333 14.32 22.44 14.32 C 22.2467 14.32 22.08 14.25 21.94 14.11 C 21.8 13.97 21.73 13.8033 21.73 13.61 Z M 21.88 15.01 L 23 15.01 L 23 18.79 L 21.88 18.79 Z" />

<g transform="translate(0, 28)" >
    <circle id="k:fancy-light" cx="15" cy="1.5" r="2.95" fill="#fff" />
    <rect id="k:on-off" fill="#aaa" x="7" y="10" width="16" height="12" />
</g>

<g transform="translate(0, 36)" >
    <g transform="translate(0, 24)">
        <path id="m-label" aria-label="IMAGE" fill="#666666" d="m 0.42,0.25 h 2.07 v 9.13 h -2.07 z m 4.76,0 h 2.62 c 0.37,1.97 0.67,3.67 0.88,5.08 l 0.23,-1.41 c 0.1,-0.55 0.18,-1.09 0.29,-1.62 l 0.4,-2.05 h 2.7 l 1,9.13 h -2 l -0.6,-6.28 -1.27,6.28 h -1.4 l -1.34,-6.29 -0.53,6.29 h -1.96 z m 16.22,9.13 h -2.2 l -0.3,-1.52 h -2.2 l -0.4,1.52 h -2.1 l 2.4,-9.13 h 2.4 z m -2.9,-3.17 c -0.4,-1.35 -0.6,-2.64 -0.7,-3.87 v 0 c -0.2,1.26 -0.5,2.55 -0.7,3.87 z m 10.1,-1.94 v 1.53 c 0,1.19 -0.3,2.11 -0.9,2.78 -0.6,0.67 -1.3,1 -2.3,1 -1.2,0 -2,-0.4 -2.6,-1.2 -0.6,-0.85 -0.9,-2.06 -0.9,-3.61 0,-1.56 0.3,-2.74 0.9,-3.55 0.6,-0.813 1.4,-1.22 2.6,-1.22 1.3,0 2.3,0.697 2.9,2.09 l -2,0.81 c -0.2,-0.29 -0.4,-0.51 -0.5,-0.64 -0.2,-0.13 -0.4,-0.2 -0.6,-0.2 -0.4,0 -0.7,0.22 -0.8,0.66 -0.2,0.44 -0.3,1.15 -0.3,2.13 0,0.92 0.1,1.6 0.3,2.03 0.2,0.43 0.5,0.64 0.9,0.64 0.7,0 1.1,-0.49 1.1,-1.48 h -1 v -1.77 z m 1.5,-4.02 h 4.2 v 1.95 h -2.1 v 1.68 h 1.8 v 1.89 h -1.8 v 1.66 h 2.1 v 1.95 h -4.2 z" />
        <rect id="k:pic-check" fill="#a6a6a6" x="1.5" y="14" width="14" height="14" />
        <rect id="k:pic-options" fill="#a6a6a6" x="16" y="15" width="12" height="12" />
    </g>
    <g transform="translate(0, 74)" >
        <path id="m-label" aria-label="TONE" fill="#666666" d="m -0.34,0.25 h 4.95 v 2.09 h -1.43 v 7.04 h -2.1 v -7.04 h -1.42 z m 9.08,9.33 c -1.1,0 -1.94,-0.4 -2.52,-1.2 -0.58,-0.87 -0.87,-2.11 -0.87,-3.7 0,-1.47 0.29,-2.62 0.87,-3.44 0.58,-0.827 1.39,-1.24 2.43,-1.24 1.11,0 1.95,0.413 2.55,1.24 0.6,0.83 0.9,2 0.9,3.53 0,1.53 -0.3,2.74 -0.9,3.61 -0.6,0.8 -1.39,1.2 -2.46,1.2 z m -0.1,-7.51 c -0.75,0 -1.12,0.88 -1.12,2.63 0,1.13 0.1,1.89 0.28,2.27 0.19,0.37 0.46,0.56 0.82,0.56 0.39,0 0.68,-0.19 0.89,-0.56 0.21,-0.38 0.32,-1.12 0.32,-2.22 0,-1.79 -0.4,-2.68 -1.19,-2.68 z m 4.96,-1.82 h 2.1 l 2.6,5.27 -0.1,-0.99 v -4.28 h 2.1 v 9.13 h -2.2 l -2.5,-5.18 0.1,1.13 v 4.05 h -2.1 z m 8.6,0 h 4.2 v 1.95 h -2.1 v 1.68 h 1.8 v 1.89 h -1.8 v 1.66 h 2.1 v 1.95 h -4.2 z" />
        <rect id="k:fill-check" fill="#a6a6a6" x="1.5" y="14" width="14" height="14" />
        <rect id="k:fill-options" fill="#a6a6a6" x="16" y="15" width="12" height="12" />
    </g>
    <g transform="translate(0, 124)" >
        <path fill="#666666" id="m-label" aria-label="LINEAR"  d="m 0.35,0.25 h 2.07 v 7.02 h 1.64 v 2.11 h -3.71 z m 5.19,0 h 2.07 v 9.13 h -2.07 z m 4.09,0 h 2.07 l 2.7,5.27 -0.1,-0.99 v -4.28 h 2 v 9.13 h -2.1 l -2.6,-5.18 0.1,1.13 v 4.05 h -2.05 z m 8.77,0 h 4.1 v 1.95 h -2.1 v 1.68 h 1.9 v 1.89 h -1.9 v 1.66 h 2.2 v 1.95 h -4.2 z m 12.2,9.13 h -2.2 l -0.3,-1.52 h -2.2 l -0.4,1.52 h -2.1 l 2.4,-9.13 h 2.4 z m -2.9,-3.17 c -0.4,-1.35 -0.6,-2.64 -0.7,-3.87 v 0 c -0.2,1.26 -0.5,2.55 -0.7,3.87 z m 3.9,-5.96 h 2.4 c 1,0 1.7,0.253 2.3,0.76 0.6,0.5 0.9,1.18 0.9,2.04 0,0.44 -0.1,0.87 -0.3,1.29 -0.3,0.41 -0.6,0.71 -1,0.92 l 1.7,4.12 h -2.2 l -1.7,-4.16 v 0 4.16 h -2.1 z m 2.1,1.77 v 2.16 c 0.9,0 1.4,-0.32 1.4,-0.96 0,-0.42 -0.2,-0.72 -0.4,-0.91 -0.2,-0.18 -0.6,-0.28 -1,-0.29 z" />
        <rect id="k:linear-check" fill="#a6a6a6" x="1.5" y="14" width="14" height="14" />
        <rect id="k:linear-options" fill="#a6a6a6" x="16" y="15" width="12" height="12" />
    </g>
    <g transform="translate(0, 174)">
       <path fill="#666666" id="m-label" aria-label="RADIAL"  d="m 0.35,0.25 h 2.41 c 0.97,0 1.74,0.253 2.31,0.76 0.57,0.5 0.85,1.18 0.85,2.04 0,0.44 -0.11,0.87 -0.32,1.29 -0.22,0.41 -0.53,0.71 -0.94,0.92 l 1.66,4.12 h -2.19 l -1.68,-4.16 v 0 4.16 h -2.07 z m 2.07,1.77 v 2.16 c 0.91,0 1.37,-0.32 1.37,-0.96 0,-0.42 -0.11,-0.72 -0.32,-0.91 -0.21,-0.18 -0.56,-0.28 -1.05,-0.29 z m 11.48,7.36 h -2.2 l -0.3,-1.52 h -2.22 l -0.36,1.52 h -2.12 l 2.42,-9.13 h 2.38 z m -2.9,-3.17 c -0.3,-1.35 -0.6,-2.64 -0.7,-3.87 v 0 c -0.2,1.26 -0.43,2.55 -0.72,3.87 z m 3.9,-5.96 h 2 c 1.3,0 2.3,0.383 3,1.15 0.7,0.76 1.1,1.88 1.1,3.35 0,1.11 -0.2,2 -0.5,2.69 -0.4,0.69 -0.9,1.17 -1.5,1.44 -0.6,0.33 -1.3,0.5 -2,0.5 h -2.1 z m 2.1,1.95 v 5.23 c 0.6,-0.1 1.1,-0.29 1.4,-0.66 0.2,-0.39 0.3,-1.04 0.3,-1.93 0,-0.53 -0.1,-0.97 -0.1,-1.34 -0.1,-0.37 -0.2,-0.65 -0.4,-0.85 -0.2,-0.2 -0.4,-0.32 -0.5,-0.37 -0.2,-0.1 -0.5,-0.1 -0.7,-0.1 z m 5.5,-1.95 h 2 v 9.13 h -2 z m 10.4,9.13 h -2.1 l -0.4,-1.52 h -2.1 l -0.4,1.52 h -2.1 l 2.4,-9.13 h 2.3 z m -2.9,-3.17 c -0.3,-1.35 -0.5,-2.64 -0.7,-3.87 v 0 c -0.2,1.26 -0.4,2.55 -0.7,3.87 z m 4,-5.96 h 2.1 v 7.02 h 1.6 v 2.11 h -3.7 z" />
        <rect id="k:radial-check" fill="#a6a6a6" x="1.5" y="14" width="14" height="14" />
        <rect id="k:radial-options" fill="#a6a6a6" x="16" y="15" width="12" height="12" />
    </g>
    <g transform="translate(0, 224)" >
        <path id="m-label" aria-label="BOX" fill="#666666" d="m 0.35,0.25 h 2.1 c 1.23,0 2.11,0.243 2.65,0.73 0.54,0.48 0.81,1.09 0.81,1.83 0,0.8 -0.4,1.45 -1.18,1.94 0.89,0.35 1.33,1.01 1.33,2 0,0.79 -0.27,1.43 -0.82,1.93 -0.55,0.47 -1.28,0.7 -2.19,0.7 h -2.7 z m 2.07,1.75 v 1.97 c 0.93,0 1.39,-0.32 1.39,-0.96 0,-0.37 -0.11,-0.62 -0.34,-0.77 -0.22,-0.15 -0.57,-0.23 -1.05,-0.24 z m 0,3.63 v 1.97 c 0.52,0 0.91,-0.1 1.17,-0.24 0.27,-0.15 0.4,-0.41 0.4,-0.76 0,-0.65 -0.47,-0.97 -1.4,-0.97 z m 8.08,3.95 c -1.15,0 -1.99,-0.4 -2.56,-1.2 -0.58,-0.87 -0.87,-2.11 -0.87,-3.7 0,-1.47 0.29,-2.62 0.87,-3.44 0.58,-0.827 1.39,-1.24 2.46,-1.24 1.1,0 1.9,0.413 2.5,1.24 0.6,0.83 0.9,2 0.9,3.53 0,1.53 -0.3,2.74 -0.9,3.61 -0.6,0.8 -1.4,1.2 -2.4,1.2 z m -0.1,-7.51 c -0.79,0 -1.16,0.88 -1.16,2.63 0,1.13 0.1,1.89 0.28,2.27 0.19,0.37 0.47,0.56 0.88,0.56 0.3,0 0.6,-0.19 0.8,-0.56 0.2,-0.38 0.4,-1.12 0.4,-2.22 0,-1.79 -0.4,-2.68 -1.2,-2.68 z m 4.1,-1.82 h 2.4 c 0.6,1.43 0.9,2.25 0.9,2.46 h 0.1 c 0,-0.1 0,-0.3 0.2,-0.69 l 0.7,-1.77 h 2.3 l -2.1,4.36 2.3,4.77 h -2.3 c -0.8,-1.72 -1.1,-2.65 -1.1,-2.78 h -0.1 c -0.1,0.29 -0.2,0.58 -0.3,0.87 l -0.8,1.91 h -2.3 l 2.3,-4.74 z" />
        <rect id="k:box-check" fill="#a6a6a6" x="1.5" y="14" width="14" height="14" />
        <rect id="k:box-options" fill="#a6a6a6" x="16" y="15" width="12" height="12" />
    </g>
    <g transform="translate(0, 274)" >
        <path id="m-label" fill="#666666" d="M 0.35,9.18 v -2.1 c 0.65,0.39 1.2,0.58 1.65,0.58 0.26,0 0.47,-0.1 0.62,-0.21 0.15,-0.15 0.22,-0.34 0.22,-0.58 0,-0.18 -0.1,-0.35 -0.18,-0.51 -0.12,-0.16 -0.33,-0.35 -0.62,-0.58 -0.72,-0.55 -1.24,-1.06 -1.56,-1.53 -0.32,-0.47 -0.48,-1 -0.48,-1.58 0,-0.79 0.247,-1.43 0.74,-1.92 0.5,-0.5 1.14,-0.75 1.93,-0.75 0.59,0 1.17,0.127 1.74,0.38 v 2.04 c -0.61,-0.33 -1.11,-0.5 -1.5,-0.5 -0.25,0 -0.46,0.1 -0.61,0.19 -0.15,0.12 -0.22,0.29 -0.22,0.51 0,0.38 0.35,0.81 1.04,1.29 0.41,0.29 0.82,0.69 1.24,1.2 0.43,0.51 0.64,1.1 0.64,1.77 0,0.8 -0.28,1.47 -0.83,2 -0.55,0.47 -1.25,0.7 -2.1,0.7 -0.58,0 -1.153,-0.13 -1.72,-0.4 z m 6.13,-8.93 h 2.07 v 4.3 0 l 1.95,-4.3 h 2.2 l -2.1,4.67 2,4.46 h -2.3 l -1.75,-3.79 v 0 3.79 h -2.07 z m 7.32,0 h 2.1 v 9.13 h -2.1 z m 4.2,0 h 4.1 v 1.96 h -2.1 v 1.67 h 1.9 v 1.89 h -1.9 v 3.61 h -2 z m 5.5,0 h 4.2 v 1.96 h -2.1 v 1.67 h 1.8 v 1.89 h -1.8 v 3.61 h -2.1 z" />
        <rect id="k:skiff-check" fill="#a6a6a6" x="1.5" y="14" width="14" height="14" />
        <rect id="k:skiff-options" fill="#a6a6a6" x="16" y="15" width="12" height="12" />
    </g>
</g>
<g aria-label="#d (pachde logo)" transform="translate(8,364)" >
  <path id="logo" fill="#dbdbdb" d="M 3.023,5.309 3.916,3.543 5.003,3.834 4.104,5.599 5.759,6.042 6.658,4.277 7.74,4.567 6.846,6.334 7.631,6.544 7.34,7.631 6.328,7.36 5.666,8.665 6.969,9.014 6.678,10.1 5.148,9.691 4.255,11.457 3.168,11.166 4.062,9.4 2.407,8.956 1.513,10.723 0.426,10.431 1.32,8.665 0.540,8.456 0.831,7.369 1.843,7.64 2.5,6.334 1.202,5.986 1.493,4.899 Z M 5.242,7.068 3.587,6.625 2.924,7.93 4.58,8.374 Z M 13.387,10.647 l -0.301,1.122 -2.354,-0.631 0.155,-0.579 Q 10.064,11.035 9.304,10.831 8.394,10.587 7.993,9.687 7.593,8.787 7.874,7.736 8.160,6.669 8.969,6.104 9.78,5.534 10.665,5.771 11.516,6 11.892,6.807 L 12.306,5.262 11.547,5.058 11.847,3.937 14.161,4.557 12.587,10.433 Z M 11.402,8.697 Q 11.589,7.998 11.367,7.62 11.15,7.244 10.767,7.141 10.31,7.019 9.962,7.308 9.621,7.595 9.466,8.173 9.32,8.721 9.465,9.165 q 0.147,0.438 0.615,0.564 0.387,0.104 0.76,-0.12 0.379,-0.227 0.562,-0.912 z" />
</g>
</svg>
