<?xml version="1.0" encoding="UTF-8" standalone="no"?>
<svg width="435" height="280" viewBox="0 0 435 280" version="1.1" id="svg1" sodipodi:docname="fancy-dialog.svg" inkscape:version="1.3.2 (091e20e, 2023-11-25, custom)" xmlns:inkscape="http://www.inkscape.org/namespaces/inkscape" xmlns:sodipodi="http://sodipodi.sourceforge.net/DTD/sodipodi-0.dtd" xmlns="http://www.w3.org/2000/svg" xmlns:svg="http://www.w3.org/2000/svg">
  <defs id="defs1" />
  <sodipodi:namedview id="namedview1" pagecolor="#ffffff" bordercolor="#666666" borderopacity="1.0" inkscape:showpageshadow="2" inkscape:pageopacity="0.0" inkscape:pagecheckerboard="0" inkscape:deskcolor="#d1d1d1" showgrid="false" inkscape:zoom="6.2" inkscape:cx="203" inkscape:cy="192" inkscape:window-width="3840" inkscape:window-height="2054" inkscape:window-x="2869" inkscape:window-y="-11" inkscape:window-maximized="1" inkscape:current-layer="g25" />
  <rect fill="#222222" id="panel" width="100%" height="100%" x="0" y="0" sodipodi:insensitive="true" />
  <rect style="fill:#f9a806;fill-opacity:1;stroke:none;stroke-width:2.5092;stroke-dasharray:none;stroke-opacity:1;paint-order:fill markers stroke" id="mast" width="100%" height="18" x="0" y="0" sodipodi:insensitive="true" />
  <rect fill="#f62222" id="close" width="12" height="12" x="417" y="4.5" sodipodi:insensitive="true" />
  <rect style="fill:#a6a6a6;fill-opacity:1;stroke:none;stroke-width:0.988635;paint-order:fill markers stroke" id="rect19" width="31" height="6.78" x="187" y="7.58" transform="matrix(3.61,0,0,1.77,-516,-8.67)" inkscape:label="dialog-title" />
  <rect style="fill:none;fill-opacity:1;stroke:#808080;stroke-width:2.5;stroke-dasharray:none;stroke-opacity:1;paint-order:fill markers stroke" id="border" width="432.5" height="277.5" x="1.25" y="1.25" />
  <g id="g26" inkscape:label="Fill">
    <rect style="fill:#a6a6a6;fill-opacity:1;stroke:none;stroke-width:2.72081;paint-order:fill markers stroke" id="rect7" width="26" height="12.3" x="113" y="101" transform="matrix(1.04,0,0,0.813,-6.35,12.7)" inkscape:label="fill-fade-label" />
    <circle style="fill:#5c95d6;fill-opacity:1;stroke:none;stroke-width:2.498;stroke-dasharray:none;stroke-opacity:1;paint-order:fill markers stroke" id="path4" cx="52.1" cy="67.3" r="11.3" transform="translate(72.9,13.1)" inkscape:label="fill-fade-knob" />
    <path id="path4-6" style="fill:#5c95d6;stroke-width:2.498;paint-order:fill markers stroke" d="m 20.1,57.3 c -2,0 -5.3,1 -6.3,3 -1,2 2,2 2,5 0,2 -4,2 -4,6 0,3 4,6 8.3,6 6,0 10,-4 10,-10 0,-6 -4,-10 -10,-10 z m -2,11 a 1.9,3.29 56.1 0 1 2,1 1.9,3.29 56.1 0 1 -2,3 1.9,3.29 56.1 0 1 -3.6,0 1.9,3.29 56.1 0 1 1.6,-3 1.9,3.29 56.1 0 1 2,-1 z" transform="translate(72.9,13.1)" inkscape:label="fill-co" />
    <path id="path48" style="fill:none;stroke:#f9a806;stroke-width:0.750227;stroke-opacity:1;paint-order:fill markers stroke" d="m 141,32 h 64 V 138 H 15.4 V 32 h 63" sodipodi:nodetypes="cccccc" transform="translate(1.3)" inkscape:label="FIll-box" />
    <rect style="fill:#a6a6a6;fill-opacity:1;stroke:none;stroke-width:2.3863;paint-order:fill markers stroke" id="rect20" width="26" height="12.3" x="113" y="101" transform="matrix(1.04,0,0,1.06,-9.71,-81.2)" inkscape:label="fill-title--label" />
    <rect style="fill:#a6a6a6;fill-opacity:1;stroke:#ffffff;stroke-width:0.75;stroke-dasharray:none;stroke-opacity:1;paint-order:fill markers stroke" id="rect5" width="12" height="12" x="125" y="37.4" transform="translate(-33,-11)" inkscape:label="fill-check" />
  </g>
  <g id="g23" inkscape:label="LG">
    <rect style="fill:#a6a6a6;fill-opacity:1;stroke:none;stroke-width:2.72081;paint-order:fill markers stroke" id="rect9" width="26" height="12.3" x="113" y="101" transform="matrix(1.04,0,0,0.813,166,-7.96)" inkscape:label="lg-start-fade" />
    <rect style="fill:#a6a6a6;fill-opacity:1;stroke:none;stroke-width:2.72081;paint-order:fill markers stroke" id="rect8" width="26" height="12.3" x="113" y="101" transform="matrix(1.04,0,0,0.813,124,-7.96)" inkscape:label="lg-co-start" />
    <circle style="fill:#5c95d6;fill-opacity:1;stroke:none;stroke-width:2.498;stroke-dasharray:none;stroke-opacity:1;paint-order:fill markers stroke" id="circle1" cx="296" cy="59.8" r="11.3" transform="translate(1.3)" inkscape:label="lg-start-fade-knob" />
    <circle style="fill:#5c95d6;fill-opacity:1;stroke:none;stroke-width:2.498;stroke-dasharray:none;stroke-opacity:1;paint-order:fill markers stroke" id="circle1-8" cx="345" cy="59.8" r="11.3" transform="translate(1.3)" inkscape:label="lg-start-x-knob" />
    <circle style="fill:#5c95d6;fill-opacity:1;stroke:none;stroke-width:2.498;stroke-dasharray:none;stroke-opacity:1;paint-order:fill markers stroke" id="circle1-5" cx="393" cy="59.8" r="11.3" transform="translate(1.3)" inkscape:label="lg-start-y-knob" />
    <path id="path1" style="fill:#5c95d6;stroke-width:2.498;paint-order:fill markers stroke" d="m 253,49.8 c -2,0 -5,1 -6,3 -1,2 2,2 2,5 0,2 -4,2 -4,6 0,3 4,6 8,6 6,0 10,-4 10,-10 0,-6 -4,-10 -10,-10 z m -2,11 a 1.9,3.29 56.1 0 1 2,1 1.9,3.29 56.1 0 1 -2,3 1.9,3.29 56.1 0 1 -3,0 1.9,3.29 56.1 0 1 1,-3 1.9,3.29 56.1 0 1 2,-1 z" transform="translate(1.3)" inkscape:label="lg-start-co" />
    <circle style="fill:#5c95d6;fill-opacity:1;stroke:none;stroke-width:2.498;stroke-dasharray:none;stroke-opacity:1;paint-order:fill markers stroke" id="circle29" cx="296" cy="104" r="11.3" transform="translate(1.3)" inkscape:label="lg=end-fade-knob" />
    <circle style="fill:#5c95d6;fill-opacity:1;stroke:none;stroke-width:2.498;stroke-dasharray:none;stroke-opacity:1;paint-order:fill markers stroke" id="circle30" cx="345" cy="104" r="11.3" transform="translate(1.3)" inkscape:label="lg-end-x-knob" />
    <circle style="fill:#5c95d6;fill-opacity:1;stroke:none;stroke-width:2.498;stroke-dasharray:none;stroke-opacity:1;paint-order:fill markers stroke" id="circle31" cx="393" cy="104" r="11.3" transform="translate(1.3)" inkscape:label="lg-end-y-knob" />
    <path id="path34" style="fill:#5c95d6;stroke-width:2.498;paint-order:fill markers stroke" d="m 253,93.8 c -2,0 -5,1 -6,3 -1,1.7 2,1.7 2,5.2 0,2 -4,2 -4,6 0,3 4,6 8,6 6,0 10,-4 10,-10 0,-6.2 -4,-10.2 -10,-10.2 z m -2,11.2 a 1.9,3.29 56.1 0 1 2,1 1.9,3.29 56.1 0 1 -2,3 1.9,3.29 56.1 0 1 -3,0 1.9,3.29 56.1 0 1 1,-3 1.9,3.29 56.1 0 1 2,-1 z" transform="translate(1.3)" inkscape:label="lg-end-co" />
    <rect style="fill:#a6a6a6;fill-opacity:1;stroke:none;stroke-width:2.31627;paint-order:fill markers stroke" id="rect10" width="8.87" height="8.71" x="323" y="80.7" transform="matrix(1.01,0,0,1.15,15.1,-18.7)" inkscape:label="lg-start-x" />
    <rect style="fill:#a6a6a6;fill-opacity:1;stroke:none;stroke-width:2.31627;paint-order:fill markers stroke" id="rect11" width="8.87" height="8.71" x="323" y="80.7" transform="matrix(1.01,0,0,1.15,63.1,-18.7)" inkscape:label="lg-start-y" />
    <rect style="fill:#a6a6a6;fill-opacity:1;stroke:none;stroke-width:2.72081;paint-order:fill markers stroke" id="rect12" width="26" height="12.3" x="113" y="101" transform="matrix(1.04,0,0,0.813,239,-27.3)" inkscape:label="lg-start" />
    <rect style="fill:#a6a6a6;fill-opacity:1;stroke:none;stroke-width:2.31627;paint-order:fill markers stroke" id="rect13" width="8.87" height="8.71" x="323" y="80.7" transform="matrix(1.01,0,0,1.15,15.1,25.2)" inkscape:label="lg-end-x" />
    <rect style="fill:#a6a6a6;fill-opacity:1;stroke:none;stroke-width:2.31627;paint-order:fill markers stroke" id="rect14" width="8.87" height="8.71" x="323" y="80.7" transform="matrix(1.01,0,0,1.15,63.1,25.2)" inkscape:label="lg-end-y" />
    <rect style="fill:#a6a6a6;fill-opacity:1;stroke:none;stroke-width:2.72081;paint-order:fill markers stroke" id="rect15" width="26" height="12.3" x="113" y="101" transform="matrix(1.04,0,0,0.813,239,16.9)" inkscape:label="lg-end" />
    <rect style="fill:#a6a6a6;fill-opacity:1;stroke:none;stroke-width:2.72081;paint-order:fill markers stroke" id="rect17" width="26" height="12.3" x="113" y="101" transform="matrix(1.04,0,0,0.813,166,35.9)" inkscape:label="lg-end-fade" />
    <rect style="fill:#a6a6a6;fill-opacity:1;stroke:none;stroke-width:2.72081;paint-order:fill markers stroke" id="rect18" width="26" height="12.3" x="113" y="101" transform="matrix(1.04,0,0,0.813,124,35.9)" inkscape:label="lg-co-end" />
    <path id="rect35" style="fill:none;stroke:#f9a806;stroke-width:0.750227;stroke-opacity:1;paint-order:fill markers stroke" d="m 389,32.4 h 28 V 138 H 227 V 32.4 h 25" sodipodi:nodetypes="cccccc" transform="translate(1.3)" inkscape:label="lg-box" />
    <rect style="fill:#a6a6a6;fill-opacity:1;stroke:#ffffff;stroke-width:0.75;stroke-dasharray:none;stroke-opacity:1;paint-order:fill markers stroke" id="rect6" width="12" height="12" x="125" y="37.4" transform="translate(139,-11)" inkscape:label="lg-check" />
    <rect style="fill:#a6a6a6;fill-opacity:1;stroke:none;stroke-width:2.23697;paint-order:fill markers stroke" id="rect23" width="75.2" height="13" x="84.9" y="152" inkscape:label="LG-title" transform="matrix(1.25,0,0,1,178,-125)" />
  </g>
  <g id="g25" inkscape:label="BG">
    <circle style="fill:#5c95d6;fill-opacity:1;stroke:none;stroke-width:2.498;stroke-dasharray:none;stroke-opacity:1;paint-order:fill markers stroke" id="circle27" cx="162" cy="330" r="11.3" transform="translate(16,-97.4)" inkscape:label="bg-feather-knob" />
    <circle style="fill:#5c95d6;fill-opacity:1;stroke:none;stroke-width:2.498;stroke-dasharray:none;stroke-opacity:1;paint-order:fill markers stroke" id="circle22-9" cx="116" cy="330" r="11.3" transform="translate(16,-97.4)" inkscape:label="br-radius-knob" />
    <circle style="fill:#5c95d6;fill-opacity:1;stroke:none;stroke-width:2.498;stroke-dasharray:none;stroke-opacity:1;paint-order:fill markers stroke" id="circle21-7" cx="69.3" cy="330" r="11.3" transform="translate(16,-97.4)" inkscape:label="bg-outer-fade-knob" />
    <circle style="fill:#5c95d6;fill-opacity:1;stroke:none;stroke-width:2.498;stroke-dasharray:none;stroke-opacity:1;paint-order:fill markers stroke" id="circle2" cx="69.3" cy="277" r="11.3" transform="translate(16,-97.4)" inkscape:label="bg-inner-fade-knob" />
    <circle style="fill:#5c95d6;fill-opacity:1;stroke:none;stroke-width:2.498;stroke-dasharray:none;stroke-opacity:1;paint-order:fill markers stroke" id="circle3" cx="116" cy="277" r="11.3" transform="translate(16,-97.4)" inkscape:label="bg-shrink-x-knob" />
    <circle style="fill:#5c95d6;fill-opacity:1;stroke:none;stroke-width:2.498;stroke-dasharray:none;stroke-opacity:1;paint-order:fill markers stroke" id="circle4" cx="162" cy="277" r="11.3" transform="translate(16,-97.4)" inkscape:label="bg-shrink-y-knob" />
    <path id="path18" style="fill:#5c95d6;stroke-width:2.498;paint-order:fill markers stroke" d="m 22,267 c -2,0 -5,1 -6,3 -1,2 2,2 2,5 0,2 -4,2 -4,6 0,3 4,6 8,6 6,0 10,-4 10,-10 0,-6 -4,-10 -10,-10 z m -2,11 a 1.9,3.29 56.1 0 1 2,1 1.9,3.29 56.1 0 1 -2,3 1.9,3.29 56.1 0 1 -3,0 1.9,3.29 56.1 0 1 1,-3 1.9,3.29 56.1 0 1 2,-1 z" transform="translate(16,-97.4)" inkscape:label="bg-inner-co" />
    <path id="path19" style="fill:#5c95d6;stroke-width:2.498;paint-order:fill markers stroke" d="m 22,320 c -2,0 -5,1 -6,3 -1,2 2,2 2,5 0,2 -4,2 -4,6 0,3 4,6 8,6 6,0 10,-4 10,-10 0,-6 -4,-10 -10,-10 z m -2,11 a 1.9,3.29 56.1 0 1 2,1 1.9,3.29 56.1 0 1 -2,3 1.9,3.29 56.1 0 1 -3,0 1.9,3.29 56.1 0 1 1,-3 1.9,3.29 56.1 0 1 2,-1 z" transform="translate(16,-97.4)" inkscape:label="bg-outer-co" />
    <rect style="fill:#a6a6a6;fill-opacity:1;stroke:none;stroke-width:2.40192;paint-order:fill markers stroke" id="rect36" width="24" height="10" x="102" y="208" transform="matrix(1.08,0,0,1,-37.8,-14.4)" inkscape:label="bg-inner-fade--label" />
    <rect style="fill:#a6a6a6;fill-opacity:1;stroke:none;stroke-width:2.40192;paint-order:fill markers stroke" id="rect37" width="24" height="10" x="102" y="208" transform="matrix(1.08,0,0,1,-37.8,39.6)" inkscape:label="bg-outer-fade--label" />
    <rect style="fill:#a6a6a6;fill-opacity:1;stroke:none;stroke-width:2.31098;paint-order:fill markers stroke" id="rect38" width="24" height="10" x="102" y="208" transform="matrix(1.17,0,0,1,-94.4,-14.4)" inkscape:label="bg-inner-co--label" />
    <rect style="fill:#a6a6a6;fill-opacity:1;stroke:none;stroke-width:2.10017;paint-order:fill markers stroke" id="rect39" width="24" height="10" x="102" y="208" transform="matrix(1.42,0,0,1,-123,40.1)" inkscape:label="bg-outer-co--label" />
    <rect style="fill:#a6a6a6;fill-opacity:1;stroke:none;stroke-width:2.5;paint-order:fill markers stroke" id="rect40" width="10" height="10" x="108" y="213" inkscape:label="bg-shrink-x--label" transform="translate(18.5,-19.4)" />
    <rect style="fill:#a6a6a6;fill-opacity:1;stroke:none;stroke-width:2.5;paint-order:fill markers stroke" id="rect41" width="10" height="10" x="108" y="213" inkscape:label="bg-shrink-y--label" transform="translate(64.5,-19.4)" />
    <rect style="fill:#a6a6a6;fill-opacity:1;stroke:none;stroke-width:1.39473;paint-order:fill markers stroke" id="rect42" width="10" height="10" x="108" y="213" inkscape:label="bg-shrink--label" transform="matrix(3.2,0,0,1,-207,-19.4)" />
    <rect style="fill:#a6a6a6;fill-opacity:1;stroke:none;stroke-width:2.00515;paint-order:fill markers stroke" id="rect43" width="24" height="10" x="102" y="208" transform="matrix(1.54,0,0,1,-43.6,39.6)" inkscape:label="bg-radius--label" />
    <rect style="fill:#a6a6a6;fill-opacity:1;stroke:none;stroke-width:1.92745;paint-order:fill markers stroke" id="rect44" width="24" height="10" x="102" y="208" transform="matrix(1.67,0,0,1,-12.4,39.6)" inkscape:label="bg-feather--label" />
    <rect style="fill:#a6a6a6;fill-opacity:1;stroke:#ffffff;stroke-width:0.75;stroke-dasharray:none;stroke-opacity:1;paint-order:fill markers stroke" id="rect16-3" width="12" height="12" x="125" y="37.4" transform="translate(-64.5,113)" inkscape:label="bg-check" />
    <path id="path46" style="fill:none;stroke:#f9a806;stroke-width:0.750227;stroke-opacity:1;paint-order:fill markers stroke" d="m 170,118 h 35 V 224 H 15.4 V 118 h 32.3" sodipodi:nodetypes="cccccc" transform="translate(1.3,39.6)" inkscape:label="bg-box" />
    <rect style="fill:#a6a6a6;fill-opacity:1;stroke:none;stroke-width:2.5;paint-order:fill markers stroke" id="rect21" width="75.2" height="13" x="84.9" y="152" inkscape:label="BG-title" transform="translate(-1,-2.1)" />
  </g>
  <g id="g24" inkscape:label="RG">
    <circle style="fill:#5c95d6;fill-opacity:1;stroke:none;stroke-width:2.498;stroke-dasharray:none;stroke-opacity:1;paint-order:fill markers stroke" id="circle38" cx="388" cy="233" r="11.3" transform="translate(1.3)" inkscape:label="rg-feather-knob" />
    <circle style="fill:#5c95d6;fill-opacity:1;stroke:none;stroke-width:2.498;stroke-dasharray:none;stroke-opacity:1;paint-order:fill markers stroke" id="circle36" cx="342" cy="233" r="11.3" transform="translate(1.3)" inkscape:label="rg-radius-knob" />
    <circle style="fill:#5c95d6;fill-opacity:1;stroke:none;stroke-width:2.498;stroke-dasharray:none;stroke-opacity:1;paint-order:fill markers stroke" id="circle37" cx="295" cy="233" r="11.3" transform="translate(1.3)" inkscape:label="rg-outer-fade-knob" />
    <path id="path45" style="fill:#5c95d6;stroke-width:2.498;paint-order:fill markers stroke" d="m 248,223 c -2,0 -5,1 -6,3 -1,2 2,2 2,5 0,2 -4,2 -4,6 0,3 4,6 8,6 6,0 10,-4 10,-10 0,-6 -4,-10 -10,-10 z m -2,11 a 1.9,3.29 56.1 0 1 2,1 1.9,3.29 56.1 0 1 -2,3 1.9,3.29 56.1 0 1 -3,0 1.9,3.29 56.1 0 1 1,-3 1.9,3.29 56.1 0 1 2,-1 z" transform="translate(1.3)" inkscape:label="rg-outer-co" />
    <circle style="fill:#5c95d6;fill-opacity:1;stroke:none;stroke-width:2.498;stroke-dasharray:none;stroke-opacity:1;paint-order:fill markers stroke" id="circle41" cx="342" cy="180" r="11.3" transform="translate(1.3)" inkscape:label="rg-cx-knob" />
    <circle style="fill:#5c95d6;fill-opacity:1;stroke:none;stroke-width:2.498;stroke-dasharray:none;stroke-opacity:1;paint-order:fill markers stroke" id="circle42" cx="388" cy="180" r="11.3" transform="translate(1.3)" inkscape:label="rg-cy-knob" />
    <circle style="fill:#5c95d6;fill-opacity:1;stroke:none;stroke-width:2.498;stroke-dasharray:none;stroke-opacity:1;paint-order:fill markers stroke" id="circle40" cx="295" cy="180" r="11.3" transform="translate(1.3)" inkscape:label="rg-inner-fade-knob" />
    <path id="path44" style="fill:#5c95d6;stroke-width:2.498;paint-order:fill markers stroke" d="m 248,170 c -2,0 -5,1 -6,3 -1,2 2,2 2,5 0,2 -4,2 -4,6 0,3 4,6 8,6 6,0 10,-4 10,-10 0,-6 -4,-10 -10,-10 z m -2,11 a 1.9,3.29 56.1 0 1 2,1 1.9,3.29 56.1 0 1 -2,3 1.9,3.29 56.1 0 1 -3,0 1.9,3.29 56.1 0 1 1,-3 1.9,3.29 56.1 0 1 2,-1 z" transform="translate(1.3)" inkscape:label="rg-inner-co" />
    <rect style="fill:#a6a6a6;fill-opacity:1;stroke:none;stroke-width:1.61374;paint-order:fill markers stroke" id="rect26" width="10" height="10" x="335" y="206" inkscape:label="rg-cx--label" transform="matrix(2.4,0,0,1,-473,-10.5)" />
    <rect style="fill:#a6a6a6;fill-opacity:1;stroke:none;stroke-width:1.61374;paint-order:fill markers stroke" id="rect27" width="10" height="10" x="335" y="206" inkscape:label="rg-cy--label" transform="matrix(2.4,0,0,1,-427,-10.5)" />
    <rect style="fill:#a6a6a6;fill-opacity:1;stroke:none;stroke-width:1.36473;paint-order:fill markers stroke" id="rect29" width="10" height="10" x="335" y="206" inkscape:label="rg-outer--label" transform="matrix(3.36,0,0,1,-890,42)" />
    <rect style="fill:#a6a6a6;fill-opacity:1;stroke:none;stroke-width:2.72081;paint-order:fill markers stroke" id="rect31" width="26" height="12.3" x="113" y="101" transform="matrix(1.04,0,0,0.813,166,112)" inkscape:label="rg-inner-fade--label" />
    <rect style="fill:#a6a6a6;fill-opacity:1;stroke:none;stroke-width:1.36473;paint-order:fill markers stroke" id="rect30" width="10" height="10" x="335" y="206" inkscape:label="rg-inner--label" transform="matrix(3.36,0,0,1,-892,-12)" />
    <rect style="fill:#a6a6a6;fill-opacity:1;stroke:none;stroke-width:2.72081;paint-order:fill markers stroke" id="rect32" width="26" height="12.3" x="113" y="101" transform="matrix(1.04,0,0,0.813,166,166)" inkscape:label="rg-outer-fade--label" />
    <rect style="fill:#a6a6a6;fill-opacity:1;stroke:none;stroke-width:1.20436;paint-order:fill markers stroke" id="rect33" width="10" height="10" x="335" y="206" inkscape:label="rg-radius--label" transform="matrix(4.32,0,0,1,-1130,42)" />
    <rect style="fill:#a6a6a6;fill-opacity:1;stroke:none;stroke-width:1.20141;paint-order:fill markers stroke" id="rect34" width="10" height="10" x="335" y="206" inkscape:label="rg-feather--label" transform="matrix(4.34,0,0,1,-1090,42)" />
    <path id="path35" style="fill:none;stroke:#f9a806;stroke-width:0.750227;stroke-opacity:1;paint-order:fill markers stroke" d="m 389,158 h 28 V 264 H 227 V 158 h 25" sodipodi:nodetypes="cccccc" transform="translate(1.3)" inkscape:label="rg-box" />
    <rect style="fill:#a6a6a6;fill-opacity:1;stroke:#ffffff;stroke-width:0.75;stroke-dasharray:none;stroke-opacity:1;paint-order:fill markers stroke" id="rect16" width="12" height="12" x="125" y="37.4" transform="translate(140,113)" inkscape:label="rg-check" />
    <rect style="fill:#a6a6a6;fill-opacity:1;stroke:none;stroke-width:2.23697;paint-order:fill markers stroke" id="rect22" width="75.2" height="13" x="84.9" y="152" inkscape:label="RG-title" transform="matrix(1.25,0,0,1,178,-2.1)" />
  </g>
</svg>
