<?xml version="1.0" encoding="UTF-8" standalone="no"?>
<svg width="30" height="380" viewBox="0 0 30 380" version="1.1" xmlns="http://www.w3.org/2000/svg" xmlns:svg="http://www.w3.org/2000/svg">
<linearGradient id="pg" y2="100%" gradientUnits="userSpaceOnUse">
    <stop offset="0" stop-color="#282828" />
    <stop offset="1" stop-color="#181818" />
</linearGradient>
<rect id="panel" width="100%" height="100%" fill="url(#pg)" />
<rect id="mast" width="100%" height="20" fill="#f9a806" />
<path id="Fancy--title" d="M 0.2 3.504 L 5.29 3.504 L 5.29 5.24 L 2.2 5.24 L 2.2 7.07 L 5.29 7.07 L 5.29 8.82 L 2.2 8.82 L 2.2 12.48 L 0.2 12.48 Z M 9.86 12.48 L 9.86 11.48 L 9.86 11.48 C 9.58667 11.8667 9.31333 12.15 9.04 12.33 C 8.76 12.5033 8.41333 12.59 8 12.59 C 7.31333 12.59 6.73 12.2933 6.25 11.7 C 5.76333 11.1067 5.52 10.3867 5.52 9.54 C 5.52 8.7 5.78 7.98333 6.3 7.39 C 6.81333 6.78333 7.42333 6.48 8.13 6.48 C 8.46333 6.48 8.76667 6.55667 9.04 6.71 C 9.30667 6.86333 9.59 7.10333 9.89 7.43 L 9.89 6.61 L 11.641 6.61 L 11.641 12.48 Z M 8.58 8.23 C 8.23333 8.23 7.94333 8.37 7.71 8.65 C 7.47667 8.92333 7.36 9.27 7.36 9.69 C 7.36 10.0833 7.47 10.4 7.69 10.64 C 7.91 10.88 8.2 11 8.56 11 C 8.90667 11 9.20333 10.8633 9.45 10.59 C 9.69667 10.31 9.82 9.97333 9.82 9.58 C 9.82 9.21333 9.69667 8.9 9.45 8.64 C 9.20333 8.36667 8.91333 8.23 8.58 8.23 Z M 14.34 6.6 L 14.34 7.3 C 14.94 6.74 15.5667 6.46 16.22 6.46 C 16.7867 6.46 17.25 6.69 17.61 7.15 C 17.9833 7.61 18.17 8.19667 18.17 8.91 L 18.17 12.48 L 16.39 12.48 L 16.39 9.19 C 16.39 8.85667 16.2967 8.57333 16.11 8.34 C 15.9233 8.10667 15.7 7.99 15.44 7.99 C 15.12 7.99 14.8567 8.13667 14.65 8.43 C 14.4433 8.72333 14.34 9.10333 14.34 9.57 L 14.34 12.48 L 12.594 12.48 L 12.594 6.6 Z M 23.3 10.45 L 23.3 12.2 C 22.7 12.4667 22.19 12.6 21.77 12.6 C 20.8833 12.6 20.1433 12.31 19.55 11.73 C 18.9567 11.1433 18.66 10.4133 18.66 9.54 C 18.66 8.66 18.9333 7.93 19.48 7.35 C 20.0333 6.77 20.7333 6.48 21.58 6.48 C 22.1933 6.48 22.7667 6.62 23.3 6.9 L 23.3 8.55 C 22.7667 8.30333 22.2933 8.18 21.88 8.18 C 21.4933 8.18 21.1767 8.3 20.93 8.54 C 20.6967 8.78 20.58 9.09667 20.58 9.49 C 20.58 9.87667 20.6967 10.19 20.93 10.43 C 21.17 10.6633 21.4833 10.78 21.87 10.78 C 22.2233 10.78 22.7 10.67 23.3 10.45 Z M 23.3 6.61 L 25.1 6.61 L 26.8 10.03 L 28.3 6.61 L 30.1 6.61 L 26.5 15.04 L 24.7 15.04 L 26 12.06 Z" />
<path id="mini--title" d="M 8.77 15.01 L 8.77 15.59 C 8.83667 15.59 8.91333 15.5233 9 15.39 C 9.1 15.3033 9.2 15.2267 9.3 15.16 C 9.39333 15.0867 9.50667 15.03 9.64 14.99 C 9.77333 14.9233 9.89333 14.89 10 14.89 C 10.1733 14.89 10.3633 14.95 10.57 15.07 C 10.77 15.19 10.9367 15.43 11.07 15.79 C 11.3033 15.4433 11.5333 15.2067 11.76 15.08 C 11.98 14.9533 12.1883 14.89 12.385 14.89 C 12.7277 14.89 13.0177 15.03 13.255 15.31 C 13.4923 15.63 13.611 15.99 13.611 16.39 L 13.611 18.79 L 12.486 18.79 L 12.486 16.69 C 12.486 16.49 12.429 16.3233 12.315 16.19 C 12.1983 16.0567 12.06 15.99 11.9 15.99 C 11.7067 15.99 11.54 16.0567 11.4 16.19 C 11.26 16.3233 11.19 16.5233 11.19 16.79 L 11.19 18.79 L 10.07 18.79 L 10.07 16.79 C 10.07 16.5233 10.0133 16.3233 9.9 16.19 C 9.78667 16.0567 9.64667 15.99 9.48 15.99 C 9.28667 15.99 9.12 16.0567 8.98 16.19 C 8.84 16.39 8.77 16.59 8.77 16.79 L 8.77 18.79 L 7.63 18.79 L 7.63 14.97 Z M 14.62 13.61 C 14.62 13.4233 14.6867 13.26 14.82 13.12 C 14.96 12.98 15.1267 12.91 15.32 12.91 C 15.5133 12.91 15.68 12.98 15.82 13.12 C 15.9533 13.26 16.02 13.4233 16.02 13.61 C 16.02 13.8033 15.9533 13.97 15.82 14.11 C 15.68 14.25 15.5133 14.32 15.32 14.32 C 15.1267 14.32 14.96 14.25 14.82 14.11 C 14.6867 13.97 14.62 13.8033 14.62 13.61 Z M 14.76 15.01 L 15.89 15.01 L 15.89 18.79 L 14.76 18.79 Z M 18.26 15.01 L 18.26 15.49 C 18.6467 15.11 19.05 14.92 19.47 14.92 C 19.83 14.92 20.1267 15.0667 20.36 15.36 C 20.6 15.6467 20.72 16.0233 20.72 16.49 L 20.72 18.79 L 19.57 18.79 L 19.57 16.69 C 19.57 16.49 19.51 16.29 19.39 16.09 C 19.2767 15.9567 19.1333 15.89 18.96 15.89 C 18.76 15.89 18.5933 15.99 18.46 16.19 C 18.3267 16.39 18.26 16.6233 18.26 16.89 L 18.26 18.79 L 17.14 18.79 L 17.14 15.01 Z M 21.73 13.61 C 21.73 13.4233 21.8 13.26 21.94 13.12 C 22.08 12.98 22.2467 12.91 22.44 12.91 C 22.6333 12.91 22.7967 12.98 22.93 13.12 C 23.07 13.26 23.14 13.4233 23.14 13.61 C 23.14 13.8033 23.07 13.97 22.93 14.11 C 22.7967 14.25 22.6333 14.32 22.44 14.32 C 22.2467 14.32 22.08 14.25 21.94 14.11 C 21.8 13.97 21.73 13.8033 21.73 13.61 Z M 21.88 15.01 L 23 15.01 L 23 18.79 L 21.88 18.79 Z" />

<g transform="translate(0, 28)" >
    <circle id="k:fancy-light" cx="15" cy="1.5" r="2.95" fill="#fff" />
    <rect id="k:on-off" fill="#aaa" x="7" y="12" width="16" height="12" />
</g>

<g transform="translate(0, 40)" >
    <g transform="translate(0, 24)">
        <rect id="k:pic-check" fill="#a6a6a6" x="1.5" y="16" width="14" height="14" />
        <rect id="k:pic-options" fill="#a6a6a6" x="16" y="17" width="12" height="12" />
        <xcircle id="k:pic-input" fill="#5c95d6" cx="15" cy="42" r="11" />
        <path id="m-label" aria-label="IMAGE" fill="#666666" d="M 1.2 3 L 3.57 3 L 3.57 13.4 L 1.2 13.4 Z M 6.64 3 L 9.63 3 C 10.0587 5.2 10.3957 7.13333 10.641 8.8 L 10.898 7.2 C 11.0027 6.53333 11.1147 5.9 11.234 5.3 L 11.695 3 L 14.75 3 L 15.94 13.4 L 13.59 13.4 L 12.96 6.2 L 11.5 13.4 L 9.9 13.4 L 8.37 6.2 L 7.76 13.4 L 5.52 13.4 Z M 25.1 13.4 L 22.6 13.4 L 22.2 11.7 L 19.74 11.7 L 19.33 13.4 L 16.91 13.4 L 19.68 3 L 22.3 3 Z M 21.8 9.8 C 21.4667 8.26667 21.1967 6.8 20.99 5.4 L 20.99 5.4 C 20.8033 6.8 20.54 8.26667 20.2 9.8 Z M 33.3 7.6 L 33.3 9.3 C 33.3 10.6333 32.9667 11.7 32.3 12.5 C 31.7 13.3 30.8333 13.7 29.7 13.7 C 28.4333 13.7 27.4333 13.2 26.7 12.2 C 26.0333 11.2667 25.7 9.9 25.7 8.1 C 25.7 6.36667 26.0333 5.03333 26.7 4.1 C 27.3667 3.16667 28.3667 2.7 29.7 2.7 C 31.2333 2.7 32.3333 3.5 33 5.1 L 30.7 6 C 30.5 5.66667 30.3333 5.43333 30.2 5.3 C 30.0667 5.1 29.8333 5 29.5 5 C 29.0333 5 28.7 5.26667 28.5 5.8 C 28.3 6.26667 28.2 7.06667 28.2 8.2 C 28.2 9.26667 28.3 10.0333 28.5 10.5 C 28.7667 11.0333 29.1333 11.3 29.6 11.3 C 30.4 11.3 30.8333 10.7333 30.9 9.6 L 29.8 9.6 L 29.8 7.6 Z M 35.1 3 L 39.9 3 L 39.9 5.2 L 37.4 5.2 L 37.4 7.1 L 39.5 7.1 L 39.5 9.3 L 37.4 9.3 L 37.4 11.2 L 39.9 11.2 L 39.9 13.4 L 35.1 13.4 Z" />
    </g>
    <g transform="translate(0, 82)" >
        <rect id="k:fill-check" fill="#a6a6a6" x="1.5" y="16" width="14" height="14" />
        <rect id="k:fill-options" fill="#a6a6a6" x="16" y="17" width="12" height="12" />
        <xcircle id="k:in-fill-input" fill="#5c95d6" cx="15" cy="42" r="11" />
        <path id="m-label" aria-label="TONE" fill="#666666" d="M 0.6 0.3 L 6.28 0.3 L 6.28 2.7 L 4.65 2.7 L 4.65 10.7 L 2.25 10.7 L 2.25 2.7 L 0.6 2.7 Z M 11.011 11 C 9.75033 11 8.79 10.5 8.13 9.5 C 7.47 8.56667 7.14 7.16667 7.14 5.3 C 7.14 3.63333 7.47 2.33333 8.13 1.4 C 8.79667 0.466667 9.723 -2.84217e-14 10.909 -1.42109e-14 C 12.1763 -2.84217e-14 13.1433 0.466667 13.81 1.4 C 14.4833 2.33333 14.82 3.66667 14.82 5.4 C 14.82 7.2 14.4867 8.56667 13.82 9.5 C 13.1667 10.5 12.2303 11 11.011 11 Z M 10.921 2.3 C 10.0643 2.3 9.636 3.33333 9.636 5.4 C 9.636 6.66667 9.74267 7.5 9.956 7.9 C 10.176 8.36667 10.4923 8.6 10.905 8.6 C 11.3477 8.6 11.6863 8.36667 11.921 7.9 C 12.1603 7.5 12.28 6.66667 12.28 5.4 C 12.28 3.33333 11.827 2.3 10.921 2.3 Z M 16.566 0.3 L 18.956 0.3 L 21.996 6.3 L 21.896 5.2 L 21.896 0.3 L 24.296 0.3 L 24.296 10.7 L 21.796 10.7 L 18.876 4.8 L 18.976 6.1 L 18.976 10.7 L 16.606 10.7 Z M 26.496 0.3 L 31.296 0.3 L 31.296 2.5 L 28.896 2.5 L 28.896 4.4 L 30.996 4.4 L 30.996 6.6 L 28.896 6.6 L 28.896 8.5 L 31.296 8.5 L 31.296 10.7 L 26.496 10.7 Z" />
    </g>
    <g transform="translate(0, 140)" >
        <rect id="k:linear-check" fill="#a6a6a6" x="1.5" y="16" width="14" height="14" />
        <rect id="k:linear-options" fill="#a6a6a6" x="16" y="17" width="12" height="12" />
        <xcircle id="k:linear-input" fill="#5c95d6" cx="15" cy="42" r="11" />
        <path fill="#666666" id="m-label" aria-label="LINEAR"  d="M 1.52 -0.2 L 3.88 -0.2 L 3.88 7.8 L 5.76 7.8 L 5.76 10.2 L 1.52 10.2 Z M 7.45 -0.2 L 9.81 -0.2 L 9.81 10.2 L 7.45 10.2 Z M 12.127 -0.2 L 14.52 -0.2 L 17.52 5.8 L 17.42 4.7 L 17.42 -0.2 L 19.79 -0.2 L 19.79 10.2 L 17.36 10.2 L 14.41 4.3 L 14.51 5.6 L 14.51 10.2 L 12.147 10.2 Z M 22 -0.2 L 26.8 -0.2 L 26.8 2 L 24.4 2 L 24.4 3.9 L 26.5 3.9 L 26.5 6.1 L 24.4 6.1 L 24.4 8 L 26.9 8 L 26.9 10.2 L 22 10.2 Z M 36 10.2 L 33.6 10.2 L 33.2 8.5 L 30.7 8.5 L 30.2 10.2 L 27.8 10.2 L 30.6 -0.2 L 33.3 -0.2 Z M 32.7 6.6 C 32.3667 5.06667 32.1 3.6 31.9 2.2 L 31.9 2.2 C 31.7 3.6 31.4333 5.06667 31.1 6.6 Z M 37.2 -0.2 L 40 -0.2 C 41.0667 -0.2 41.9333 0.0666667 42.6 0.6 C 43.2667 1.2 43.6 2 43.6 3 C 43.6 3.46667 43.4667 3.93333 43.2 4.4 C 42.9333 4.86667 42.5667 5.23333 42.1 5.5 L 44 10.2 L 41.5 10.2 L 39.6 5.4 L 39.6 5.4 L 39.6 10.2 L 37.2 10.2 Z M 39.6 1.8 L 39.6 4.3 C 40.6 4.23333 41.1 3.86667 41.1 3.2 C 41.1 2.66667 41 2.3 40.8 2.1 C 40.5333 1.9 40.1333 1.8 39.6 1.8 Z" />
    </g>
    <g transform="translate(0, 198)">
        <rect id="k:radial-check" fill="#a6a6a6" x="1.5" y="16" width="14" height="14" />
        <rect id="k:radial-options" fill="#a6a6a6" x="16" y="17" width="12" height="12" />
        <xcircle id="k:radial-input" fill="#5c95d6" cx="15" cy="42" r="11" />
       <path fill="#666666" id="m-label" aria-label="RADIAL"  d="M 1.5 0 L 4.2 0 L 6.85 0 C 7.49667 0.666667 7.82 1.66667 7.82 3 C 7.82 3.66667 7.7 4 7.46 4 C 7.21333 4.66667 6.85667 5 6.39 5 L 8.28 10 L 5.8 10 L 3.9 5 L 3.8 5 L 3.8 10 L 1.5 10 Z M 3.8 2 L 3.8 4 C 4.86667 4 5.4 3.66667 5.4 3 C 5.4 2.33333 5.26667 2 5 2 L 3.8 2 Z M 16.909 10 L 14.45 10 L 14.05 8 L 11.55 8 L 11.14 10 L 8.72 10 L 11.49 0 L 14.14 0 Z M 13.6 6 C 13.2467 4.66667 12.98 3.33333 12.8 2 L 12.8 2 C 12.6133 3.33333 12.35 4.66667 12.01 6 Z M 18.1 0 L 20.32 0 C 21.8467 0 23.01 0.333333 23.81 1 C 24.6033 1.66667 25 3 25 5 C 25 6.33333 24.8033 7.33333 24.41 8 C 24.0167 8.66667 23.4667 9 22.76 9 C 22.06 9.66667 21.28 10 20.42 10 L 18.1 10 Z M 20.47 2 L 20.47 8 C 21.19 8 21.7 7.66667 22 7 C 22.2933 6.33333 22.44 5.66667 22.44 5 C 22.44 4.33333 22.3867 3.66667 22.28 3 C 22.18 3 22.0267 2.66667 21.82 2 L 21.21 2 L 20.47 2 Z M 26.7 0 L 29 0 L 29 10 L 26.7 10 Z M 38.7 10 L 36.2 10 L 35.8 8 L 33.3 8 L 32.9 10 L 30.5 10 L 33.2 0 L 35.9 0 Z M 35.3 6 C 34.9667 4.66667 34.7 3.33333 34.5 2 L 34.5 2 C 34.3 3.33333 34.0333 4.66667 33.7 6 Z M 39.9 0 L 42.2 0 L 42.2 8 L 44.1 8 L 44.1 10 L 39.9 10 Z" />
    </g>
    <g transform="translate(0, 256)" >
        <rect id="k:box-check" fill="#a6a6a6" x="1.5" y="16" width="14" height="14" />
        <rect id="k:box-options" fill="#a6a6a6" x="16" y="17" width="12" height="12" />
        <xcircle id="k:box-input" fill="#5c95d6" cx="15" cy="42" r="11" />
        <path id="m-label" aria-label="BOX" fill="#666666" d="M 1.5 1 L 3.91 1 L 6.933 1 C 7.551 1.66667 7.86 2.33333 7.86 3 C 7.86 4.33333 7.41033 5.33333 6.511 6 C 7.52367 6 8.03 6.66667 8.03 8 C 8.03 8.66667 7.71633 9.33333 7.089 10 C 6.459 10.6667 5.62933 11 4.6 11 L 1.5 11 Z M 3.87 3 L 3.87 5 C 4.93 5 5.46 4.66667 5.46 4 C 5.46 3.33333 5.33 3 5.07 3 L 3.87 3 Z M 3.87 7 L 3.87 9 L 5.21 9 C 5.51533 8.33333 5.668 8 5.668 8 C 5.668 7.33333 5.13533 7 4.07 7 Z M 13.06 11 C 11.8 11 10.84 10.6667 10.18 10 C 9.51333 8.66667 9.18 7.33333 9.18 6 C 9.18 4 9.51333 2.66667 10.18 2 C 10.8467 0.666667 11.7733 0 12.96 0 C 14.2267 0 15.1933 0.666667 15.86 2 C 16.5 2.66667 16.82 4 16.82 6 C 16.82 7.33333 16.5033 8.66667 15.87 10 C 15.2167 10.6667 14.28 11 13.06 11 Z M 12.96 3 C 12.1067 3 11.68 4 11.68 6 C 11.68 7.33333 11.7867 8 12 8 C 12.22 8.66667 12.5367 9 12.95 9 C 13.39 9 13.7267 8.66667 13.96 8 C 14.2 8 14.32 7.33333 14.32 6 C 14.32 4 13.8667 3 12.96 3 Z M 17.71 1 L 20.31 1 C 20.9767 2.33333 21.3433 3 21.41 3 L 21.51 3 L 21.81 3 L 22.61 1 L 25.21 1 L 22.81 6 L 25.41 11 L 22.81 11 C 21.9433 9 21.51 8 21.51 8 L 21.41 8 C 21.3433 8 21.2433 8.33333 21.11 9 L 20.11 11 L 17.51 11 L 20.11 6 Z" />
    </g>
</g>

<g aria-label="#d (pachde logo)" transform="translate(8,364)" >
  <path id="logo" fill="#dbdbdb" d="M 3.023,5.309 3.916,3.543 5.003,3.834 4.104,5.599 5.759,6.042 6.658,4.277 7.74,4.567 6.846,6.334 7.631,6.544 7.34,7.631 6.328,7.36 5.666,8.665 6.969,9.014 6.678,10.1 5.148,9.691 4.255,11.457 3.168,11.166 4.062,9.4 2.407,8.956 1.513,10.723 0.426,10.431 1.32,8.665 0.540,8.456 0.831,7.369 1.843,7.64 2.5,6.334 1.202,5.986 1.493,4.899 Z M 5.242,7.068 3.587,6.625 2.924,7.93 4.58,8.374 Z M 13.387,10.647 l -0.301,1.122 -2.354,-0.631 0.155,-0.579 Q 10.064,11.035 9.304,10.831 8.394,10.587 7.993,9.687 7.593,8.787 7.874,7.736 8.160,6.669 8.969,6.104 9.78,5.534 10.665,5.771 11.516,6 11.892,6.807 L 12.306,5.262 11.547,5.058 11.847,3.937 14.161,4.557 12.587,10.433 Z M 11.402,8.697 Q 11.589,7.998 11.367,7.62 11.15,7.244 10.767,7.141 10.31,7.019 9.962,7.308 9.621,7.595 9.466,8.173 9.32,8.721 9.465,9.165 q 0.147,0.438 0.615,0.564 0.387,0.104 0.76,-0.12 0.379,-0.227 0.562,-0.912 z" />
</g>
</svg>
