<?xml version="1.0" encoding="UTF-8"?>
<svg width="90" height="380" viewBox="0 0 90 380"
version="1.1" xmlns="http://www.w3.org/2000/svg" xmlns:svg="http://www.w3.org/2000/svg">

<linearGradient id="pg" y2="100%" gradientUnits="userSpaceOnUse">
    <stop offset="0" stop-color="#ebebeb" />
    <stop offset="1" stop-color="#e1e1e1" />
</linearGradient>
<rect id="panel" width="100%" height="100%" fill="url(#pg)"/>
<rect id="mast" width="100%" height="20" fill="#f9a806"/>
<path id="title" aria-label="Guide" transform="translate(26,5)" d="M 9.28,2.41 7.81,3.79 Q 7.35,2.99 6.67,2.6 5.99,2.2 5.25,2.2 4.05,2.2 3.16,3.12 2.27,4.03 2.27,5.27 2.27,6.59 3.16,7.52 4.05,8.43 5.3,8.43 5.98,8.43 6.6,8.09 7.23,7.74 7.62,6.8 H 5.19 v -2 h 4.73 v 1.32 q 0,1.03 -0.7,2.21 Q 8.52,9.5 7.37,10 6.22,10.6 5.05,10.6 2.92,10.6 1.46,9.05 -4.37e-4,7.51 -4.37e-4,5.24 -4.37e-4,3.09 1.5,1.57 3.01,0.047 5.12,0.047 q 2.71,0 4.16,2.363 z m 2.22,1.33 h 2 v 3.22 q 0,0.7 0.3,1.17 0.4,0.46 0.9,0.46 0.6,0 1,-0.45 Q 16,7.69 16,7.01 V 3.74 h 2.1 v 3.91 q 0,1.24 -1,2.08 -0.9,0.87 -2.3,0.87 -1.5,0 -2.4,-0.87 -0.9,-0.85 -0.9,-2.25 z m 8.3,-2.5 Q 19.8,0.734 20.2,0.367 20.5,0 21.1,0 q 0.5,0 0.8,0.367 0.4,0.367 0.4,0.873 0,0.52 -0.4,0.88 -0.3,0.37 -0.8,0.37 -0.6,0 -0.9,-0.37 -0.4,-0.36 -0.4,-0.88 z m 0.3,2.49 h 2 v 6.67 h -2 z m 8.5,-3.714 h 2 V 10.4 h -2 V 9.3 h 0 q -0.9,1.3 -2.2,1.3 -1.1,0 -1.9,-1.05 -0.9,-1.01 -0.9,-2.46 0,-1.46 0.9,-2.48 0.8,-1.03 2,-1.03 0.7,0 1.1,0.25 0.5,0.24 1,0.79 z M 27.1,5.56 q -0.5,0 -0.9,0.46 -0.4,0.45 -0.4,1.22 0,0.62 0.3,1.06 0.4,0.43 1,0.43 0.6,0 1,-0.46 0.5,-0.48 0.5,-1.18 0,-0.61 -0.5,-1.07 -0.4,-0.46 -1,-0.46 z m 11.8,2 h -4.8 q 0,0.65 0.4,1.06 0.4,0.4 0.9,0.4 0.9,0 1.5,-0.83 l 1.8,0.61 q -1,1.8 -3.2,1.8 -1.6,0 -2.5,-0.97 -0.9,-0.97 -0.9,-2.59 0,-1.46 0.9,-2.45 1,-1 2.5,-1 1.4,0 2.4,1.05 1,1.04 1,2.6 z M 34.1,6.22 h 2.7 q -0.3,-1.26 -1.3,-1.26 -0.6,0 -0.9,0.33 -0.4,0.33 -0.5,0.93 z" />
<path id="vguide" fill="none" stroke="#ee008810" stroke-width=".75"
    d="M  7.5,0 v380 M15,0 v380
       M 22.5,0 v380 M30,0 v380
       M 37.5,0 v380 M45,0 v380
       M 52.5,0 v380 M60,0 v380
       M 67.5,0 v380 M75,0 v380
       M 82.5,0 v380"/>

<path id="top-menu--slabel" transform="translate(75,24)" fill="none" stroke="#000" stroke-width=".75" d="M 0,0 h 10 v 10 h-10 z"/>
<g transform="translate(3.5,24)">
    <rect id="k:panel-swatch" x="0" y="1" width="18" height="9" fill="#f22"/>
    <path id="k:pick-panel" transform="translate(19,0)" fill="#407aee" stroke="#80808000" stroke-width=".25" d="m 4.5,11 c -0.74,-0.03 -1.3,-0.14 -1.86,-0.34 -0.76,-0.3 -1.28,-0.81 -1.5,-1.5 -0.25,-0.74 -0.12,-1.5 0.63,-1.97 0.92,-0.57 1.13,-2.27 0.47,-2.65 -0.34,-0.19 -0.57,-0.37 -0.64,-0.66 -0.03,-0.1 -0.03,-0.31 0,-0.43 0.03,-0.13 0.1,-0.33 0.15,-0.44 0.08,-0.14 0.17,-0.27 0.36,-0.46 0.2,-0.2 0.35,-0.32 0.63036,-0.51 0.62,-0.41 1.35,-0.75 1.96,-0.9 0.59,-0.15 1.37,-0.19 2.04,-0.1 0.92,0.12 1.67,0.43 2.39,0.99 0.62,0.48 1.11,1.07 1.43,1.73 0.33,0.66 0.47,1.31 0.47,2.08 0,0.66 -0.11,1.26 -0.31,1.79 -0.16,0.42 -0.41,0.82 -0.72,1.2 -0.11,0.13 -0.4,0.43 -0.55,0.55 -0.69,0.59 -1.62,1.07 -2.63,1.36 -0.23,0.07 -0.37,0.1 -0.59,0.13 -0.55,0.09 -1.21,0.14 -1.73,0.12 z m -1.14,-1.49 c 0.47,-0.08 0.95,-0.42 1.2,-0.85 0.1,-0.18 0.15,-0.32 0.15,-0.49 0.01,-0.21 -0.04,-0.34 -0.16,-0.47 -0.12,-0.12 -0.28,-0.17 -0.49,-0.17 -0.22,0 -0.39,0.04 -0.63,0.16 -0.54,0.27 -0.92,0.78 -0.92,1.23 0,0.19 0.05,0.31 0.16,0.42 0.16,0.16 0.4,0.22 0.7,0.17 z" />
</g>
<rect id="k:pos-switch" x="42" y="26" width="12" height="8" fill="none" stroke="#222" stroke-width=".75" />

<g transform="translate(0,40)" aria-label="arbitrary guide">
  <g aria-label="templates">
    <path id="template-box" fill="#d2c3a7" d="M 3.5,0 h 82.5 v 16 h -82.5 z" />
    <g transform="translate(0,3)">
      <g id="top" >
        <rect fill="#f2f2f2" x="7.5" y="0" width="10" height="10" />
        <rect fill="#f969c9" x="7.5" y="0" width="10" height="2.5" />
      </g>
      <g id="bottom">
        <rect fill="#f2f2f2" x="20.5" y="0"  width="10" height="10" />
        <rect fill="#f969c9" x="20.5" y="7.5" width="10" height="2.5" />
      </g>
      <g id="left">
        <rect fill="#f2f2f2" x="33.5" y="0" width="10" height="10" />
        <rect fill="#4f91f4" x="33.5" y="0"  width="2" height="10" />
      </g>
      <g id="right">
        <rect fill="#f2f2f2" x="46.5" y="0"  width="10" height="10" />
        <rect fill="#4f91f4" x="54.5" y="0"  width="2" height="10" />
      </g>
      <g id="vert">
          <rect fill="#f2f2f2" width="10" height="10" x="59.5" y="0"  />
          <path fill="none" stroke="#bf4095" stroke-width="0.5" d="M61.5,0 v10 M63.5,0 v10 M65.5,0 v10 M67.5,0 v10" />
      </g>
      <g id="horz">
        <rect fill="#f2f2f2" x="72.5" y="0" width="10" height="10" />
        <path fill="none" stroke="#bf4095" stroke-width="0.5" d="M72.5,2 h10 M72.5,4 h10 M72.5,6 h10 M72.5,8 h10 " />
      </g>
    </g>
  </g>

  <g transform="translate(0,2)">
    <circle id="k:x" fill="#f22" cx="12.5" cy="25" r="9" />
    <path id="X--label" fill="#222" d="M 8.91,45 11.8,40.8 8.94,36.6 h 1.26 l 2.3,3.5 2.3,-3.5 h 1.3 l -2.9,4.2 2.9,4.2 H 14.8 L 12.5,41.6 10.2,45 Z" />

    <circle id="k:y" fill="#f22" cx="34.1" cy="25" r="9" />
    <path id="Y--label" fill="#222" d="m 33.6,45 v -3.2 l -3,-5.2 h 1.2 l 2.3,4.1 2.3,-4.1 h 1.2 l -3,5.2 V 45 Z" />

    <circle id="k:angle" fill="#f22" cx="55.8" cy="25" r="9" />
    <path id="A--label" fill="#222" d="m 52.2,45 3.2,-8.4 h 0.8 L 59.4,45 H 58.3 L 55.8,38.1 53.3,45 Z m 1.8,-2 0.3,-0.9 h 3 l 0.4,0.9 z" />

    <path id="W--label" fill="#222" d="M 74.4,45 71.9,36.6 H 73 l 2,6.8 1.9,-6.3 h 1 l 1.9,6.3 2,-6.8 h 1.1 L 80.4,45 h -1 l -2.1,-6.6 h 0.2 L 75.4,45 Z" />
    <circle id="k:width" fill="#f22" cx="77.4" cy="25" r="9" />

    <path id="R--label" fill="#222" d="m 9.56,79 v -8.4 h 2.54 q 0.9,0 1.5,0.3 0.6,0.3 0.9,0.8 0.3,0.6 0.3,1.3 0,1 -0.6,1.6 -0.6,0.6 -1.7,0.8 -0.2,0 -0.4,0 -0.3,0 -0.5,0 h -1 V 79 Z m 4.64,0 -2.1,-3.8 1,-0.1 2.4,3.9 z m -3.6,-4.6 h 1.3 q 0.6,0 1,-0.1 0.4,-0.2 0.6,-0.5 0.3,-0.3 0.3,-0.8 0,-0.5 -0.3,-0.8 -0.2,-0.3 -0.6,-0.5 -0.4,-0.1 -1,-0.1 h -1.3 z" />
    <circle id="k:repeat" fill="#f22" cx="12.5" cy="59" r="9" />

    <path id="name--label" fill="#222" d="m 35.3,78.9 v -8.4 h 1.2 l 4.2,7 h -0.2 v -7 h 1.1 v 8.4 h -1.2 l -4.2,-7 h 0.2 v 7 z m 12,0 -0.1,-1.2 v -2.5 q 0,-0.7 -0.4,-1.1 -0.4,-0.3 -1.1,-0.3 -0.5,0 -0.9,0.2 -0.4,0.2 -0.8,0.6 L 43.2,74 q 0.5,-0.6 1.2,-0.8 0.6,-0.3 1.4,-0.3 1.1,0 1.8,0.6 0.6,0.6 0.6,1.7 v 3.7 z m -2,0.1 q -0.7,0 -1.2,-0.2 -0.5,-0.3 -0.7,-0.7 -0.3,-0.4 -0.3,-1 0,-0.5 0.2,-0.8 0.2,-0.3 0.5,-0.5 0.3,-0.2 0.7,-0.3 0.4,-0.1 0.9,-0.1 h 1.9 v 0.8 h -1.8 q -0.3,0 -0.5,0 -0.3,0.1 -0.5,0.2 -0.2,0.1 -0.3,0.3 -0.1,0.2 -0.1,0.4 0,0.5 0.4,0.8 0.3,0.3 0.9,0.3 0.5,0 0.9,-0.3 0.4,-0.2 0.6,-0.6 0.3,-0.4 0.3,-0.9 l 0.4,0.4 q -0.1,0.7 -0.4,1.2 -0.3,0.5 -0.8,0.7 -0.5,0.3 -1.1,0.3 z m 4.6,-0.1 V 73 h 1 v 1.5 h -0.2 q 0.1,-0.4 0.3,-0.7 0.1,-0.3 0.4,-0.5 0.3,-0.2 0.5,-0.3 0.3,-0.1 0.7,-0.1 0.5,0 0.9,0.2 0.4,0.2 0.7,0.6 0.2,0.4 0.3,1.1 l -0.5,0 q 0.1,-0.6 0.4,-1 0.3,-0.5 0.7,-0.7 0.4,-0.2 1,-0.2 0.7,0 1.2,0.3 0.4,0.3 0.6,0.9 0.2,0.5 0.2,1.2 v 3.6 h -1 V 75.5 Q 57.1,75 57,74.6 56.9,74.2 56.6,74 q -0.3,-0.2 -0.7,-0.2 -0.5,0 -0.8,0.2 -0.3,0.2 -0.4,0.6 -0.2,0.5 -0.2,1.1 v 3.2 h -1 v -3.4 q 0,-0.9 -0.3,-1.3 -0.3,-0.4 -0.9,-0.4 -0.5,0 -0.8,0.2 -0.3,0.2 -0.5,0.6 -0.1,0.5 -0.1,1.1 v 3.2 z M 62.3,79 q -0.7,0 -1.2,-0.2 -0.6,-0.3 -0.9,-0.7 -0.3,-0.4 -0.5,-1 -0.2,-0.5 -0.2,-1.1 0,-0.6 0.2,-1.2 0.1,-0.5 0.5,-1 0.3,-0.4 0.8,-0.7 0.5,-0.2 1.2,-0.2 0.7,0 1.2,0.2 0.5,0.3 0.8,0.7 0.3,0.4 0.5,0.9 0.1,0.5 0.1,1 0,0.1 0,0.2 0,0.2 0,0.3 h -4.3 q 0.1,0.9 0.5,1.4 0.5,0.5 1.3,0.5 0.5,0 0.9,-0.2 0.4,-0.2 0.7,-0.5 l 0.7,0.6 q -0.3,0.3 -0.7,0.6 -0.3,0.2 -0.7,0.3 -0.4,0.1 -0.9,0.1 z m 1.5,-3.3 q 0,-0.1 0,-0.2 0,-0.1 0,-0.2 0,-0.2 -0.1,-0.5 -0.1,-0.3 -0.3,-0.5 -0.2,-0.3 -0.5,-0.4 -0.3,-0.2 -0.7,-0.2 -0.5,0 -0.9,0.3 -0.3,0.2 -0.6,0.6 -0.2,0.4 -0.2,0.9 h 3.6 z" />
    <rect id="k:name-edit" fill="#a6a6a6" x="25.1" y="52" width="50" height="14" />
    <rect id="name-menu" fill="#a6a6a6" x="76.4" y="54" width="10" height="10" />

    <rect id="k:guide-swatch" x="3.5" y="87" width="18" height="9" fill="#f22"/>
    <path id="k:pick-guide" transform="translate(22,86)" fill="#cf4be0" stroke="#80808000" stroke-width=".25" d="m 4.5,11 c -0.74,-0.03 -1.3,-0.14 -1.86,-0.34 -0.76,-0.3 -1.28,-0.81 -1.5,-1.5 -0.25,-0.74 -0.12,-1.5 0.63,-1.97 0.92,-0.57 1.13,-2.27 0.47,-2.65 -0.34,-0.19 -0.57,-0.37 -0.64,-0.66 -0.03,-0.1 -0.03,-0.31 0,-0.43 0.03,-0.13 0.1,-0.33 0.15,-0.44 0.08,-0.14 0.17,-0.27 0.36,-0.46 0.2,-0.2 0.35,-0.32 0.63036,-0.51 0.62,-0.41 1.35,-0.75 1.96,-0.9 0.59,-0.15 1.37,-0.19 2.04,-0.1 0.92,0.12 1.67,0.43 2.39,0.99 0.62,0.48 1.11,1.07 1.43,1.73 0.33,0.66 0.47,1.31 0.47,2.08 0,0.66 -0.11,1.26 -0.31,1.79 -0.16,0.42 -0.41,0.82 -0.72,1.2 -0.11,0.13 -0.4,0.43 -0.55,0.55 -0.69,0.59 -1.62,1.07 -2.63,1.36 -0.23,0.07 -0.37,0.1 -0.59,0.13 -0.55,0.09 -1.21,0.14 -1.73,0.12 z m -1.14,-1.49 c 0.47,-0.08 0.95,-0.42 1.2,-0.85 0.1,-0.18 0.15,-0.32 0.15,-0.49 0.01,-0.21 -0.04,-0.34 -0.16,-0.47 -0.12,-0.12 -0.28,-0.17 -0.49,-0.17 -0.22,0 -0.39,0.04 -0.63,0.16 -0.54,0.27 -0.92,0.78 -0.92,1.23 0,0.19 0.05,0.31 0.16,0.42 0.16,0.16 0.4,0.22 0.7,0.17 z" />

    <path id="add--slabel" transform="translate(40,87)" fill="none" stroke="#222" stroke-width="1.5" d="M0,4 h8 M4,0 v8" />
    <circle id="k:add" cx="54" cy="91" r="5" fill="#f22" />

    <path id="remove--slabel" transform="translate(66,87)" fill="none" stroke="#222" stroke-width="1.5" d="M0,4 h6.5" />
    <circle id="k:remove" cx="80" cy="91" r="5" fill="#f22"/>
  </g>
  <rect id="guide-list" x="3.5" y="102" width="83" height="210" fill="#666" />
</g>

<g id="logo" aria-label="#d (pachde logo)" fill="#000000" transform="translate(38,366)">
  <path d="M 3.023,5.309 3.916,3.543 5.003,3.834 4.104,5.599 5.759,6.042 6.658,4.277 7.74,4.567 6.846,6.334 7.631,6.544 7.34,7.631 6.328,7.36 5.666,8.665 6.969,9.014 6.678,10.1 5.148,9.691 4.255,11.457 3.168,11.166 4.062,9.4 2.407,8.956 1.513,10.723 0.426,10.431 1.32,8.665 0.540,8.456 0.831,7.369 1.843,7.64 2.5,6.334 1.202,5.986 1.493,4.899 Z M 5.242,7.068 3.587,6.625 2.924,7.93 4.58,8.374 Z M 13.387,10.647 l -0.301,1.122 -2.354,-0.631 0.155,-0.579 Q 10.064,11.035 9.304,10.831 8.394,10.587 7.993,9.687 7.593,8.787 7.874,7.736 8.160,6.669 8.969,6.104 9.78,5.534 10.665,5.771 11.516,6 11.892,6.807 L 12.306,5.262 11.547,5.058 11.847,3.937 14.161,4.557 12.587,10.433 Z M 11.402,8.697 Q 11.589,7.998 11.367,7.62 11.15,7.244 10.767,7.141 10.31,7.019 9.962,7.308 9.621,7.595 9.466,8.173 9.32,8.721 9.465,9.165 q 0.147,0.438 0.615,0.564 0.387,0.104 0.76,-0.12 0.379,-0.227 0.562,-0.912 z" />
</g>

</svg>

