<?xml version="1.0" encoding="UTF-8"?>
<svg width="120" height="380" viewBox="0 0 120 380"
version="1.1" xmlns="http://www.w3.org/2000/svg" xmlns:svg="http://www.w3.org/2000/svg">

<linearGradient id="pg" y2="100%" gradientUnits="userSpaceOnUse">
    <stop offset="0" stop-color="#ebebeb" />
    <stop offset="1" stop-color="#e1e1e1" />
</linearGradient>
<rect id="panel" width="100%" height="100%" fill="url(#pg)"/>
<rect id="mast" width="100%" height="20" fill="#f9a806"/>
<path id="title" aria-label="Guide" transform="translate(38,5)" d="M 9.28,2.41 7.81,3.79 Q 7.35,2.99 6.67,2.6 5.99,2.2 5.25,2.2 4.05,2.2 3.16,3.12 2.27,4.03 2.27,5.27 2.27,6.59 3.16,7.52 4.05,8.43 5.3,8.43 5.98,8.43 6.6,8.09 7.23,7.74 7.62,6.8 H 5.19 v -2 h 4.73 v 1.32 q 0,1.03 -0.7,2.21 Q 8.52,9.5 7.37,10 6.22,10.6 5.05,10.6 2.92,10.6 1.46,9.05 -4.37e-4,7.51 -4.37e-4,5.24 -4.37e-4,3.09 1.5,1.57 3.01,0.047 5.12,0.047 q 2.71,0 4.16,2.363 z m 2.22,1.33 h 2 v 3.22 q 0,0.7 0.3,1.17 0.4,0.46 0.9,0.46 0.6,0 1,-0.45 Q 16,7.69 16,7.01 V 3.74 h 2.1 v 3.91 q 0,1.24 -1,2.08 -0.9,0.87 -2.3,0.87 -1.5,0 -2.4,-0.87 -0.9,-0.85 -0.9,-2.25 z m 8.3,-2.5 Q 19.8,0.734 20.2,0.367 20.5,0 21.1,0 q 0.5,0 0.8,0.367 0.4,0.367 0.4,0.873 0,0.52 -0.4,0.88 -0.3,0.37 -0.8,0.37 -0.6,0 -0.9,-0.37 -0.4,-0.36 -0.4,-0.88 z m 0.3,2.49 h 2 v 6.67 h -2 z m 8.5,-3.714 h 2 V 10.4 h -2 V 9.3 h 0 q -0.9,1.3 -2.2,1.3 -1.1,0 -1.9,-1.05 -0.9,-1.01 -0.9,-2.46 0,-1.46 0.9,-2.48 0.8,-1.03 2,-1.03 0.7,0 1.1,0.25 0.5,0.24 1,0.79 z M 27.1,5.56 q -0.5,0 -0.9,0.46 -0.4,0.45 -0.4,1.22 0,0.62 0.3,1.06 0.4,0.43 1,0.43 0.6,0 1,-0.46 0.5,-0.48 0.5,-1.18 0,-0.61 -0.5,-1.07 -0.4,-0.46 -1,-0.46 z m 11.8,2 h -4.8 q 0,0.65 0.4,1.06 0.4,0.4 0.9,0.4 0.9,0 1.5,-0.83 l 1.8,0.61 q -1,1.8 -3.2,1.8 -1.6,0 -2.5,-0.97 -0.9,-0.97 -0.9,-2.59 0,-1.46 0.9,-2.45 1,-1 2.5,-1 1.4,0 2.4,1.05 1,1.04 1,2.6 z M 34.1,6.22 h 2.7 q -0.3,-1.26 -1.3,-1.26 -0.6,0 -0.9,0.33 -0.4,0.33 -0.5,0.93 z" />

<xpath id="top-menu--slabel" transform="translate(100,24)" fill="none" stroke="#000" stroke-width=".75" d="M 0,0 h 10 v 10 h-10 z"/>

<g transform="translate(20,24)">
    <rect id="k:panel-swatch" x="0" y="0" width="25" height="12" fill="#f22"/>
    <path id="k:pick-panel" transform="translate(27,0)" fill="#407aee" stroke="#80808000" stroke-width=".25" d="m 4.5,11 c -0.74,-0.03 -1.3,-0.14 -1.86,-0.34 -0.76,-0.3 -1.28,-0.81 -1.5,-1.5 -0.25,-0.74 -0.12,-1.5 0.63,-1.97 0.92,-0.57 1.13,-2.27 0.47,-2.65 -0.34,-0.19 -0.57,-0.37 -0.64,-0.66 -0.03,-0.1 -0.03,-0.31 0,-0.43 0.03,-0.13 0.1,-0.33 0.15,-0.44 0.08,-0.14 0.17,-0.27 0.36,-0.46 0.2,-0.2 0.35,-0.32 0.63036,-0.51 0.62,-0.41 1.35,-0.75 1.96,-0.9 0.59,-0.15 1.37,-0.19 2.04,-0.1 0.92,0.12 1.67,0.43 2.39,0.99 0.62,0.48 1.11,1.07 1.43,1.73 0.33,0.66 0.47,1.31 0.47,2.08 0,0.66 -0.11,1.26 -0.31,1.79 -0.16,0.42 -0.41,0.82 -0.72,1.2 -0.11,0.13 -0.4,0.43 -0.55,0.55 -0.69,0.59 -1.62,1.07 -2.63,1.36 -0.23,0.07 -0.37,0.1 -0.59,0.13 -0.55,0.09 -1.21,0.14 -1.73,0.12 z m -1.14,-1.49 c 0.47,-0.08 0.95,-0.42 1.2,-0.85 0.1,-0.18 0.15,-0.32 0.15,-0.49 0.01,-0.21 -0.04,-0.34 -0.16,-0.47 -0.12,-0.12 -0.28,-0.17 -0.49,-0.17 -0.22,0 -0.39,0.04 -0.63,0.16 -0.54,0.27 -0.92,0.78 -0.92,1.23 0,0.19 0.05,0.31 0.16,0.42 0.16,0.16 0.4,0.22 0.7,0.17 z" />
</g>
<rect id="k:pos-switch" x="80" y="24" width="10" height="14" fill="none" stroke="#222" stroke-width=".75" />

  <g transform="translate(0,42)" aria-label="templates">
    <rect id="template-box" fill="#444" x="0" y="0" width="120" height="16" />
    <g transform="translate(3,3)">
      <g id="top" >
        <rect fill="#f2f2f2" x="3" y="0" width="10" height="10" />
        <rect fill="#f969c9" x="3" y="0" width="10" height="2.5" />
      </g>
      <g id="bottom">
        <rect fill="#f2f2f2" x="17" y="0"  width="10" height="10" />
        <rect fill="#f969c9" x="17" y="7.5" width="10" height="2.5" />
      </g>
      <g id="left">
        <rect fill="#f2f2f2" x="31" y="0" width="10" height="10" />
        <rect fill="#4f91f4" x="31" y="0" width="2" height="10" />
      </g>
      <g id="right">
        <rect fill="#f2f2f2" x="45" y="0"  width="10" height="10" />
        <rect fill="#4f91f4" x="53" y="0"  width="2" height="10" />
      </g>
      <g id="vert">
          <rect fill="#f2f2f2" x="59" y="0" width="10" height="10"  />
          <path fill="none" stroke="#bf4095" stroke-width="0.85" d="M61,0 v10 M63,0 v10 M65,0 v10 M67,0 v10" />
      </g>
      <g id="horz">
        <rect fill="#f2f2f2" x="73" y="0" width="10" height="10" />
        <path fill="none" stroke="#bf4095" stroke-width="0.85" d="M73,2 h10 M73,4 h10 M73,6 h10 M73,8 h10 " />
      </g>
      <g id="grid">
        <rect fill="#f2f2f2" x="87" y="0" width="10" height="10" />
        <path fill="none" stroke="#4097bf" stroke-width="0.85" d="M89,0 v10 M91,0 v10 M93,0 v10 M95,0 v10  M87,2h10 M87,4h10 M87,6h10 M87,8h10" />
      </g>
      <rect id="k:template-menu" fill="#f2f2f2" x="101" y="0" width="10" height="10" />
    </g>
  </g>

<rect id="k:name-edit" fill="#a6a6a6" x="7.5" y="62" width="105" height="14" />

<g transform="translate(40,80)">
  <rect id="k:guide-swatch" x="0" y="0" width="25" height="12" fill="#f22"/>
  <path id="k:pick-guide" transform="translate(28,0)" fill="#cf4be0" stroke="#80808000" stroke-width=".25" d="m 4.5,11 c -0.74,-0.03 -1.3,-0.14 -1.86,-0.34 -0.76,-0.3 -1.28,-0.81 -1.5,-1.5 -0.25,-0.74 -0.12,-1.5 0.63,-1.97 0.92,-0.57 1.13,-2.27 0.47,-2.65 -0.34,-0.19 -0.57,-0.37 -0.64,-0.66 -0.03,-0.1 -0.03,-0.31 0,-0.43 0.03,-0.13 0.1,-0.33 0.15,-0.44 0.08,-0.14 0.17,-0.27 0.36,-0.46 0.2,-0.2 0.35,-0.32 0.63036,-0.51 0.62,-0.41 1.35,-0.75 1.96,-0.9 0.59,-0.15 1.37,-0.19 2.04,-0.1 0.92,0.12 1.67,0.43 2.39,0.99 0.62,0.48 1.11,1.07 1.43,1.73 0.33,0.66 0.47,1.31 0.47,2.08 0,0.66 -0.11,1.26 -0.31,1.79 -0.16,0.42 -0.41,0.82 -0.72,1.2 -0.11,0.13 -0.4,0.43 -0.55,0.55 -0.69,0.59 -1.62,1.07 -2.63,1.36 -0.23,0.07 -0.37,0.1 -0.59,0.13 -0.55,0.09 -1.21,0.14 -1.73,0.12 z m -1.14,-1.49 c 0.47,-0.08 0.95,-0.42 1.2,-0.85 0.1,-0.18 0.15,-0.32 0.15,-0.49 0.01,-0.21 -0.04,-0.34 -0.16,-0.47 -0.12,-0.12 -0.28,-0.17 -0.49,-0.17 -0.22,0 -0.39,0.04 -0.63,0.16 -0.54,0.27 -0.92,0.78 -0.92,1.23 0,0.19 0.05,0.31 0.16,0.42 0.16,0.16 0.4,0.22 0.7,0.17 z" />
</g>
<circle id="k:x"      fill="#f22" cx="12"  cy="108" r="9" />
<circle id="k:y"      fill="#f22" cx="36"  cy="108" r="9" />
<circle id="k:width"  fill="#f22" cx="60"  cy="108" r="9" />
<circle id="k:repeat" fill="#f22" cx="84"  cy="108" r="9" />
<circle id="k:angle"  fill="#f22" cx="108" cy="108" r="9" />
<path id="X--label" transform="translate(6,119)"   fill="hsl(216,50%,50%)" d="M 2.2248,10.03678 5.5944,5.0255797 2.2536,-2.0214844e-5 H 4.2408 L 6.7608,3.8591798 9.2664,-2.0214844e-5 h 1.9872 L 7.8984,5.0255797 11.2824,10.03678 H 9.2952 L 6.7464,6.2207797 4.212,10.03678 Z" />
<path id="Y--label" transform="translate(29,119)"  fill="hsl(216,50%,50%)" d="M 5.9472,10.03678 V 6.1343797 L 2.4048,-2.0214844e-5 H 4.3056 L 6.7392,4.4639797 9.216,-2.0214844e-5 h 1.8864 L 7.6176,6.1343797 V 10.03678 Z" />
<path id="W--label" transform="translate(54,119)"  fill="hsl(216,50%,50%)" d="M 2.9808,10.03678 0,-2.0214844e-5 H 1.728 L 3.9024,7.4879797 5.9328,0.57597979 H 7.5744 L 9.6192,7.4879797 11.7648,-2.0214844e-5 h 1.7424 L 10.5264,10.03678 H 8.8992 L 6.624,2.5487798 H 6.8976 L 4.608,10.03678 Z" />
<path id="R--label" transform="translate(78,119)"  fill="hsl(216,50%,50%)" d="M 3.038463,0 V 10.03711 H 4.7083851 V 5.8183594 h 0.7628904 0.590625 0.036918 L 8.5386618,10.03711 H 10.468741 L 7.8056505,5.596875 C 8.2302984,5.4521202 8.5853322,5.2423557 8.8708851,4.9675781 c 0.5184,-0.4992 0.7769529,-1.1954813 0.7769529,-2.0882812 0,-0.5856 -0.1203525,-1.0937812 -0.360351,-1.5257813 C 9.0570861,0.92151567 8.6933268,0.59075157 8.1941274,0.36035156 7.6949271,0.12035157 7.0467858,0 6.249987,0 Z M 4.7083851,1.4835937 H 6.075963 c 0.3552003,0 0.6770394,0.04192 0.9650394,0.1283203 0.288,0.0768 0.513558,0.2167595 0.6767577,0.4183595 0.1728,0.2016 0.2601558,0.4904437 0.2601558,0.8648437 0,0.3744 -0.087354,0.6659484 -0.2601558,0.8771484 C 7.5545604,3.9834656 7.3290024,4.13235 7.0410024,4.21875 6.7626018,4.30515 6.4407627,4.3488281 6.075963,4.3488281 H 4.7083851 Z" />
<path id="A--label" transform="translate(102,119)" fill="hsl(216,50%,50%)" d="M 6.1269399,0 2.1525255,10.03711 H 3.9824082 L 4.7505726,7.9347656 h 4.021875 L 9.540612,10.03711 h 1.814063 L 7.3943226,0 Z M 6.7615101,2.4328125 8.2292832,6.4511719 H 5.293737 Z" />

<g transform="translate(0,6)">
    <path id="clear--slabel" transform="translate(93,133)" fill="none" stroke="#222" stroke-width="1.5" d="M0,0 L 5,5 M0,5 L 5,0" />
    <circle id="k:clear" cx="105" cy="135" r="5" fill="#f22" />

    <path id="add--slabel" transform="translate(9,131.5)" fill="none" stroke="#222" stroke-width="1.5" d="M0,4 h8 M4,0 v8" />
    <circle id="k:add" cx="24" cy="135" r="5" fill="#f22" />

    <path id="remove--slabel" transform="translate(35,131.5)" fill="none" stroke="#222" stroke-width="1.5" d="M0,4 h6.5" />
    <circle id="k:remove" cx="48" cy="135" r="5" fill="#f22"/>
</g>

<rect id="k:guide-list" x="7.5" y="148" width="105" height="210" fill="#666" />

<g id="logo" aria-label="#d (pachde logo)" fill="#000000" transform="translate(52,364)">
  <path d="M 3.023,5.309 3.916,3.543 5.003,3.834 4.104,5.599 5.759,6.042 6.658,4.277 7.74,4.567 6.846,6.334 7.631,6.544 7.34,7.631 6.328,7.36 5.666,8.665 6.969,9.014 6.678,10.1 5.148,9.691 4.255,11.457 3.168,11.166 4.062,9.4 2.407,8.956 1.513,10.723 0.426,10.431 1.32,8.665 0.540,8.456 0.831,7.369 1.843,7.64 2.5,6.334 1.202,5.986 1.493,4.899 Z M 5.242,7.068 3.587,6.625 2.924,7.93 4.58,8.374 Z M 13.387,10.647 l -0.301,1.122 -2.354,-0.631 0.155,-0.579 Q 10.064,11.035 9.304,10.831 8.394,10.587 7.993,9.687 7.593,8.787 7.874,7.736 8.160,6.669 8.969,6.104 9.78,5.534 10.665,5.771 11.516,6 11.892,6.807 L 12.306,5.262 11.547,5.058 11.847,3.937 14.161,4.557 12.587,10.433 Z M 11.402,8.697 Q 11.589,7.998 11.367,7.62 11.15,7.244 10.767,7.141 10.31,7.019 9.962,7.308 9.621,7.595 9.466,8.173 9.32,8.721 9.465,9.165 q 0.147,0.438 0.615,0.564 0.387,0.104 0.76,-0.12 0.379,-0.227 0.562,-0.912 z" />
</g>

</svg>
