<?xml version="1.0" encoding="UTF-8"?>
<svg width="120" height="380" viewBox="0 0 120 380"
version="1.1" xmlns="http://www.w3.org/2000/svg" xmlns:svg="http://www.w3.org/2000/svg">

<linearGradient id="pg" y2="100%" gradientUnits="userSpaceOnUse">
    <stop offset="0" stop-color="#ebebeb" />
    <stop offset="1" stop-color="#e1e1e1" />
</linearGradient>
<rect id="panel" width="100%" height="100%" fill="url(#pg)"/>
<rect id="mast" width="100%" height="20" fill="#f9a806"/>
<path id="title" aria-label="Guide" transform="translate(38,5)" d="M 9.28,2.41 7.81,3.79 Q 7.35,2.99 6.67,2.6 5.99,2.2 5.25,2.2 4.05,2.2 3.16,3.12 2.27,4.03 2.27,5.27 2.27,6.59 3.16,7.52 4.05,8.43 5.3,8.43 5.98,8.43 6.6,8.09 7.23,7.74 7.62,6.8 H 5.19 v -2 h 4.73 v 1.32 q 0,1.03 -0.7,2.21 Q 8.52,9.5 7.37,10 6.22,10.6 5.05,10.6 2.92,10.6 1.46,9.05 -4.37e-4,7.51 -4.37e-4,5.24 -4.37e-4,3.09 1.5,1.57 3.01,0.047 5.12,0.047 q 2.71,0 4.16,2.363 z m 2.22,1.33 h 2 v 3.22 q 0,0.7 0.3,1.17 0.4,0.46 0.9,0.46 0.6,0 1,-0.45 Q 16,7.69 16,7.01 V 3.74 h 2.1 v 3.91 q 0,1.24 -1,2.08 -0.9,0.87 -2.3,0.87 -1.5,0 -2.4,-0.87 -0.9,-0.85 -0.9,-2.25 z m 8.3,-2.5 Q 19.8,0.734 20.2,0.367 20.5,0 21.1,0 q 0.5,0 0.8,0.367 0.4,0.367 0.4,0.873 0,0.52 -0.4,0.88 -0.3,0.37 -0.8,0.37 -0.6,0 -0.9,-0.37 -0.4,-0.36 -0.4,-0.88 z m 0.3,2.49 h 2 v 6.67 h -2 z m 8.5,-3.714 h 2 V 10.4 h -2 V 9.3 h 0 q -0.9,1.3 -2.2,1.3 -1.1,0 -1.9,-1.05 -0.9,-1.01 -0.9,-2.46 0,-1.46 0.9,-2.48 0.8,-1.03 2,-1.03 0.7,0 1.1,0.25 0.5,0.24 1,0.79 z M 27.1,5.56 q -0.5,0 -0.9,0.46 -0.4,0.45 -0.4,1.22 0,0.62 0.3,1.06 0.4,0.43 1,0.43 0.6,0 1,-0.46 0.5,-0.48 0.5,-1.18 0,-0.61 -0.5,-1.07 -0.4,-0.46 -1,-0.46 z m 11.8,2 h -4.8 q 0,0.65 0.4,1.06 0.4,0.4 0.9,0.4 0.9,0 1.5,-0.83 l 1.8,0.61 q -1,1.8 -3.2,1.8 -1.6,0 -2.5,-0.97 -0.9,-0.97 -0.9,-2.59 0,-1.46 0.9,-2.45 1,-1 2.5,-1 1.4,0 2.4,1.05 1,1.04 1,2.6 z M 34.1,6.22 h 2.7 q -0.3,-1.26 -1.3,-1.26 -0.6,0 -0.9,0.33 -0.4,0.33 -0.5,0.93 z" />

<path id="vguide" fill="none" stroke="#ee0088" stroke-width=".75"
d="M5,20v360 M15,20v360 M25,20v360 M35,20v360 M45,20v360
  M55,20v360 M65,20v360 M75,20v360 M85,20v360
  M95,20v360 M105,20v360 M115,20v360"/>
<path id="hguide" fill="none" stroke="#0083ee" stroke-width=".75"
d="M 0,30 h120 M0,40 h120 M0,50 h120 M0,60 h120 
  M 0,70 h120 M0,80 h120 M0,90 h120 M0,100 h120 
  M 0,110 h120 M0,120 h120 M0,130 h120 M0,140 h120 
  M 0,150 h120 M0,160 h120 M0,170 h120 M0,180 h120 
  M 0,190 h120 M0,200 h120 M0,210 h120 M0,220 h120 
  M 0,230 h120 M0,240 h120 M0,250 h120 M0,260 h120 
  M 0,260 h120 M0,270 h120 M0,280 h120 M0,290 h120 
  M 0,300 h120 M0,310 h120 M0,320 h120 M0,330 h120 
  M 0,340 h120 M0,350 h120 M0,360 h120 M0,370 h120 
"/>

<path id="top-menu--slabel" transform="translate(100,24)" fill="none" stroke="#000" stroke-width=".75" d="M 0,0 h 10 v 10 h-10 z"/>

<g transform="translate(3.5,24)">
    <rect id="k:panel-swatch" x="0" y="0" width="25" height="12" fill="#f22"/>
    <path id="k:pick-panel" transform="translate(27,0)" fill="#407aee" stroke="#80808000" stroke-width=".25" d="m 4.5,11 c -0.74,-0.03 -1.3,-0.14 -1.86,-0.34 -0.76,-0.3 -1.28,-0.81 -1.5,-1.5 -0.25,-0.74 -0.12,-1.5 0.63,-1.97 0.92,-0.57 1.13,-2.27 0.47,-2.65 -0.34,-0.19 -0.57,-0.37 -0.64,-0.66 -0.03,-0.1 -0.03,-0.31 0,-0.43 0.03,-0.13 0.1,-0.33 0.15,-0.44 0.08,-0.14 0.17,-0.27 0.36,-0.46 0.2,-0.2 0.35,-0.32 0.63036,-0.51 0.62,-0.41 1.35,-0.75 1.96,-0.9 0.59,-0.15 1.37,-0.19 2.04,-0.1 0.92,0.12 1.67,0.43 2.39,0.99 0.62,0.48 1.11,1.07 1.43,1.73 0.33,0.66 0.47,1.31 0.47,2.08 0,0.66 -0.11,1.26 -0.31,1.79 -0.16,0.42 -0.41,0.82 -0.72,1.2 -0.11,0.13 -0.4,0.43 -0.55,0.55 -0.69,0.59 -1.62,1.07 -2.63,1.36 -0.23,0.07 -0.37,0.1 -0.59,0.13 -0.55,0.09 -1.21,0.14 -1.73,0.12 z m -1.14,-1.49 c 0.47,-0.08 0.95,-0.42 1.2,-0.85 0.1,-0.18 0.15,-0.32 0.15,-0.49 0.01,-0.21 -0.04,-0.34 -0.16,-0.47 -0.12,-0.12 -0.28,-0.17 -0.49,-0.17 -0.22,0 -0.39,0.04 -0.63,0.16 -0.54,0.27 -0.92,0.78 -0.92,1.23 0,0.19 0.05,0.31 0.16,0.42 0.16,0.16 0.4,0.22 0.7,0.17 z" />
</g>
<rect id="k:pos-switch" x="54" y="26" width="12" height="8" fill="none" stroke="#222" stroke-width=".75" />

  <g transform="translate(0,50)" aria-label="templates">
    <rect id="template-box" fill="#444" x="0" y="0" width="120" height="16" />
    <g transform="translate(3,3)">
      <g id="top" >
        <rect fill="#f2f2f2" x="3" y="0" width="10" height="10" />
        <rect fill="#f969c9" x="3" y="0" width="10" height="2.5" />
      </g>
      <g id="bottom">
        <rect fill="#f2f2f2" x="17" y="0"  width="10" height="10" />
        <rect fill="#f969c9" x="17" y="7.5" width="10" height="2.5" />
      </g>
      <g id="left">
        <rect fill="#f2f2f2" x="31" y="0" width="10" height="10" />
        <rect fill="#4f91f4" x="31" y="0" width="2" height="10" />
      </g>
      <g id="right">
        <rect fill="#f2f2f2" x="45" y="0"  width="10" height="10" />
        <rect fill="#4f91f4" x="53" y="0"  width="2" height="10" />
      </g>
      <g id="vert">
          <rect fill="#f2f2f2" x="59" y="0" width="10" height="10"  />
          <path fill="none" stroke="#bf4095" stroke-width="0.85" d="M61,0 v10 M63,0 v10 M65,0 v10 M67,0 v10" />
      </g>
      <g id="horz">
        <rect fill="#f2f2f2" x="73" y="0" width="10" height="10" />
        <path fill="none" stroke="#bf4095" stroke-width="0.85" d="M73,2 h10 M73,4 h10 M73,6 h10 M73,8 h10 " />
      </g>
      <g id="grid">
        <rect fill="#f2f2f2" x="87" y="0" width="10" height="10" />
        <path fill="none" stroke="#4097bf" stroke-width="0.85" d="M89,0 v10 M91,0 v10 M93,0 v10 M95,0 v10  M87,2h10 M87,4h10 M87,6h10 M87,8h10" />
      </g>
      <rect id="template-menu" fill="#f2f2f2" x="101" y="0" width="10" height="10" />
    </g>
  </g>

<path transform="translate(3.5,74)" id="name--label" fill="#222" d="M 1.1384964e-5,9.2932911 V -1.8754959e-5 H 1.6000073 L 6.079996,7.2799628 H 5.6933303 V -1.8754959e-5 H 7.2399931 V 9.2932911 H 5.6133305 L 1.1733418,1.9999762 h 0.3733323 v 7.2933149 z m 13.293292615036,0 -0.106667,-1.1066639 V 5.1466349 q 0,-0.6399984 -0.386666,-0.9599976 -0.386665,-0.3333325 -1.079997,-0.3333325 -0.533332,0 -1.05333,0.2133328 -0.506666,0.1999995 -0.9333314,0.6266651 L 8.906648,3.7199718 q 0.6399984,-0.5999984 1.359997,-0.8533311 0.719998,-0.266666 1.573329,-0.266666 1.33333,0 2.066661,0.6799983 0.746665,0.6666649 0.746665,1.8666619 v 4.1466562 z m -2.039995,0.1199997 q -0.733332,0 -1.3066636,-0.266666 Q 9.3866468,8.8799588 9.0666476,8.39996 8.7599817,7.9199612 8.7599817,7.2799628 q 0,-0.5466652 0.2266661,-0.9466642 Q 9.2266472,5.9332996 9.5999796,5.7066335 9.9199788,5.506634 10.346644,5.4266342 10.77331,5.3333011 11.239975,5.3333011 h 2.066662 V 6.439965 h -1.853329 q -0.239999,0 -0.479999,0.053333 -0.239999,0.04 -0.426665,0.1599996 -0.133333,0.1066664 -0.226666,0.266666 -0.08,0.1599996 -0.08,0.3733323 0,0.4266656 0.319999,0.6799983 0.333333,0.2399994 0.879998,0.2399994 0.479999,0 0.866664,-0.2133328 0.399999,-0.2133328 0.639999,-0.5866652 0.239999,-0.3733323 0.239999,-0.8399978 l 0.453332,0.7333314 Q 13.47997,7.999961 13.133304,8.4799598 12.786638,8.9466253 12.306639,9.1866247 11.826641,9.4132908 11.253309,9.4132908 Z m 5.05333,-0.1199997 V 2.7199744 h 1.479996 v 1.7066623 l -0.319999,0.1866662 q 0.12,-0.5733319 0.333332,-0.9599976 0.226666,-0.3866656 0.519999,-0.6133317 0.293333,-0.2399994 0.626665,-0.3333325 0.346666,-0.1066664 0.693332,-0.1066664 0.533332,0 0.999997,0.2133328 0.466666,0.1999995 0.786665,0.666665 0.333332,0.4533321 0.453332,1.2399968 l -0.866664,0.2399994 q 0.199999,-0.8533312 0.559998,-1.3599966 0.359999,-0.5199986 0.839998,-0.759998 0.493332,-0.2399994 1.066664,-0.2399994 0.839998,0 1.346663,0.3733324 0.519999,0.3599991 0.759998,0.9599975 0.24,0.5866652 0.24,1.2666635 v 4.093323 H 24.346618 V 5.5599672 q 0,-0.5466653 -0.133333,-0.9199977 Q 24.093286,4.2666371 23.82662,4.0799709 23.559954,3.8799714 23.146621,3.8799714 q -0.439998,0 -0.733331,0.2266661 -0.293333,0.2133328 -0.453332,0.666665 -0.146666,0.4533322 -0.146666,1.1199972 V 9.2932911 H 20.333295 V 5.4933007 q 0,-0.8133313 -0.306666,-1.2133303 -0.306666,-0.399999 -0.866664,-0.399999 -0.439999,0 -0.746665,0.2266661 -0.306666,0.2266661 -0.466665,0.6799983 -0.16,0.4399989 -0.16,1.1066639 v 3.3999914 z m 14.053287,0.1199997 q -0.826665,0 -1.439997,-0.266666 Q 28.319931,8.8799588 27.933265,8.39996 27.546599,7.9199612 27.359933,7.3199627 27.173267,6.706631 27.173267,6.0532993 q 0,-0.6533317 0.173333,-1.2666635 0.186666,-0.6266651 0.559998,-1.1199972 0.373333,-0.493332 0.959998,-0.7733313 0.586665,-0.2933326 1.386663,-0.2933326 0.759998,0 1.319997,0.266666 0.573332,0.2533327 0.946664,0.7199981 0.373333,0.4533322 0.546665,1.0399974 0.186667,0.5866652 0.186667,1.2533302 0,0.093333 -0.01333,0.266666 0,0.1733329 -0.02667,0.3466658 h -4.559989 q 0.05333,0.7866646 0.533332,1.1999969 0.479999,0.4133323 1.226664,0.4133323 0.546665,0 0.999997,-0.1733329 0.453332,-0.1733329 0.826665,-0.5466653 l 0.813331,0.9866642 Q 32.63992,8.7466258 32.226588,8.9732919 31.813255,9.199958 31.359923,9.3066244 30.919924,9.4132908 30.359926,9.4132908 Z m 1.439996,-3.6666574 q 0.02667,-0.1066664 0.02667,-0.2133328 0.01333,-0.1066664 0.01333,-0.2133328 0,-0.2933326 -0.106667,-0.5599986 -0.09333,-0.266666 -0.293332,-0.4666655 -0.2,-0.2133328 -0.493332,-0.3333325 -0.293333,-0.133333 -0.666665,-0.133333 -0.519999,0 -0.879998,0.2266661 -0.346666,0.2266661 -0.546665,0.5866652 -0.186666,0.3466658 -0.226666,0.7599981 h 3.653324 z" />

<rect id="k:name-edit" fill="#a6a6a6" x="40" y="72" width="60" height="14" />
<rect id="name-menu" fill="#a6a6a6" x="103" y="74" width="10" height="10" />

<circle id="k:x"      fill="#f22" cx="12"  cy="98" r="9" />
<circle id="k:y"      fill="#f22" cx="36"  cy="98" r="9" />
<circle id="k:width"  fill="#f22" cx="60"  cy="98" r="9" />
<circle id="k:repeat" fill="#f22" cx="84"  cy="98" r="9" />
<circle id="k:angle"  fill="#f22" cx="108" cy="98" r="9" />
<path id="X--label" transform="translate(6,109)" fill="#222" d="M 2.2248,10.03678 5.5944,5.0255797 2.2536,-2.0214844e-5 H 4.2408 L 6.7608,3.8591798 9.2664,-2.0214844e-5 h 1.9872 L 7.8984,5.0255797 11.2824,10.03678 H 9.2952 L 6.7464,6.2207797 4.212,10.03678 Z" />
<path id="Y--label" transform="translate(29,109)" fill="#222" d="M 5.9472,10.03678 V 6.1343797 L 2.4048,-2.0214844e-5 H 4.3056 L 6.7392,4.4639797 9.216,-2.0214844e-5 h 1.8864 L 7.6176,6.1343797 V 10.03678 Z" />
<path id="W--label" transform="translate(54,109)" fill="#222" d="M 2.9808,10.03678 0,-2.0214844e-5 H 1.728 L 3.9024,7.4879797 5.9328,0.57597979 H 7.5744 L 9.6192,7.4879797 11.7648,-2.0214844e-5 h 1.7424 L 10.5264,10.03678 H 8.8992 L 6.624,2.5487798 H 6.8976 L 4.608,10.03678 Z" />
<path id="R--label" transform="translate(78,109)" fill="#222" d="M 3.038463,0 V 10.03711 H 4.7083851 V 5.8183594 h 0.7628904 0.590625 0.036918 L 8.5386618,10.03711 H 10.468741 L 7.8056505,5.596875 C 8.2302984,5.4521202 8.5853322,5.2423557 8.8708851,4.9675781 c 0.5184,-0.4992 0.7769529,-1.1954813 0.7769529,-2.0882812 0,-0.5856 -0.1203525,-1.0937812 -0.360351,-1.5257813 C 9.0570861,0.92151567 8.6933268,0.59075157 8.1941274,0.36035156 7.6949271,0.12035157 7.0467858,0 6.249987,0 Z M 4.7083851,1.4835937 H 6.075963 c 0.3552003,0 0.6770394,0.04192 0.9650394,0.1283203 0.288,0.0768 0.513558,0.2167595 0.6767577,0.4183595 0.1728,0.2016 0.2601558,0.4904437 0.2601558,0.8648437 0,0.3744 -0.087354,0.6659484 -0.2601558,0.8771484 C 7.5545604,3.9834656 7.3290024,4.13235 7.0410024,4.21875 6.7626018,4.30515 6.4407627,4.3488281 6.075963,4.3488281 H 4.7083851 Z" />
<path id="A--label" transform="translate(102,109)" fill="#222" d="M 6.1269399,0 2.1525255,10.03711 H 3.9824082 L 4.7505726,7.9347656 h 4.021875 L 9.540612,10.03711 h 1.814063 L 7.3943226,0 Z M 6.7615101,2.4328125 8.2292832,6.4511719 H 5.293737 Z" />

  <rect id="k:guide-swatch" x="3.5" y="126" width="25" height="12" fill="#f22"/>
  <path id="k:pick-guide" transform="translate(30,126)" fill="#cf4be0" stroke="#80808000" stroke-width=".25" d="m 4.5,11 c -0.74,-0.03 -1.3,-0.14 -1.86,-0.34 -0.76,-0.3 -1.28,-0.81 -1.5,-1.5 -0.25,-0.74 -0.12,-1.5 0.63,-1.97 0.92,-0.57 1.13,-2.27 0.47,-2.65 -0.34,-0.19 -0.57,-0.37 -0.64,-0.66 -0.03,-0.1 -0.03,-0.31 0,-0.43 0.03,-0.13 0.1,-0.33 0.15,-0.44 0.08,-0.14 0.17,-0.27 0.36,-0.46 0.2,-0.2 0.35,-0.32 0.63036,-0.51 0.62,-0.41 1.35,-0.75 1.96,-0.9 0.59,-0.15 1.37,-0.19 2.04,-0.1 0.92,0.12 1.67,0.43 2.39,0.99 0.62,0.48 1.11,1.07 1.43,1.73 0.33,0.66 0.47,1.31 0.47,2.08 0,0.66 -0.11,1.26 -0.31,1.79 -0.16,0.42 -0.41,0.82 -0.72,1.2 -0.11,0.13 -0.4,0.43 -0.55,0.55 -0.69,0.59 -1.62,1.07 -2.63,1.36 -0.23,0.07 -0.37,0.1 -0.59,0.13 -0.55,0.09 -1.21,0.14 -1.73,0.12 z m -1.14,-1.49 c 0.47,-0.08 0.95,-0.42 1.2,-0.85 0.1,-0.18 0.15,-0.32 0.15,-0.49 0.01,-0.21 -0.04,-0.34 -0.16,-0.47 -0.12,-0.12 -0.28,-0.17 -0.49,-0.17 -0.22,0 -0.39,0.04 -0.63,0.16 -0.54,0.27 -0.92,0.78 -0.92,1.23 0,0.19 0.05,0.31 0.16,0.42 0.16,0.16 0.4,0.22 0.7,0.17 z" />

  <path id="add--slabel" transform="translate(55,130)" fill="none" stroke="#222" stroke-width="1.5" d="M0,4 h8 M4,0 v8" />
  <circle id="k:add" cx="70" cy="133" r="5" fill="#f22" />

  <path id="remove--slabel" transform="translate(81,130)" fill="none" stroke="#222" stroke-width="1.5" d="M0,4 h6.5" />
  <circle id="k:remove" cx="95" cy="133" r="5" fill="#f22"/>

  <rect id="guide-list" x="3.5" y="140" width="100" height="210" fill="#666" />

<g id="logo" aria-label="#d (pachde logo)" fill="#000000" transform="translate(52,364)">
  <path d="M 3.023,5.309 3.916,3.543 5.003,3.834 4.104,5.599 5.759,6.042 6.658,4.277 7.74,4.567 6.846,6.334 7.631,6.544 7.34,7.631 6.328,7.36 5.666,8.665 6.969,9.014 6.678,10.1 5.148,9.691 4.255,11.457 3.168,11.166 4.062,9.4 2.407,8.956 1.513,10.723 0.426,10.431 1.32,8.665 0.540,8.456 0.831,7.369 1.843,7.64 2.5,6.334 1.202,5.986 1.493,4.899 Z M 5.242,7.068 3.587,6.625 2.924,7.93 4.58,8.374 Z M 13.387,10.647 l -0.301,1.122 -2.354,-0.631 0.155,-0.579 Q 10.064,11.035 9.304,10.831 8.394,10.587 7.993,9.687 7.593,8.787 7.874,7.736 8.160,6.669 8.969,6.104 9.78,5.534 10.665,5.771 11.516,6 11.892,6.807 L 12.306,5.262 11.547,5.058 11.847,3.937 14.161,4.557 12.587,10.433 Z M 11.402,8.697 Q 11.589,7.998 11.367,7.62 11.15,7.244 10.767,7.141 10.31,7.019 9.962,7.308 9.621,7.595 9.466,8.173 9.32,8.721 9.465,9.165 q 0.147,0.438 0.615,0.564 0.387,0.104 0.76,-0.12 0.379,-0.227 0.562,-0.912 z" />
</g>

</svg>
