<?xml version="1.0" encoding="UTF-8" standalone="no"?>
<svg
   width="15" height="15"
   viewBox="0 0 15 15"
   version="1.1"
   id="pachde-logo"
   xmlns="http://www.w3.org/2000/svg"
   xmlns:svg="http://www.w3.org/2000/svg">
<g
   aria-label="#d (pachde logo)"
   style="fill:#000000;fill-opacity:0.20">
   <path d="M 3.0225791,5.3090902 3.9164512,3.5427485 5.0031212,3.8339209 4.1042182,5.5989145 5.7593776,6.0424131 6.6582806,4.2774195 7.7399197,4.5672439 6.8460476,6.3335855 7.6308648,6.5438766 7.3396924,7.6305466 6.3284856,7.3595946 5.6659891,8.6649013 6.9689869,9.0140385 6.6778145,10.100708 5.1484271,9.6909104 4.254555,11.457252 3.1678851,11.16608 4.0617572,9.399738 2.4065978,8.9562394 1.5127257,10.722581 0.4260557,10.431409 1.3199278,8.665067 0.54014147,8.4561239 0.83131382,7.3694539 1.8425206,7.640406 2.4999863,6.3337512 1.2020194,5.985962 1.4931917,4.899292 Z M 5.2418157,7.0684222 3.5866563,6.6249236 2.9241597,7.9302303 4.5793191,8.3737289 Z" />
   <path d="m 13.386835,10.647075 -0.300609,1.121886 -2.354452,-0.630874 0.155023,-0.578551 Q 10.063919,11.034625 9.3042558,10.831074 8.3936666,10.587083 7.9931509,9.6871288 7.5926352,8.7871751 7.8743714,7.7357213 8.1601517,6.6691748 8.9693819,6.1041558 9.7799602,5.5341058 10.665395,5.7713573 11.515614,5.9991727 11.89242,6.8065002 L 12.306262,5.2620202 11.546599,5.0584691 11.847208,3.936583 14.161412,4.5566722 12.586925,10.43274 Z M 11.402005,8.6971241 Q 11.58938,7.9978318 11.36706,7.6201287 11.149771,7.2437736 10.767424,7.1413241 10.309614,7.0186543 9.962361,7.3084457 9.6214865,7.5945543 9.4664642,8.1731054 9.31953,8.7214713 9.4649416,9.1648403 q 0.1467596,0.438338 0.6146314,0.5637039 0.387378,0.1037976 0.76005,-0.11987 0.379051,-0.2273505 0.562382,-0.9115501 z" />
</g>
</svg>
