<?xml version="1.0" encoding="UTF-8"?>
<svg width="30" height="380" viewBox="0 0 30 380" version="1.1" xmlns="http://www.w3.org/2000/svg" xmlns:svg="http://www.w3.org/2000/svg">
<linearGradient id="pg" y1="100%" gradientUnits="userSpaceOnUse">
    <stop offset="0" stop-color="#181818" />
    <stop offset="1" stop-color="#282828" />
</linearGradient>
<rect id="panel" fill="url(#pg)" width="100%" height="100%" />
<rect id="mast" width="100%" height="20" fill="#f9a806"/>

<path id="title" fill="#000" transform="translate(5,3.5)" d="M 15.7,10.6 q 0,-0.5 0.4,-0.9 0.4,-0.38 0.9,-0.38 0.5,0 0.9,0.38 0.4,0.4 0.4,0.9 0,0.5 -0.4,0.9 -0.4,0.4 -0.9,0.4 -0.5,0 -0.9,-0.4 -0.4,-0.4 -0.4,-0.9 z m 2.1,0 Q 17.8,10.3 17.6,10 17.3,9.82 17,9.82 q -0.3,0 -0.6,0.28 -0.2,0.2 -0.2,0.5 0,0.3 0.2,0.5 0.3,0.3 0.6,0.3 0.3,0 0.6,-0.3 0.2,-0.2 0.2,-0.5 z m 0.7,1.2 V 9.38 H 19 v 0.4 q 0.2,-0.24 0.4,-0.35 0.2,-0.11 0.4,-0.11 0.3,0 0.6,0.21 0.2,0.22 0.2,0.57 v 1.7 H 20.1 V 10.2 Q 20.1,10 19.9,9.88 19.8,9.75 19.6,9.75 19.4,9.75 19.2,9.97 19,10.2 19,10.5 v 1.3 z m 4.9,-1.1 h -2.1 q 0.1,0.4 0.3,0.5 0.3,0.2 0.5,0.2 0.5,0 0.8,-0.4 l 0.3,0.3 q -0.4,0.6 -1.1,0.6 -0.5,0 -0.9,-0.4 -0.3,-0.4 -0.3,-0.9 0,-0.5 0.3,-0.91 0.4,-0.37 0.9,-0.37 0.5,0 0.9,0.38 0.4,0.4 0.4,1 z m -2,-0.4 h 1.4 q -0.2,-0.52 -0.7,-0.52 -0.5,0 -0.7,0.52 z M 5.05,9.38 H 5.56 V 11.8 H 5.05 v -0.5 q -0.38,0.6 -0.93,0.6 -0.47,0 -0.81,-0.4 -0.34,-0.4 -0.34,-0.9 0,-0.5 0.34,-0.9 0.34,-0.38 0.8,-0.38 0.29,0 0.54,0.15 0.26,0.16 0.4,0.41 z m 0.1,1.22 Q 5.11,10.3 4.88,10 4.64,9.8 4.31,9.8 3.99,9.8 3.75,10 3.5,10.3 3.5,10.6 q 0,0.3 0.24,0.6 0.23,0.2 0.57,0.2 0.33,0 0.57,-0.2 0.23,-0.3 0.23,-0.6 z m 0.87,1.2 V 9.38 h 0.49 v 0.4 q 0.22,-0.24 0.4,-0.35 0.18,-0.11 0.4,-0.11 0.33,0 0.56,0.21 0.24,0.22 0.24,0.57 v 1.7 H 7.56 V 10.2 Q 7.56,10 7.43,9.88 7.3,9.75 7.1,9.75 6.85,9.75 6.67,9.97 6.48,10.2 6.48,10.5 v 1.3 z M 10.9,10.7 H 8.8 q 0.1,0.4 0.3,0.5 0.24,0.2 0.53,0.2 0.47,0 0.77,-0.4 l 0.3,0.3 q -0.4,0.6 -1.1,0.6 -0.54,0 -0.9,-0.4 -0.36,-0.4 -0.36,-0.9 0,-0.5 0.36,-0.91 0.37,-0.37 0.9,-0.37 0.5,0 0.9,0.38 0.4,0.4 0.4,1 z M 8.85,10.3 H 10.3 Q 10.1,9.78 9.6,9.78 9.08,9.78 8.85,10.3 Z M 11.3,8 h 0.5 v 3.8 H 11.3 Z M -0.003,-0.022 H 4.38 q 1.77,0 2.85,1.032 1.09,1.03 1.09,2.71 0,1.1 -0.54,2.1 Q 7.25,6.8 6.18,7.29 5.1,7.78 4.34,7.8 h -1.6 v 5 H -0.003 Z M 2.7,2.28 v 3.28 h 1.08 q 0.69,0 1.18,-0.49 0.5,-0.5 0.5,-1.19 Q 5.46,3.1 4.9,2.67 4.34,2.24 3.32,2.24 Z M 9.68,-0.022 H 18.3 V 2.7 H 15.4 V 12.8 H 12.6 V 2.7 H 9.68 Z" />

<rect id="k:menu" x="10" y="22" width="10" height="10" fill="none" stroke="#e6e6e6" stroke-width=.75  />

<path id="k:pick-panel" transform="translate(9,38)" fill="#407aee" stroke="none" stroke-width=".25" d="M 4.23,11.9 C 3.49,11.9 2.82,11.8 2.03,11.5 1.24,11.2 0.519,10.6 0.259,9.74 -0.039,8.91 0.119,8.01 0.999,7.46 2.09,6.78 2.48,4.91 1.56,4.33 1.16,4.08 0.889,3.89 0.799,3.55 0.769,3.43 0.769,3.17 0.799,3.03 0.839,2.88 0.919,2.65 0.979,2.52 1.07,2.35 1.18,2.19 1.41,1.97 1.64,1.74 1.82,1.6 2.15,1.37 2.88,0.878 3.75,0.488 4.47,0.308 5.16,0.124 6.08,0.076 6.88,0.178 c 1.08,0.15 1.97,0.52 2.82,1.182 0.7,0.56 1.3,1.26 1.7,2.05 0.4,0.77 0.5,1.54 0.5,2.45 0,0.78 -0.1,1.49 -0.4,2.11 -0.1,0.51 -0.4,0.97 -0.8,1.47 -0.1,0.1 0,-0 -0.6,0.56 -0.64,0.6 -3.01,1.7 -3.83,1.8 -0.82,0.1 -1.3,0.1 -2.04,0.1 z M 2.88,10.2 C 3.44,10.1 4,9.74 4.3,9.24 4.42,8.98 4.48,8.81 4.48,8.62 4.49,8.37 4.44,8.21 4.29,8.06 4.15,7.92 3.96,7.86 3.71,7.86 c -0.26,0 -0.46,0 -0.74,0.18 -0.65,0.33 -1.09,0.93 -1.09,1.5 0,0.2 0.12,0.3 0.19,0.46 0.18,0.1 0.47,0.2 0.82,0.2 z" />
<rect id="k:pos-switch" x="10" y="56" width="10" height="14" fill="none" stroke="#e6e6e6" stroke-width=".75" />

<path id="c--knob-range" opacity="0" fill="none" stroke="#e6e6e6" d="M15,246 v4 M15,270 v9"/>
<path id="knob-range" fill="none" stroke="#e6e6e6" transform="translate(2.5,246)" d="M 6.51,22.9 C 1.83,20.2 -0.474,14.6 0.937,9.4 2.34,4.16 7.09,0.515 12.5,0.51 c 5.4,0 10.2,3.69 11.6,8.93 1.4,5.26 -0.9,10.76 -5.6,13.46" />
<circle id="k:fade" fill="#f22" cx="15" cy="258" r="9" />
<path id="PanelTone" fill="#4073bf" transform="translate(0,-35)" d="m 8.58,232 v -5 q 0,-2 1.03,-3 0.99,-1 2.69,-1 1.1,0 2.1,1 1,0 1.5,1 0.5,2 0.5,2 v 2 h 5 v 3 z m 2.32,-3 h 3.3 v -1 q 0,-1 -0.5,-1 -0.5,-1 -1.2,-1 -0.8,0 -1.2,1 -0.5,0 -0.5,1 z M 21.4,217 H 20 v 0 q 0.8,0 1.2,1 0.4,0 0.4,1 0,2 -1.3,3 -1.3,1 -3.1,1 -1.8,0 -3.1,-1 -1.3,-1 -1.3,-3 0,-1 0.4,-1 0.3,-1 1,-1 H 13 v -3 h 8.4 z m -6.1,1 q 0,1 0.6,2 0.6,0 1.5,0 0.9,0 1.4,0 0.5,-1 0.5,-2 0,0 -0.6,-1 -0.6,0 -1.4,0 -0.8,0 -1.4,0 -0.6,1 -0.6,1 z M 13,209 h 1 q -1.2,-1 -1.2,-3 0,-1 1,-2 1,-1 2.5,-1 h 5.1 v 3 h -4.7 q -0.7,0 -1.2,0 -0.5,1 -0.5,1 0,1 0.6,2 0.6,0 1.6,0 h 4.2 v 2 H 13 Z m 4.8,-16 v 6 q 0.8,0 1.3,0 0.5,-1 0.5,-1 0,-2 -1,-2 l 0.7,-3 q 2.3,2 2.3,4 0,2 -1.2,4 -1.2,1 -3.3,1 -1.8,0 -3,-1 -1.3,-2 -1.3,-4 0,-1 1.3,-3 1.3,-1 3.3,-1 z m -1.7,6 v -3 q -1.6,0 -1.6,1 0,1 0.5,2 0.4,0 1.1,0 z m -7.74,-8 v -2 H 21.4 v 2 z m 0.22,-4 v -9 h 2.72 v 3 h 10.1 v 3 H 11.3 v 3 z m 8.62,-9 q -1.9,0 -3.2,-1 -1.2,-1 -1.2,-3 0,-2 1.3,-3 1.2,-1 3.1,-1 1.9,0 3.1,1 1.3,1 1.3,3 0,2 -1.3,3 -1.4,1 -3.1,1 z m 0,-6 q -0.8,0 -1.5,1 -0.6,0 -0.6,1 0,1 0.6,1 0.6,1 1.4,1 0.9,0 1.6,-1 0.6,0 0.6,-1 0,-1 -0.6,-1 -0.6,-1 -1.5,-1 z M 13,165 h 1 q -1.2,-2 -1.2,-3 0,-1 1,-2 1,-1 2.5,-1 h 5.1 v 3 h -4.7 q -0.7,0 -1.2,0 -0.5,1 -0.5,1 0,1 0.6,1 0.6,1 1.6,1 h 4.2 v 2 H 13 Z m 4.8,-16 v 6 q 0.8,0 1.3,-1 0.5,0 0.5,-1 0,-1 -1,-1 l 0.7,-3 q 2.3,2 2.3,4 0,2 -1.2,3 -1.2,2 -3.3,2 -1.8,0 -3,-2 -1.3,-1 -1.3,-3 0,-2 1.3,-3 1.3,-1 3.3,-1 z m -1.7,6 v -3 q -1.6,0 -1.6,1 0,1 0.5,1 0.4,1 1.1,1 z" />

<circle id="k:on-light" cx="15" cy="292" r="2.9" fill="#bd10c3" />
<circle id="k:go-btn" cx="15" cy="292" r="10" fill="#f22" />
<path id="go--label" transform="translate(9,308)" fill="#efefef" d="M 5.65,1.07 5.08,1.63 Q 4.23,0.792 3.1,0.792 2.12,0.792 1.46,1.43 0.808,2.06 0.808,3.01 q 0,0.83 0.632,1.5 0.64,0.66 1.75,0.66 1.68,0 2.11,-1.46 H 3.79 V 2.95 h 2.38 q 0,0.57 -0.1,0.91 Q 6.02,4.21 5.78,4.62 5.54,5.03 5.13,5.36 4.73,5.69 4.27,5.83 3.81,5.97 3.18,5.97 1.73,5.97 0.861,5.06 -2.27e-4,4.15 -2.27e-4,2.97 q 0,-1.23 0.883227,-2.099 0.887,-0.87 2.137,-0.87 0.75,0 1.37,0.229 0.62,0.224 1.26,0.84 z m 1.3,1.88 q 0,-1.22 0.91,-2.083 0.92,-0.866 2.24,-0.866 1.2,0 2.1,0.875 0.9,0.874 0.9,2.074 0,1.27 -0.9,2.14 Q 11.3,5.97 10,5.97 8.75,5.97 7.85,5.09 6.95,4.2 6.95,2.95 Z m 5.35,0 Q 12.3,2.05 11.6,1.42 11,0.783 10,0.783 9.07,0.783 8.41,1.43 7.75,2.08 7.75,2.98 q 0,0.92 0.67,1.56 0.69,0.63 1.68,0.63 0.9,0 1.5,-0.65 0.7,-0.65 0.7,-1.54 z"/>

<circle id="k:fade-trigger" fill="#3b8ab7" cx="15" cy="333" r="11.5" />
<rect id="k:cv-switch" x="8" y="350" width="14" height="10" fill="none" stroke="#e6e6e6" stroke-width=".75" />

<path id="logo" aria-label="#d (pachde logo)" fill="#f0f0f0" transform="translate(7.5,364)" d="M 3.023,5.309 3.916,3.543 5.003,3.834 4.104,5.599 5.759,6.042 6.658,4.277 7.74,4.567 6.846,6.334 7.631,6.544 7.34,7.631 6.328,7.36 5.666,8.665 6.969,9.014 6.678,10.1 5.148,9.691 4.255,11.457 3.168,11.166 4.062,9.4 2.407,8.956 1.513,10.723 0.426,10.431 1.32,8.665 0.540,8.456 0.831,7.369 1.843,7.64 2.5,6.334 1.202,5.986 1.493,4.899 Z M 5.242,7.068 3.587,6.625 2.924,7.93 4.58,8.374 Z M 13.387,10.647 l -0.301,1.122 -2.354,-0.631 0.155,-0.579 Q 10.064,11.035 9.304,10.831 8.394,10.587 7.993,9.687 7.593,8.787 7.874,7.736 8.160,6.669 8.969,6.104 9.78,5.534 10.665,5.771 11.516,6 11.892,6.807 L 12.306,5.262 11.547,5.058 11.847,3.937 14.161,4.557 12.587,10.433 Z M 11.402,8.697 Q 11.589,7.998 11.367,7.62 11.15,7.244 10.767,7.141 10.31,7.019 9.962,7.308 9.621,7.595 9.466,8.173 9.32,8.721 9.465,9.165 q 0.147,0.438 0.615,0.564 0.387,0.104 0.76,-0.12 0.379,-0.227 0.562,-0.912 z" />
</svg>
