<?xml version="1.0" encoding="UTF-8" standalone="no"?>
<svg
width="30" height="380" viewBox="0 0 30 380"
version="1.1"
xmlns="http://www.w3.org/2000/svg"
xmlns:svg="http://www.w3.org/2000/svg">

<linearGradient id="pg" y2="380" gradientUnits="userSpaceOnUse">
    <stop offset="0" stop-color="#ebebeb" />
    <stop offset="1" stop-color="#e1e1e1" />
</linearGradient>
<rect id="panel" width="100%" height="100%" fill="url(#pg)"/>
<rect id="mast" width="100%" height="20" fill="#f9a806"/>
<path id="Rui--title" transform="translate(1.5,3.5)" d="M0,-0.022 H 4.22 q 1.92,0 3.04,1.015 Q 8.38,2.01 8.38,3.74 8.38,4.72 7.86,5.79 7.35,6.85 5.98,7.46 L 9.56,12.8 H 6.4 L 3.08,7.84 H 2.76 V 12.8 H -7.03e-4 Z M 2.78,2.26 V 5.6 h 0.6 Q 5.54,5.6 5.54,3.84 5.54,3.11 4.97,2.69 4.41,2.26 3.42,2.26 Z m 8.12,-2.282 h 2.7 V 7.82 q 0,1.09 0.6,1.76 0.6,0.62 1.6,0.62 1.1,0 1.8,-0.62 0.6,-0.68 0.6,-1.9 v -7.702 h 2.7 V 8.28 q 0,1.09 -0.6,2.32 -0.5,1.1 -1.7,1.8 Q 17.4,13 16,13 13.3,13 12.1,11.5 10.9,10 10.9,8.42 Z m 12.5,0 h 2.8 V 12.8 h -2.8 z" />

<g aria-label="fluff">
    <circle id="fluff-co" fill="#50aeca" cx="20" cy="62" r="40" />
    <circle id="fluff-ct" fill="#50ca77" cx="10" cy="146" r="40" />
    <circle id="fluff-b"  fill="#ca50b8" cx="20" cy="228" r="40" />
    <circle id="fluff-h"  fill="#b1da29" cx="10" cy="312" r="40" />
</g>
<g>
    <circle id="k:zero" cx="6" cy="58" r="5" fill="#2f2" />
    <circle id="k:cableop" cx="15" cy="40" r="14" fill="#f22" />
    <circle id="k:trim-cableop" cx="20" cy="64" r="8.9" fill="#bd10c3" />
    <circle id="k:port-cableop" cx="15" cy="85" r="11.5" fill="#3b8ab7" />
    <path id="rui-O" transform="translate(2,66)" fill="#000" d="m 4.39,1.56e-4 q 1.18,0 2.07,0.474844 0.89,0.474 1.42,1.375 0.54,0.9 0.54,1.96 0,1.64 -1.23,2.91 Q 5.97,7.99 4.16,7.99 2.51,7.99 1.34,6.94 0.175,5.89 0.175,4.1 0.175,2.41 1.38,1.21 2.59,1.56e-4 4.39,1.56e-4 Z M 6.43,3.98 Q 6.43,2.21 5.83,1.31 5.23,0.416 4.3,0.416 q -0.92,0 -1.52,0.904 -0.61,0.9 -0.61,2.66 0,1.7 0.58,2.64 0.58,0.94 1.55,0.94 0.86,0 1.49,-0.84 0.64,-0.85 0.64,-2.74 z" />
</g>

<g transform="translate(0, 84)">
    <circle id="k:cableten" cx="15" cy="40" r="14" fill="#f22" />
    <circle id="k:trim-cableten" cx="10" cy="64" r="8.9" fill="#bd10c3" />
    <circle id="k:port-cableten" cx="15" cy="85" r="11.5" fill="#3b8ab7" />
    <path id="rui-T" transform="translate(20, 65)" fill="#000" d="m 0.24,0.087 q 3.04,0.082 4.5,0.082 1.11,0 2.44,-0.06 0.47,-0.024 0.78,-0.024 0.11,0 0.39,0.01 0,0.24 0.1,0.993 L 8.54,2 Q 8.54,2.23 8.35,2.23 8.2,2.23 8.07,1.95 7.85,1.48 7.49,1.14 7.15,0.796 6.69,0.685 6.23,0.573 5.17,0.573 5.07,1.47 5.07,2.82 q 0,1.37 0.1,2.66 0,1.28 0.13,1.54 0.1,0.26 0.25,0.39 0.18,0.12 0.86,0.17 0.23,0 0.23,0.16 0,0.16 -0.2,0.16 l -0.17,0 -1.21,-0 q -1.42,0 -1.72,0 l -0.74,0 q -0.1,0 -0.36,-0 -0.14,-0 -0.14,-0.15 0,-0.17 0.22,-0.17 0.53,0 0.79,-0.22 Q 3.33,7.15 3.39,6.68 3.46,6.2 3.46,4.63 3.46,2.14 3.3,0.573 2.34,0.573 1.9,0.655 1.48,0.732 1.08,1.09 0.679,1.44 0.427,2 0.328,2.23 0.199,2.23 -4.84e-4,2.23 -4.84e-4,2.05 -4.84e-4,2 0.07,1.28 0.146,0.562 0.24,0.087 Z" />
</g>

<g transform="translate(0, 166)">
    <circle id="k:bright" cx="15" cy="40" r="14" fill="#f22" />
    <circle id="k:trim-bright" cx="20" cy="64" r="8.9" fill="#bd10c3" />
    <circle id="k:port-bright" cx="15" cy="85" r="11.5" fill="#3b8ab7" />
    <path id="rui-B" transform="translate(1,56)" fill="#000" d="m 5.22,3.76 q 1.22,0.26 1.82,0.79 0.6,0.53 0.6,1.34 0,0.67 -0.44,1.21 -0.44,0.54 -1.09,0.73 -0.63,0.18 -1.86,0.18 -0.3,0 -0.94,-0 -0.52,-0 -0.82,-0 -0.4,0 -1.08,0 -0.27,0 -0.38,0 Q 0.8,8.02 0.8,7.85 0.8,7.72 0.981,7.7 1.35,7.65 1.51,7.58 1.68,7.49 1.78,7.31 1.89,7.12 1.89,6.7 l 0.1,-2.74 q 0,-1.28 -0,-2.04 Q 1.88,1.15 1.8,0.932 1.73,0.71 1.6,0.622 1.47,0.534 1.2,0.516 0.969,0.504 0.899,0.463 0.835,0.422 0.835,0.329 q 0,-0.123 0.134,-0.153 0.141,-0.03 0.781,-0.03 1.17,0 2.19,-0.082 0.6,-0.047 0.97,-0.047 1.08,0 1.72,0.481 0.64,0.474 0.64,1.281 0,1.38 -2.05,1.98 z M 3.61,3.67 q 2.02,0 2.02,-1.74 0,-0.76 -0.36,-1.138 -0.36,-0.381 -0.83,-0.381 -0.34,0 -0.83,0.164 -0,0.595 -0,1.235 0,0.55 0,1.86 z m 0,0.46 q -0,1.23 -0,2.06 0,1.09 0.1,1.25 0.1,0.15 0.56,0.15 0.84,0 1.26,-0.45 Q 5.89,6.69 5.89,5.9 5.89,5.11 5.46,4.61 5.02,4.1 4.14,4.1 q -0.19,0 -0.53,0 z" />
</g>

<g transform="translate(0, 250)">
    <circle id="k:bloom" cx="15" cy="40" r="14" fill="#f22" />
    <circle id="k:trim-bloom" cx="10" cy="64" r="8.9" fill="#bd10c3" />
    <circle id="k:port-bloom" cx="15" cy="85" r="11.5" fill="#3b8ab7" />
    <path id="rui-L" transform="translate(20,65)" fill="#000" d="m 7.5,7.91 q -1.46,-0.1 -4.56,-0.1 -1.07,0 -1.75,0.1 -0.16,0 -0.238,0 -0.223,0 -0.223,-0.18 0,-0.1 0.06,-0.11 0.06,-0 0.282,-0.1 0.37,-0 0.56,-0.21 0.19,-0.16 0.27,-0.48 0.1,-0.32 0.1,-1.63 0,-1.31 0,-3.11 Q 2.01,1.39 1.9,1.07 1.8,0.744 1.6,0.598 1.4,0.445 1.05,0.428 0.794,0.416 0.794,0.24 0.794,0.065 1.08,0.065 l 1.95,0.052 q 0.45,0 1.26,-0.041 0.29,-0.011 0.39,-0.011 0.25,0 0.25,0.17 0,0.09 -0.1,0.134 -0.1,0.04 -0.39,0.08 -0.4,0.05 -0.56,0.2 Q 3.74,0.797 3.68,1.16 3.63,1.52 3.63,2.79 v 3.56 q 0,0.82 0.15,0.97 0.14,0.16 0.53,0.16 0.96,0 1.43,-0.15 0.47,-0.15 0.89,-0.54 0.43,-0.4 0.91,-1.32 0.1,-0.19 0.21,-0.19 0.16,0 0.16,0.17 0,0.38 -0.41,2.46 z" />
</g>

<g transform="translate(5, 352)">
    <circle id="k:pause" fill="#2b2" cx="16" cy="8" r="8"/>
</g>

<g id="logo" aria-label="#d (pachde logo)" fill="#000000" transform="translate(7.5,366)">
  <path d="M 3.023,5.309 3.916,3.543 5.003,3.834 4.104,5.599 5.759,6.042 6.658,4.277 7.74,4.567 6.846,6.334 7.631,6.544 7.34,7.631 6.328,7.36 5.666,8.665 6.969,9.014 6.678,10.1 5.148,9.691 4.255,11.457 3.168,11.166 4.062,9.4 2.407,8.956 1.513,10.723 0.426,10.431 1.32,8.665 0.540,8.456 0.831,7.369 1.843,7.64 2.5,6.334 1.202,5.986 1.493,4.899 Z M 5.242,7.068 3.587,6.625 2.924,7.93 4.58,8.374 Z M 13.387,10.647 l -0.301,1.122 -2.354,-0.631 0.155,-0.579 Q 10.064,11.035 9.304,10.831 8.394,10.587 7.993,9.687 7.593,8.787 7.874,7.736 8.160,6.669 8.969,6.104 9.78,5.534 10.665,5.771 11.516,6 11.892,6.807 L 12.306,5.262 11.547,5.058 11.847,3.937 14.161,4.557 12.587,10.433 Z M 11.402,8.697 Q 11.589,7.998 11.367,7.62 11.15,7.244 10.767,7.141 10.31,7.019 9.962,7.308 9.621,7.595 9.466,8.173 9.32,8.721 9.465,9.165 q 0.147,0.438 0.615,0.564 0.387,0.104 0.76,-0.12 0.379,-0.227 0.562,-0.912 z" />
</g>

</svg>

