<?xml version="1.0" encoding="UTF-8" standalone="no"?>
<svg
width="30" height="380" viewBox="0 0 30 380"
version="1.1"
xmlns="http://www.w3.org/2000/svg"
xmlns:svg="http://www.w3.org/2000/svg">

<linearGradient id="pg" y2="380" gradientUnits="userSpaceOnUse">
    <stop offset="0" stop-color="#ebebeb" />
    <stop offset="1" stop-color="#e1e1e1" />
</linearGradient>
<rect id="panel" width="30" height="380" fill="url(#pg)"/>
<rect id="mast" width="30" height="20" fill="#f9a806"/>
<path id="Rui" d="m 6.565,5.54 h 2.953 q 1.347,0 2.126,0.711 0.786,0.711 0.786,1.921 0,0.69 -0.362,1.436 -0.355,0.745 -1.319,1.169 l 2.509,3.739 H 11.042 L 8.718,11.042 h -0.219 v 3.473 H 6.564 Z m 1.948,1.6 v 2.338 h 0.417 q 1.511,0 1.511,-1.237 0,-0.506 -0.396,-0.8 Q 9.654,7.139 8.957,7.139 Z m 5.435,1.511 h 1.777 v 2.816 q 0,0.608 0.308,1.019 0.314,0.403 0.772,0.403 0.485,0 0.813,-0.39 0.335,-0.396 0.335,-0.991 V 8.65 h 1.777 v 3.418 q 0,1.087 -0.834,1.825 -0.827,0.731 -2.064,0.731 -1.313,0 -2.099,-0.738 -0.786,-0.738 -0.786,-1.962 z m 7.301,-2.188 q 0,-0.444 0.321,-0.766 0.321,-0.321 0.772,-0.321 0.451,0 0.772,0.321 0.321,0.321 0.321,0.766 0,0.451 -0.321,0.772 -0.321,0.321 -0.772,0.321 -0.451,0 -0.772,-0.321 -0.321,-0.321 -0.321,-0.772 z m 0.226,2.174 h 1.75 v 5.879 h -1.75 z" />
<g id="fluff">
    <circle id="fluff-co" fill="#50aeca" cx="20" cy="62" r="40" />
    <circle id="fluff-ct" fill="#50ca77" cx="10" cy="146" r="40" />
    <circle id="fluff-b" fill="#ca50b8" cx="20" cy="228" r="40" />
    <circle id="fluff-h" fill="#b1da29" cx="10" cy="312" r="40" />
</g>
<g>
    <circle id="k:cableop" cx="15" cy="40" r="14" fill="#f22" />
    <circle id="k:trim-cableop" cx="20" cy="64" r="8.9" fill="#bd10c3" />
    <circle id="k:port-cableop" cx="15" cy="85" r="11.5" fill="#3b8ab7" />
</g>

<g transform="translate(0, 84)">
    <circle id="k:cableten" cx="15" cy="40" r="14" fill="#f22" />
    <circle id="k:trim-cableten" cx="10" cy="64" r="8.9" fill="#bd10c3" />
    <circle id="k:port-cableten" cx="15" cy="85" r="11.5" fill="#3b8ab7" />
</g>

<g transform="translate(0, 166)">
    <circle id="k:bright" cx="15" cy="40" r="14" fill="#f22" />
    <circle id="k:trim-bright" cx="20" cy="64" r="8.9" fill="#bd10c3" />
    <circle id="k:port-bright" cx="15" cy="85" r="11.5" fill="#3b8ab7" />
</g>

<g transform="translate(0, 250)">
    <circle id="k:bloom" cx="15" cy="40" r="14" fill="#f22" />
    <circle id="k:trim-bloom" cx="10" cy="64" r="8.9" fill="#bd10c3" />
    <circle id="k:port-bloom" cx="15" cy="85" r="11.5" fill="#3b8ab7" />
</g>

<g transform="translate(5, 352)">
    <circle id="k:pause" fill="#808080" cx="16" cy="8" r="8"/>
</g>

<g id="logo" aria-label="#d (pachde logo)" fill="#000000" transform="translate(7.5,366)">
  <path d="M 3.023,5.309 3.916,3.543 5.003,3.834 4.104,5.599 5.759,6.042 6.658,4.277 7.74,4.567 6.846,6.334 7.631,6.544 7.34,7.631 6.328,7.36 5.666,8.665 6.969,9.014 6.678,10.1 5.148,9.691 4.255,11.457 3.168,11.166 4.062,9.4 2.407,8.956 1.513,10.723 0.426,10.431 1.32,8.665 0.540,8.456 0.831,7.369 1.843,7.64 2.5,6.334 1.202,5.986 1.493,4.899 Z M 5.242,7.068 3.587,6.625 2.924,7.93 4.58,8.374 Z" />
  <path d="m 13.387,10.647 -0.301,1.122 -2.354,-0.631 0.155,-0.579 Q 10.064,11.035 9.304,10.831 8.394,10.587 7.993,9.687 7.593,8.787 7.874,7.736 8.160,6.669 8.969,6.104 9.78,5.534 10.665,5.771 11.516,6 11.892,6.807 L 12.306,5.262 11.547,5.058 11.847,3.937 14.161,4.557 12.587,10.433 Z M 11.402,8.697 Q 11.589,7.998 11.367,7.62 11.15,7.244 10.767,7.141 10.31,7.019 9.962,7.308 9.621,7.595 9.466,8.173 9.32,8.721 9.465,9.165 q 0.147,0.438 0.615,0.564 0.387,0.104 0.76,-0.12 0.379,-0.227 0.562,-0.912 z" />
</g>

</svg>

