<?xml version="1.0" encoding="UTF-8" standalone="no"?>
<svg width="60" height="380" viewBox="0 0 60 380"
version="1.1" xmlns="http://www.w3.org/2000/svg" xmlns:svg="http://www.w3.org/2000/svg">
<linearGradient id="pg" y2="380" gradientUnits="userSpaceOnUse">
    <stop offset="0" stop-color="#ebebeb" />
    <stop offset="1" stop-color="#ddd" />
</linearGradient>
<rect id="panel" width="60" height="380" fill="url(#pg)"/>
<rect id="mast" width="60" height="20" fill="#f9a806"/>
<path id="title" transform="translate(7.5,3.5)" fill="#000" d="M 8.08,1.34 6.36,3.22 Q 5,2.42 4.4,2.42 3.95,2.42 3.61,2.78 3.28,3.12 3.28,3.6 q 0,0.94 1.72,1.64 1.26,0.53 1.9,0.97 0.65,0.43 1.08,1.2 0.44,0.78 0.44,1.67 0,1.62 -1.34,2.92 -1.33,1.2 -3.14,1.2 -2,0 -3.9400781,-1.9 L 1.82,9.18 Q 3.04,10.4 4.1,10.4 4.6,10.4 5.06,10 5.52,9.55 5.52,9.06 5.52,8.06 3.4,7.3 2.19,6.86 1.68,6.48 1.17,6.09 0.82,5.35 0.478,4.61 0.478,3.84 0.478,2.13 1.59,1.07 2.71,0.002 4.5,0.002 q 2.13,0 3.58,1.338 z M 10.5,0.178 h 2.7 V 5.6 h 0.1 l 4.2,-5.422 h 3.4 L 16,6.3 21.1,13 H 17.8 L 13.3,7 h -0.1 v 6 h -2.7 z m 12.5,0 h 2.7 V 13 H 23 Z m 5.3,0 h 7.2 V 2.66 h -4.4 v 2.62 h 4.4 v 2.5 H 31.1 V 13 h -2.8 z m 9.6,0 h 7.2 V 2.66 h -4.5 v 2.62 h 4.5 v 2.5 H 40.7 V 13 h -2.8 z" />

<path id="k:rail-menu" transform="translate(23,26)" fill="none" stroke="#000" stroke-width=".75" d="M 2,0 h 10 v 10 h -10 z"/>

<rect id="k:unrail-btn" x="1.5" y="45" width="57" height="16" fill="none" stroke="#f22" stroke-width=".35"/>
<rect id="k:bg-btn"     x="1.5" y="62" width="57" height="16" fill="none" stroke="#f22" stroke-width=".35"/>
<rect id="k:no-panel"   x="1.5" y="79" width="57" height="16" fill="none" stroke="#f22" stroke-width=".35"/>
<rect id="k:calm-btn"   x="1.5" y="96" width="57" height="16" fill="none" stroke="#f22" stroke-width=".35"/>
<rect id="k:screw-btn"  x="1.5" y="113" width="57" height="16" fill="none" stroke="#f22" stroke-width=".35"/>
<rect id="k:nojack-btn" x="1.5" y="130" width="57" height="16" fill="none" stroke="#f22" stroke-width=".35"/>

<path id="sep" stroke="#888" stroke-width=".75" d="M 2.5,152 h 55"/>

<rect id="k:pack-btn"  x="1.5" y="159" width="57" height="16" fill="none" stroke="#f22" stroke-width=".35"/>

<path id="sep" stroke="#888" stroke-width=".75" d="M 2.5,182 h 55"/>

<g transform="translate(0,8)">
<rect id="k:repanel" x="1.5" y="180" width="57" height="16" fill="none" stroke="#f22" stroke-width=".35"/>
<path id="k:pallette-1" transform="translate(7.5,198)" fill="#808080" stroke="#80808000" stroke-width=".25" d="m 4.5,11 c -0.74,-0.03 -1.3,-0.14 -1.86,-0.34 -0.76,-0.3 -1.28,-0.81 -1.5,-1.5 -0.25,-0.74 -0.12,-1.5 0.63,-1.97 0.92,-0.57 1.13,-2.27 0.47,-2.65 -0.34,-0.19 -0.57,-0.37 -0.64,-0.66 -0.03,-0.1 -0.03,-0.31 0,-0.43 0.03,-0.13 0.1,-0.33 0.15,-0.44 0.08,-0.14 0.17,-0.27 0.36,-0.46 0.2,-0.2 0.35,-0.32 0.63036,-0.51 0.62,-0.41 1.35,-0.75 1.96,-0.9 0.59,-0.15 1.37,-0.19 2.04,-0.1 0.92,0.12 1.67,0.43 2.39,0.99 0.62,0.48 1.11,1.07 1.43,1.73 0.33,0.66 0.47,1.31 0.47,2.08 0,0.66 -0.11,1.26 -0.31,1.79 -0.16,0.42 -0.41,0.82 -0.72,1.2 -0.11,0.13 -0.4,0.43 -0.55,0.55 -0.69,0.59 -1.62,1.07 -2.63,1.36 -0.23,0.07 -0.37,0.1 -0.59,0.13 -0.55,0.09 -1.21,0.14 -1.73,0.12 z m -1.14,-1.49 c 0.47,-0.08 0.95,-0.42 1.2,-0.85 0.1,-0.18 0.15,-0.32 0.15,-0.49 0.01,-0.21 -0.04,-0.34 -0.16,-0.47 -0.12,-0.12 -0.28,-0.17 -0.49,-0.17 -0.22,0 -0.39,0.04 -0.63,0.16 -0.54,0.27 -0.92,0.78 -0.92,1.23 0,0.19 0.05,0.31 0.16,0.42 0.16,0.16 0.4,0.22 0.7,0.17 z" />
<rect id="k:swatch-1" x="28" y="200" width="24" height="8" fill="#616dc0" />
<rect id="k:op-1" x="7.5" y="212" width="45" height="6" fill="#f22" />
</g>
<path id="sep" stroke="#888" stroke-width=".75" d="M 2.5,320 h 55"/>

<circle id="k:restore" cx="30" cy="334" r="10" fill="#f22" />
<g id="restore--symbol" fill="#000" transform="translate(3.5,326)">
<path d="M 7.8,1.25 c -3.026,0.089 -5.628,2.19 -6.354,5.129 -0.726,2.939 0.598,6.01 3.234,7.498 2.636,1.488 5.951,1.035 8.092,-1.1055 L 11.713,11.713 C 10.044,13.382 7.476,13.732 5.42,12.572 3.364,11.412 2.336,9.032 2.902,6.74 3.468,4.449 5.486,2.821 7.846,2.752 10.205,2.683 12.314,4.189 13.014,6.4434 L 14.447,5.998 C 13.55,3.107 10.826,1.163 7.801,1.252 Z
    M 5.583,10.414 5.888,9.001 H 5.098 V 8.391 H 6.02 L 6.1,7.531 H 5.375 V 6.894 H 6.332 L 6.637,5.584 H 7.316 L 7.011,6.921 H 7.836 L 8.127,5.584 H 8.813 L 8.5009,6.921 H 9.291 V 7.531 H 8.369 L 8.175,8.391 H 9.014 V 9.001 H 8.05 L 7.745,10.414 H 7.073 L 7.378,9 H 6.553 L 6.255,10.414 Z M 6.699,8.391 H 7.524 L 7.69,7.531 H 6.872 Z
    M 15,4.7 l-4.41,1.37 3.39,3.129 z" />
</g>

<path id="logo" aria-label="#d (pachde logo)" fill="#000000" transform="translate(22.5,365)" d="M 3.023,5.309 3.916,3.543 5.003,3.834 4.104,5.599 5.759,6.042 6.658,4.277 7.74,4.567 6.846,6.334 7.631,6.544 7.34,7.631 6.328,7.36 5.666,8.665 6.969,9.014 6.678,10.1 5.148,9.691 4.255,11.457 3.168,11.166 4.062,9.4 2.407,8.956 1.513,10.723 0.426,10.431 1.32,8.665 0.540,8.456 0.831,7.369 1.843,7.64 2.5,6.334 1.202,5.986 1.493,4.899 Z M 5.242,7.068 3.587,6.625 2.924,7.93 4.58,8.374 Z M 13.387,10.647 l -0.301,1.122 -2.354,-0.631 0.155,-0.579 Q 10.064,11.035 9.304,10.831 8.394,10.587 7.993,9.687 7.593,8.787 7.874,7.736 8.160,6.669 8.969,6.104 9.78,5.534 10.665,5.771 11.516,6 11.892,6.807 L 12.306,5.262 11.547,5.058 11.847,3.937 14.161,4.557 12.587,10.433 Z M 11.402,8.697 Q 11.589,7.998 11.367,7.62 11.15,7.244 10.767,7.141 10.31,7.019 9.962,7.308 9.621,7.595 9.466,8.173 9.32,8.721 9.465,9.165 q 0.147,0.438 0.615,0.564 0.387,0.104 0.76,-0.12 0.379,-0.227 0.562,-0.912 z" />

</svg>

