<?xml version="1.0" encoding="UTF-8" standalone="no"?>
<svg width="60" height="380" viewBox="0 0 60 380"
version="1.1" xmlns="http://www.w3.org/2000/svg" xmlns:svg="http://www.w3.org/2000/svg">
<linearGradient id="pg" y2="380" gradientUnits="userSpaceOnUse">
    <stop offset="0" stop-color="#ebebeb" />
    <stop offset="1" stop-color="#ddd" />
</linearGradient>
<rect id="panel" width="60" height="380" fill="url(#pg)"/>
<rect id="mast" width="60" height="20" fill="#f9a806"/>
<path id="title" transform="translate(3.5,3.5)" fill="#000" d="m 6.46,1.2 -1.37,1.5 c -0.73,-0.47 -1.25,-0.7 -1.57,-0.7 -0.24,0 -0.45,0.1 -0.63,0.3 -0.17,0.2 -0.26,0.43 -0.26,0.7 0,0.47 0.46,0.9 1.37,1.3 0.67,0.27 1.18,0.53 1.52,0.8 0.35,0.2 0.63,0.5 0.86,0.9 0.24,0.4 0.36,0.87 0.36,1.4 0,0.87 -0.36,1.63 -1.07,2.3 -0.71,0.6 -1.55,0.9 -2.52,0.9 -1.06,0 -2.11,-0.5 -3.15,-1.5 l 1.45,-1.7 c 0.66,0.73 1.26,1.1 1.83,1.1 0.27,0 0.52,-0.13 0.77,-0.4 0.25,-0.27 0.37,-0.5 0.37,-0.7 0,-0.6 -0.57,-1.1 -1.7,-1.5 -0.65,-0.2 -1.1,-0.4 -1.38,-0.6 -0.27,-0.2 -0.495,-0.5 -0.683,-0.9 -0.185,-0.4 -0.277,-0.8 -0.277,-1.2 0,-0.93 0.298,-1.67 0.89,-2.2 0.6,-0.6 1.37,-0.9 2.33,-0.9 1.14,0 2.09,0.367 2.86,1.1 z m 1.72,-1.1 h 2.02 v 6.3 l 1.9,-2.6 h 2.4 l -2.2,2.9 2.4,3.8 h -2.2 l -2.3,-3.6 v 3.6 h -2.02 z m 7.52,1.2 c 0,-0.333 0.2,-0.633 0.4,-0.9 0.2,-0.2 0.5,-0.3 0.8,-0.3 0.4,0 0.7,0.1 0.9,0.3 0.3,0.267 0.4,0.567 0.4,0.9 0,0.33 -0.1,0.63 -0.4,0.9 -0.2,0.2 -0.5,0.3 -0.9,0.3 -0.3,0 -0.6,-0.1 -0.8,-0.3 -0.2,-0.27 -0.4,-0.57 -0.4,-0.9 z m 0.3,2.5 h 2 v 6.7 h -2 z m 7.7,-3.5 v 1.9 c -0.2,-0.2 -0.5,-0.3 -0.7,-0.3 -0.3,0 -0.5,0.1 -0.7,0.3 -0.2,0.2 -0.3,0.47 -0.3,0.8 v 0.8 h 1.7 v 1.8 h -1.7 v 4.9 h -2 v -4.9 h -0.6 v -1.8 h 0.6 v -0.8 c 0,-1.13 0.3,-1.93 0.7,-2.4 0.6,-0.4 1.1,-0.6 1.7,-0.6 0.6,0 1,0.1 1.3,0.3 z m 5.5,0 v 1.9 c -0.2,-0.2 -0.5,-0.3 -0.8,-0.3 -0.2,0 -0.4,0.1 -0.6,0.3 -0.2,0.2 -0.3,0.47 -0.3,0.8 v 0.8 h 1.7 v 1.8 h -1.7 v 4.9 h -2 v -4.9 h -0.6 v -1.8 h 0.6 v -0.8 c 0,-1.13 0.3,-1.93 0.7,-2.4 0.5,-0.4 1.1,-0.6 1.7,-0.6 0.6,0 1,0.1 1.3,0.3 z" />

<path id="alt--label" transform="translate(3.5,30)" d="M 0,6.27 2.39,-0.003 H 3.02 L 5.42,6.27 H 4.55 L 2.72,1.13 0.873,6.27 Z M 1.33,4.79 1.58,4.08 H 3.84 L 4.1,4.79 Z M 6.29,6.27 V -0.003 H 7.08 V 5.56 h 2.81 v 0.71 z m 4.91,0 V 0.708 H 9.1 v -0.711 h 5 V 0.708 H 12 V 6.27 Z" />
<path id="rails--label" transform="translate(32.5,30)" d="M -2.53e-8,6.38 V 0.107 H 1.87 q 0.72,0 1.18,0.216 0.46,0.207 0.68,0.603 0.23,0.394 0.23,0.944 0,0.78 -0.45,1.24 -0.45,0.45 -1.31,0.53 -0.13,0 -0.32,0 -0.19,0 -0.37,0 H 0.792 V 6.38 Z M 3.51,6.38 1.88,3.55 2.69,3.46 4.42,6.38 Z M 0.792,2.95 H 1.79 Q 2.2,2.95 2.51,2.84 2.82,2.74 2.99,2.5 3.17,2.27 3.17,1.88 3.17,1.48 2.99,1.26 2.82,1.03 2.5,0.926 2.2,0.818 1.79,0.818 H 0.792 Z M 4.82,6.38 7.22,0.107 H 7.85 L 10.2,6.38 H 9.38 L 7.54,1.24 5.7,6.38 Z M 6.16,4.9 6.4,4.19 H 8.67 L 8.93,4.9 Z M 11.1,6.38 V 0.107 h 0.8 V 6.38 Z m 2.2,0 V 0.107 h 0.8 V 5.67 h 2.8 v 0.71 z m 6.4,0.1 q -0.9,0 -1.5,-0.5 -0.7,-0.49 -0.8,-1.31 l 0.8,-0.19 q 0.1,0.63 0.5,0.96 0.4,0.33 1,0.33 0.4,0 0.7,-0.14 Q 20.6,5.5 20.8,5.26 21,5 21,4.69 21,4.36 20.8,4.14 20.6,3.92 20.3,3.76 20,3.6 19.5,3.44 19,3.24 18.6,3.01 18.2,2.77 18,2.45 17.8,2.11 17.8,1.64 q 0,-0.48 0.2,-0.849 0.3,-0.369 0.7,-0.576 0.4,-0.216 1,-0.216 0.6,0 1,0.27 0.5,0.27 0.8,0.801 L 20.8,1.46 Q 20.6,1.09 20.3,0.899 20,0.701 19.6,0.701 q -0.3,0 -0.5,0.117 -0.2,0.117 -0.4,0.322 -0.1,0.21 -0.1,0.48 0,0.29 0.2,0.49 0.1,0.2 0.4,0.36 0.3,0.15 0.8,0.31 0.5,0.21 0.9,0.45 0.4,0.24 0.6,0.59 0.2,0.33 0.2,0.82 0,0.53 -0.2,0.95 Q 21.2,6 20.8,6.25 20.3,6.48 19.7,6.48 Z" />
<path id="k:rail-menu" transform="translate(18,28)" fill="none" stroke="#000" stroke-width=".75" d="M 2,0 h 10 v 10 h -10 z"/>

<rect id="k:unrail-btn" x="1.5" y="45" width="57" height="16" fill="none" stroke="#f22" stroke-width=".35"/>
<rect id="k:no-panel"   x="1.5" y="62" width="57" height="16" fill="none" stroke="#f22" stroke-width=".35"/>
<rect id="k:calm-btn"   x="1.5" y="79" width="57" height="16" fill="none" stroke="#f22" stroke-width=".35"/>
<rect id="k:screw-btn"  x="1.5" y="96" width="57" height="16" fill="none" stroke="#f22" stroke-width=".35"/>
<rect id="k:nojack-btn" x="1.5" y="113" width="57" height="16" fill="none" stroke="#f22" stroke-width=".35"/>
<rect id="k:darkages-btn" x="1.5" y="130" width="57" height="16" fill="none" stroke="#f22" stroke-width=".35"/>

<path id="1--sep" stroke="#888" stroke-width=".75" d="M 2.5,151 h 55"/>

<rect id="k:pack-btn"  x="1.5" y="155" width="57" height="16" fill="none" stroke="#f22" stroke-width=".35"/>

<path id="2--sep" stroke="#888" stroke-width=".75" d="M 2.5,320 h 55"/>

<circle id="k:restore" cx="30" cy="334" r="10" fill="#f22" />
<g id="restore--symbol" fill="#000" transform="translate(3.5,326)">
<path d="M 7.8,1.25 c -3.026,0.089 -5.628,2.19 -6.354,5.129 -0.726,2.939 0.598,6.01 3.234,7.498 2.636,1.488 5.951,1.035 8.092,-1.1055 L 11.713,11.713 C 10.044,13.382 7.476,13.732 5.42,12.572 3.364,11.412 2.336,9.032 2.902,6.74 3.468,4.449 5.486,2.821 7.846,2.752 10.205,2.683 12.314,4.189 13.014,6.4434 L 14.447,5.998 C 13.55,3.107 10.826,1.163 7.801,1.252 Z
    M 5.583,10.414 5.888,9.001 H 5.098 V 8.391 H 6.02 L 6.1,7.531 H 5.375 V 6.894 H 6.332 L 6.637,5.584 H 7.316 L 7.011,6.921 H 7.836 L 8.127,5.584 H 8.813 L 8.5009,6.921 H 9.291 V 7.531 H 8.369 L 8.175,8.391 H 9.014 V 9.001 H 8.05 L 7.745,10.414 H 7.073 L 7.378,9 H 6.553 L 6.255,10.414 Z M 6.699,8.391 H 7.524 L 7.69,7.531 H 6.872 Z
    M 15,4.7 l-4.41,1.37 3.39,3.129 z" />
</g>

<path id="logo" aria-label="#d (pachde logo)" fill="#000" transform="translate(22.5,365)" d="M 3.023,5.309 3.916,3.543 5.003,3.834 4.104,5.599 5.759,6.042 6.658,4.277 7.74,4.567 6.846,6.334 7.631,6.544 7.34,7.631 6.328,7.36 5.666,8.665 6.969,9.014 6.678,10.1 5.148,9.691 4.255,11.457 3.168,11.166 4.062,9.4 2.407,8.956 1.513,10.723 0.426,10.431 1.32,8.665 0.540,8.456 0.831,7.369 1.843,7.64 2.5,6.334 1.202,5.986 1.493,4.899 Z M 5.242,7.068 3.587,6.625 2.924,7.93 4.58,8.374 Z M 13.387,10.647 l -0.301,1.122 -2.354,-0.631 0.155,-0.579 Q 10.064,11.035 9.304,10.831 8.394,10.587 7.993,9.687 7.593,8.787 7.874,7.736 8.160,6.669 8.969,6.104 9.78,5.534 10.665,5.771 11.516,6 11.892,6.807 L 12.306,5.262 11.547,5.058 11.847,3.937 14.161,4.557 12.587,10.433 Z M 11.402,8.697 Q 11.589,7.998 11.367,7.62 11.15,7.244 10.767,7.141 10.31,7.019 9.962,7.308 9.621,7.595 9.466,8.173 9.32,8.721 9.465,9.165 q 0.147,0.438 0.615,0.564 0.387,0.104 0.76,-0.12 0.379,-0.227 0.562,-0.912 z" />

</svg>

