<?xml version="1.0" encoding="UTF-8" standalone="no"?>
<svg
width="30" height="380" viewBox="0 0 30 380"
version="1.1"
xmlns="http://www.w3.org/2000/svg"
xmlns:svg="http://www.w3.org/2000/svg">
<defs>
<linearGradient id="pg" y2="380" gradientUnits="userSpaceOnUse">
    <stop offset="0" stop-color="#ebebeb" />
    <stop offset="1" stop-color="#ddd" />
</linearGradient>
</defs>
<rect id="panel" width="30" height="380" fill="url(#pg)"/>
<rect id="mast" width="30" height="20" fill="#f9a806"/>
<path id="title" fill="#000" d="m 7.8530273,4.4912109 -1.203125,1.319336 Q 5.699707,5.25 5.2827148,5.25 4.9614258,5.25 4.7290039,5.4960937 4.496582,5.7353516 4.496582,6.0703125 q 0,0.6630859 1.203125,1.1484375 0.881836,0.3759766 1.3330078,0.6835937 0.4511719,0.3007813 0.7519532,0.8408204 0.3076172,0.540039 0.3076172,1.1689453 0,1.1552736 -0.9365235,2.0097656 -0.9296875,0.854492 -2.2011719,0.854492 -1.3945312,0 -2.7548828,-1.3125 L 3.4711914,9.9804688 q 0.8544922,0.8818362 1.5996094,0.8818362 0.3486328,0 0.6699219,-0.307617 0.321289,-0.314454 0.321289,-0.6562505 0,-0.7041016 -1.4833984,-1.2373047 Q 3.730957,8.3535156 3.3754883,8.0869141 3.0200195,7.8134766 2.7739258,7.3007812 2.534668,6.78125 2.534668,6.2412109 q 0,-1.196289 0.7792968,-1.9414062 0.7792969,-0.7451172 2.0371094,-0.7451172 1.4902344,0 2.5019531,0.9365234 z M 9.3569336,3.5273438 h 1.7363284 v 5.5439453 l 1.736328,-2.296875 h 2.098633 L 12.97998,9.3652344 15.092285,12.65332 h -1.96875 L 11.093262,9.5429688 V 12.65332 H 9.3569336 Z m 6.6035154,1.0732421 q 0,-0.4443359 0.321289,-0.765625 0.321289,-0.321289 0.772461,-0.321289 0.451172,0 0.772461,0.321289 0.321289,0.3212891 0.321289,0.765625 0,0.4511719 -0.321289,0.772461 -0.321289,0.321289 -0.772461,0.321289 -0.451172,0 -0.772461,-0.321289 -0.321289,-0.3212891 -0.321289,-0.772461 z m 0.225586,2.1738282 h 1.75 V 12.65332 h -1.75 z m 6.81543,-3.0283203 V 5.4277344 Q 22.60498,5.1611328 22.317871,5.1611328 q -0.369141,0 -0.601562,0.2666016 -0.225586,0.2666015 -0.225586,0.6904297 v 0.65625 h 1.49707 V 8.3671875 H 21.477051 V 12.65332 h -1.75 V 8.3671875 H 19.20752 V 6.7744141 h 0.519531 V 6.0566406 q 0,-1.4970703 0.635742,-2.0234375 Q 20.998535,3.5 21.853027,3.5 q 0.676758,0 1.148438,0.2460938 z m 4.798828,0 v 1.6816406 q -0.396484,-0.2666016 -0.683594,-0.2666016 -0.36914,0 -0.601562,0.2666016 -0.225586,0.2666015 -0.225586,0.6904297 v 0.65625 h 1.49707 V 8.3671875 H 26.275879 V 12.65332 h -1.75 V 8.3671875 H 24.006348 V 6.7744141 h 0.519531 V 6.0566406 q 0,-1.4970703 0.635742,-2.0234375 Q 25.797363,3.5 26.651855,3.5 q 0.676758,0 1.148438,0.2460938 z" />
<path id="swash" transform="translate(0,1.25)" fill="#121212" d="m 5.3953154,18.012058 c 0.8332082,-0.619758 6.9512636,-2.95927 9.3258286,-3.673511 3.241892,-0.975123 7.792522,-1.419076 9.744982,-0.05941 3.592263,2.501601 1.136958,4.967614 0.816374,4.772868 -0.320584,-0.194746 0.218242,-2.099404 -2.785865,-3.477631 C 21.04146,14.906764 17.151582,15.187165 15,15.594309 12.652306,16.038563 4.0124605,19.040655 5.3953154,18.012058 Z" />

  <path id="k:rail-menu" transform="translate(8,26)" fill="none" stroke="#000" stroke-width=".75" d="M 2,0 h 10 v 10 h -10 z"/>

  <circle id="k:unrail-btn" cx="15" cy="50" r="10" fill="#f22" />
  <g id="unrail--symbol" transform="translate(7.5,60)">
    <rect x="0" y="4" width="14" height="2"/>
    <rect x="0" y="8" width="14" height="2"/>
    <line id="unrail-slash" x1="3" y1="13" x2="11" y2="1.5" stroke="#00000080" stroke-width="3">
  </g>

  <circle id="k:bg-btn" cx="15" cy="90" r="10" fill="#f22" />
  <g id="bg-pic" transform="translate(7.5,104)">
    <linearGradient id="bgg" x1="0" y1="0" x2="0" y2="10" gradientUnits="userSpaceOnUse">
        <stop offset="0" stop-color="#acd81a" />
        <stop offset="1" stop-color="#a93335" />
    </linearGradient>
    <rect fill="url(#bgg)" stroke="#202020" stroke-width=".35" x="0" y="0" width="15" height="10"/>
  </g>

  <path id="d1--sep" stroke="#888" stroke-width=".75" d="M 2.5,130 h 25"/>

  <circle id="k:calm-btn" cx="15" cy="150" r="10" fill="#f22" />
  <g id="calm-pic" transform="translate(9,162)">
      <rect x="0.75" y="0.6" width="10.5" height="8.348" fill="#c0cee9" />
      <path fill="#635cc5" d="m 1.554,5.268 c 0,0 0.666,-0.474 1.67,-0.317 1.005,0.157 1.678,0.585 3.478,0.579 C 7.987,5.525 8.372,5.197 9.175,5.08 9.98,4.96 10.479,5.064 10.479,5.064 V 8.189 H 1.52 Z" />
      <rect x="0.75" y="0.7"  width="10.5" height="8.25" fill="none" stroke="#e5e5e5" stroke-width="1.5" stroke-linejoin="miter" stroke-opacity="0.5" />
  </g>

  <circle id="k:screw-btn" cx="15" cy="186" r="10" fill="#f22" />
  <g id="unscrew" transform="translate(7.75,196)">
    <g fill="#dedede" stroke="#000000" stroke-width="0.65">
      <path d="M 15.425436,7.8085303 A 2.7158203,2.3466859 0 0 1 12.709616,10.155216 2.7158203,2.3466859 0 0 1 9.9937954,7.8085303 2.7158203,2.3466859 0 0 1 12.709616,5.4618444 2.7158203,2.3466859 0 0 1 15.425436,7.8085303 Z" />
      <path d="M 14.983646,7.6765047 A 2.3128896,1.63816 82.209365 0 1 13.618478,10.128989 2.3128896,1.63816 82.209365 0 1 11.720736,7.9874325 2.3128896,1.63816 82.209365 0 1 13.085903,5.534948 2.3128896,1.63816 82.209365 0 1 14.983646,7.6765047 Z" />
      <path d="M 14.426986,7.645123 A 2.4291327,1.6394665 83.225802 0 1 13.061819,10.222921 2.4291327,1.6394665 83.225802 0 1 11.164076,7.9719382 2.4291327,1.6394665 83.225802 0 1 12.529244,5.3941403 2.4291327,1.6394665 83.225802 0 1 14.426986,7.645123 Z" />
      <path d="M 13.205108,7.6685611 A 2.4291327,1.6394665 83.225802 0 1 11.839941,10.246359 2.4291327,1.6394665 83.225802 0 1 9.9421985,7.9953762 2.4291327,1.6394665 83.225802 0 1 11.307366,5.4175784 2.4291327,1.6394665 83.225802 0 1 13.205108,7.6685611 Z" />
      <path d="M 11.893994,7.6685606 A 2.4291327,1.6394665 83.225802 0 1 10.528827,10.246359 2.4291327,1.6394665 83.225802 0 1 8.6310845,7.9953757 2.4291327,1.6394665 83.225802 0 1 9.9962516,5.4175779 2.4291327,1.6394665 83.225802 0 1 11.893994,7.6685606 Z" />
      <path d="M 10.58288,7.6685611 A 2.4291327,1.6394665 83.225802 0 1 9.2177127,10.246359 2.4291327,1.6394665 83.225802 0 1 7.3199706,7.9953762 2.4291327,1.6394665 83.225802 0 1 8.6851377,5.4175782 2.4291327,1.6394665 83.225802 0 1 10.58288,7.6685611 Z" />
      <path d="M 9.2218682,8.0357163 c 0,2.7935757 -1.6844848,5.0616297 -3.762402,5.0658407 -2.0779172,0.0042 -1.9055633,-0.0095 -1.9055633,-0.0095 L 3.538727,2.9961978 c 0,0 1.2453504,-0.0097 1.9207392,-0.011072 2.0779172,-0.00421 3.762402,2.2570167 3.762402,5.0505926 z" />
      <ellipse cx="3.7450166" cy="8.0433397" rx="3.1182647" ry="5.0582228" />
    </g>
    <path id="unscrew-slot" fill="#000000" stroke="none" d="M 5.4622338,9.4251559 4.6801273,8.1078809 C 4.5600611,7.905665 4.5601065,7.6209517 4.6802314,7.4188017 L 5.4621752,6.1029046 c 0.034084,-0.057355 0.030395,-0.1393972 -0.0086,-0.191001 L 4.9765754,5.2804009 C 4.9376001,5.2288032 4.8756417,5.2239144 4.8323175,5.2690246 L 3.8375781,6.3045513 C 3.6848357,6.4635561 3.4697231,6.4635264 3.3170034,6.3044674 L 2.3227796,5.2690245 C 2.2794541,5.2238935 2.2174828,5.2287845 2.1785037,5.2803907 L 1.7014611,5.9119293 c -0.038976,0.051598 -0.042663,0.1336158 -0.0086,0.1909773 l 0.7820367,1.3166259 c 0.120089,0.2021733 0.120089,0.4868876 -2e-7,0.6890615 l -0.782011,1.3165847 c -0.034071,0.057367 -0.030379,0.1393853 0.0086,0.1909783 l 0.4770426,0.631539 c 0.038971,0.05159 0.1009156,0.05649 0.144237,0.01139 L 3.3175766,9.2239125 c 0.1527242,-0.1589217 0.3677467,-0.1588922 0.5204437,7.78e-5 l 0.9942643,1.0350647 c 0.043331,0.0451 0.105282,0.04023 0.1442578,-0.01139 l 0.477079,-0.631587 c 0.038971,-0.05158 0.042668,-0.1335795 0.00862,-0.1909462 z"/>
  </g>

  <circle id="k:nojack-btn" cx="15" cy="226" r="10" fill="#f22" />
  <path id="jack-glyph" transform="translate(7.5,238)" fill="#dedede" stroke="#000000" stroke-width="0.65" d="m 2.2254574,0.12901151 c -0.054275,0 -0.11045,0 -0.1682888,0.00788 -0.504115,0.057812 -0.82772,0.5200075 -1.08695623,0.92832629 C 0.71097487,1.4735277 0.46264112,1.7094515 0.18055112,1.986209 l 0.5322325,0.4992512 C 0.95974237,2.1882803 1.1748324,1.9830565 1.4192786,1.598034 1.6637261,1.2130127 1.8413311,0.97663651 2.1067174,0.94619651 c 0.3464787,-0.039738 0.4191937,0.030213 0.5637887,0.23314749 0.144595,0.2029112 0.3212025,0.60553 0.64905,1.0772475 0.3537488,0.5089812 0.8798275,0.5452087 1.3007763,0.52794 0.13567,-0.0055 0.26224,-0.0215 0.3740737,-0.039675 l -0.015237,0.546858 c -0.056575,0.219709 0.22953,0.472072 0.377165,0.472404 l 4.3558614,0.0098 c 0,0 0.2717337,-0.03651 0.2892755,-0.277092 L 10.030032,3.104939 13.13965,3.0646515 V 1.668224 l -3.109619,0.040287 0.02858,-0.3625375 C 10.087156,0.98370151 9.7986287,0.90286521 9.7986287,0.90286521 l -4.3656276,0.019538 c -0.2201,9.838e-4 -0.3946187,0.28370999 -0.4064612,0.53099999 l -0.017863,0.4705633 c -0.1133,0.021812 -0.254115,0.042587 -0.4062138,0.048825 -0.3543882,0.014537 -0.723812,-0.0912 -0.8521557,-0.27587 C 3.4692936,1.2925902 3.3236761,0.93137651 3.0963486,0.61235271 2.8974361,0.33320901 2.6053736,0.13787021 2.2254436,0.12896401 Z M 14.018155,1.659739 13.641849,1.663359 v 1.3964575 l 0.376306,-0.00362 c 0.129002,-0.088638 0.136867,-0.1421475 0.180787,-0.3350762 0.07969,-0.00687 0.132507,-0.00188 0.219178,-0.010375 v 0.087275 c 0,0.142725 0.08871,0.2575625 0.199089,0.2575625 h 0.1107 c 0.04379,0 0.08415,-0.018088 0.11695,-0.048825 0.0802,-0.049512 0.253967,-0.44978 0.335692,-0.6487913 -0.08408,-0.204745 -0.266541,-0.6394387 -0.343272,-0.6689287 -0.01213,-0.00462 -0.02371,-0.00512 -0.03571,-0.008 -0.0228,-0.01175 -0.04758,-0.018313 -0.07365,-0.018313 h -0.1107 c -0.110375,3.7e-6 -0.19909,0.1148375 -0.19909,0.2575662 v 0.00737 c -0.0066,0.021562 -0.01324,0.0433 -0.02054,0.063475 l -0.195965,-0.00362 c -0.01435,-0.2577 -0.103275,-0.2909525 -0.183468,-0.3278675 z" />

  <path id="d2--sep" stroke="#888" stroke-width=".75" d="M 2.5,256 h 25"/>

  <circle id="k:pack-btn" cx="15" cy="272" r="10" fill="#f22" />
  <g id="pack--symbol" fill="#000" transform="translate(9.25,285)">
    <path d="M 0,0 h 2.75 v 6 h -2.75 z
      M 4,0 h 2.75 v 6 h -2.75 z
      M 8,0 h 2.75 v 6 h -2.75 z
      M 0,7 h 2.75 v 6 h -2.75 z
      M 4,7 h 2.75 v 6 h -2.75 z
      M 8,7 h 2.75 v 6 h -2.75 z"/>
  </g>

  <path id="d3--sep" stroke="#888" stroke-width=".75" d="M 2.5,320 h 25"/>

  <circle id="k:from-patch-btn" cx="15" cy="334" r="10" fill="#f22" />
  <g id="from-patch--symbol" fill="#000" transform="translate(7.5,344)">
    <path d="M 7.8,1.25 c -3.026,0.089 -5.628,2.19 -6.354,5.129 -0.726,2.939 0.598,6.01 3.234,7.498 2.636,1.488 5.951,1.035 8.092,-1.1055 L 11.713,11.713 C 10.044,13.382 7.476,13.732 5.42,12.572 3.364,11.412 2.336,9.032 2.902,6.74 3.468,4.449 5.486,2.821 7.846,2.752 10.205,2.683 12.314,4.189 13.014,6.4434 L 14.447,5.998 C 13.55,3.107 10.826,1.163 7.801,1.252 Z
      M 5.583,10.414 5.888,9.001 H 5.098 V 8.391 H 6.02 L 6.1,7.531 H 5.375 V 6.894 H 6.332 L 6.637,5.584 H 7.316 L 7.011,6.921 H 7.836 L 8.127,5.584 H 8.813 L 8.5009,6.921 H 9.291 V 7.531 H 8.369 L 8.175,8.391 H 9.014 V 9.001 H 8.05 L 7.745,10.414 H 7.073 L 7.378,9 H 6.553 L 6.255,10.414 Z M 6.699,8.391 H 7.524 L 7.69,7.531 H 6.872 Z
      M 15,4.7 l-4.41,1.37 3.39,3.129 z" />
  </g>

<g id="logo" aria-label="#d (pachde logo)" fill="#000000" transform="translate(7.5,365)">
  <path d="M 3.023,5.309 3.916,3.543 5.003,3.834 4.104,5.599 5.759,6.042 6.658,4.277 7.74,4.567 6.846,6.334 7.631,6.544 7.34,7.631 6.328,7.36 5.666,8.665 6.969,9.014 6.678,10.1 5.148,9.691 4.255,11.457 3.168,11.166 4.062,9.4 2.407,8.956 1.513,10.723 0.426,10.431 1.32,8.665 0.540,8.456 0.831,7.369 1.843,7.64 2.5,6.334 1.202,5.986 1.493,4.899 Z M 5.242,7.068 3.587,6.625 2.924,7.93 4.58,8.374 Z M 13.387,10.647 l -0.301,1.122 -2.354,-0.631 0.155,-0.579 Q 10.064,11.035 9.304,10.831 8.394,10.587 7.993,9.687 7.593,8.787 7.874,7.736 8.160,6.669 8.969,6.104 9.78,5.534 10.665,5.771 11.516,6 11.892,6.807 L 12.306,5.262 11.547,5.058 11.847,3.937 14.161,4.557 12.587,10.433 Z M 11.402,8.697 Q 11.589,7.998 11.367,7.62 11.15,7.244 10.767,7.141 10.31,7.019 9.962,7.308 9.621,7.595 9.466,8.173 9.32,8.721 9.465,9.165 q 0.147,0.438 0.615,0.564 0.387,0.104 0.76,-0.12 0.379,-0.227 0.562,-0.912 z" />
</g>

</svg>

