<?xml version="1.0" encoding="UTF-8"?>
<svg width="165" height="380" viewBox="0 0 165 380" version="1.1" xmlns="http://www.w3.org/2000/svg" xmlns:svg="http://www.w3.org/2000/svg">
<rect id="fancy-panel" fill="#111" width="100%" height="100%" x="0" y="0" />
<path id="border" fill="none" stroke="#666" stroke-width="1" d="m.5,.5 h 164 v 379 h-164" />
<rect fill="#f62222" id="k:close" width="12" height="12" x="8" y="3.5" />

<g transform="translate(0,18)">
    <rect fill="#222" x="3.5" y="0" width="157" height="48"/>
    <rect id="k:fill-check" fill="#a6a6a6" x="7.5" y="0" width="14" height="14" />
    <rect id="k:fill-group" fill="#a6a6a6" width="14" height="30" x="7.5" y="15" />
    <circle id="k:fill-co" fill="#d65cab" cx="36" cy="14" r="10" />
    <circle id="k:fill-fade" fill="#5c95d6" cx="64" cy="14" r="14" />
    <rect id="k:fill-fade-label" fill="#aaaa" x="49" y="31" width="30" height="14"/>
</g>

<g transform="translate(0,68)">
    <rect fill="#222" x="3.5" y="0" width="157" height="102"/>
    <rect id="k:lg-check" fill="#a6a6a6" x="7.5" y="0" width="14" height="14" />
    <rect id="k:lg-group" fill="#a6a6a6" x="7.5" y="15" width="14" height="86" />
    <g transform="translate(0,2)">
        <circle id="k:lg-start-co"   fill="#d65cab" cx="36" cy="14" r="10" />
        <circle id="k:lg-start-fade" fill="#5c95d6" cx="64" cy="14" r="14" />
        <circle id="k:lg-start-x"    fill="#5c95d6" cx="104" cy="14" r="14" />
        <circle id="k:lg-start-y"    fill="#5c95d6" cx="144" cy="14" r="14" />
        <rect id="k:lg-start-fade-label" fill="#aaaa" x="49" y="31" width="30" height="14"/>
        <rect id="k:lg-x1-label" fill="#aaaa" x="92" y="31" width="26" height="14"/>
        <rect id="k:lg-y1-label" fill="#aaaa" x="132" y="31" width="26" height="14"/>
    </g>
    <g transform="translate(0,52)">
        <circle id="k:lg-end-co"   fill="#d65cab" cx="36" cy="14" r="10" />
        <circle id="k:lg-end-fade" fill="#5c95d6" cx="64" cy="14" r="14" />
        <circle id="k:lg-end-x"    fill="#5c95d6" cx="104" cy="14" r="14" />
        <circle id="k:lg-end-y"    fill="#5c95d6" cx="144" cy="14" r="14" />
        <rect id="k:lg-end-fade-label" fill="#aaaa" x="49" y="31" width="30" height="14"/>
        <rect id="k:lg-x2-label" fill="#aaaa" x="92" y="31" width="26" height="14"/>
        <rect id="k:lg-y2-label" fill="#aaaa" x="132" y="31" width="26" height="14"/>
    </g>
</g>

<g transform="translate(0,172)">
    <rect fill="#222" x="3.5" y="0" width="157" height="102"/>
    <rect id="k:rg-check" fill="#a6a6a6" x="7.5" y="0" width="14" height="14" />
    <rect id="k:rg-group" fill="#a6a6a6" x="7.5" y="15" width="14" height="86" />
    <g transform="translate(0,2)">
        <circle id="k:rg-inner-co" fill="#d65cab" cx="36" cy="14" r="10" />
        <circle id="k:rg-inner-fade" fill="#5c95d6" cx="64" cy="14" r="14" />
        <circle id="k:rg-cx" fill="#5c95d6" cx="104" cy="14" r="14" />
        <circle id="k:rg-cy" fill="#5c95d6" cx="144" cy="14" r="14" />
        <rect id="k:rg-inner-fade-label" fill="#aaaa" x="49" y="31" width="30" height="14"/>
        <rect id="k:rg-cx-label" fill="#aaaa" x="92" y="31" width="24" height="14"/>
        <rect id="k:rg-cy-label" fill="#aaaa" x="132" y="31" width="24" height="14"/>
    </g>
    <g transform="translate(0,52)">
        <circle id="k:rg-outer-co" fill="#d65cab" cx="36" cy="14" r="10" />
        <circle id="k:rg-outer-fade" fill="#5c95d6" cx="64" cy="14" r="14" />
        <circle id="k:rg-radius" fill="#5c95d6" cx="104" cy="14" r="14" />
        <rect id="k:rg-outer-fade-label" fill="#aaaa" x="49" y="31" width="30" height="14"/>
        <rect id="k:rg-radius-label" fill="#aaaa" x="88" y="31" width="32" height="14"/>
    </g>
</g>

<g transform="translate(0,276)">
    <rect fill="#222" x="3.5" y="0" width="157" height="102"/>
    <rect id="k:bg-check" fill="#a6a6a6" x="7.5" y="0" width="14" height="14" />
    <rect id="k:bg-group" fill="#a6a6a6" x="7.5" y="16" width="14" height="86" />
    <g transform="translate(0,2)">
        <circle id="k:bg-inner-co" fill="#d65cab" cx="36" cy="14" r="10" />
        <circle id="k:bg-inner-fade" fill="#5c95d6" cx="64" cy="14" r="14" />
        <circle id="k:bg-shrink-x" fill="#5c95d6" cx="104" cy="14" r="14" />
        <circle id="k:bg-shrink-y" fill="#5c95d6" cx="144" cy="14" r="14" />
        <rect id="k:bg-inner-fade-label" fill="#aaaa" x="49" y="31" width="30" height="14"/>
        <rect id="k:bg-shrink-x-label" fill="#aaaa" x="95" y="31" width="18" height="14"/>
        <rect id="k:bg-shrink-label" fill="#a8aa" x="109" y="31" width="30" height="14"/>
        <rect id="k:bg-shrink-y-label" fill="#aaaa" x="135" y="31" width="18" height="14"/>
    </g>
    <g  transform="translate(0,52)">
        <circle id="k:bg-outer-co" fill="#d65cab" cx="36" cy="14" r="10" />
        <circle id="k:bg-outer-fade" fill="#5c95d6" cx="64" cy="14" r="14" />
        <circle id="k:bg-radius" fill="#5c95d6" cx="104" cy="14" r="14" />
        <circle id="k:bg-feather" fill="#5c95d6" cx="144" cy="14" r="14" />
        <rect id="k:bg-outer-fade-label" fill="#aaaa" x="49" y="31" width="30" height="14"/>
        <rect id="k:bg-radius-label" fill="#aaaa" x="88" y="31" width="32" height="14"/>
        <rect id="k:bg-feather-label" fill="#aaaa" x="123" y="31" width="40" height="14"/>
    </g>
</g>

<path id="cv-label" fill="#c19a3e" transform="translate(140,3)" d="m -1.71,10.3 q -1.16,0 -2.03,-0.5 -0.87,-0.54 -1.36,-1.51 -0.48,-0.98 -0.48,-2.28 0,-1.29 0.48,-2.27 0.49,-0.97 1.36,-1.51 0.87,-0.54 2.03,-0.54 1.256,0 2.18,0.63 0.92,0.62 1.33,1.72 l -0.982,0.38 q -0.312,-0.82 -0.96,-1.26 -0.648,-0.46 -1.568,-0.46 -0.86,0 -1.49,0.41 -0.64,0.41 -0.99,1.15 -0.33,0.73 -0.33,1.75 0,1.02 0.33,1.77 0.35,0.74 0.99,1.15 0.63,0.41 1.49,0.41 0.92,0 1.568,-0.46 0.648,-0.46 0.96,-1.26 l 0.982,0.36 q -0.41,1.09 -1.33,1.73 -0.924,0.59 -2.18,0.59 z m 7.38,-0.1 -3.34,-8.36 h 1.16 l 2.74,7.08 h -0.3 l 2.7,-7.08 h 1.16 l -3.31,8.36 z"/>
<path id="cv-togggle" fill="#f4f455"  d="M 152.054 3.49965 L 152.054 13.3707 L 162.05 8.456 Z" />
<rect id="cv-line" fill="#f4f455" opacity=".35" width=".75" height="380" x="164.25" y="0" />
</svg>
