<?xml version="1.0" encoding="UTF-8" standalone="no"?>
<svg width="35" height="35" viewBox="0 0 35 35" version="1.1" xmlns="http://www.w3.org/2000/svg"
    xmlns:svg="http://www.w3.org/2000/svg">
<path fill="#808080" d="M 24.68,2.39 H 10.32 c -0.95,0-1.83,0.51-2.31,1.33 L 0.82,16.17 c -0.48,0.82-0.48,1.84,0,2.66 l 7.18,12.44 c 0.476,0.82,1.36,1.33,2.3,1.33 h 14.37 c 0.95,0,1.83-0.5,2.3-1.33 l 7.18-12.44 c 0.48-0.82,0.48-1.84,0-2.66 L 26.99,3.72 C 26.52,2.9,25.63,2.39,24.68,2.39 z" />
<polygon fill="#eeeeee" points="25.79,3.14 9.2,3.14 0.91,17.5 9.2,31.86 25.79,31.86 34.08,17.5" />
<circle fill="#0d0d0d" cx="17.5" cy="17.4" r="12" />
<circle fill="#333333" cx="17.5" cy="17.4" r="9.8" />
<circle fill="#4c4c4c" cx="17.5" cy="17.4" r="6.9" />
<circle fill="#000000" cx="17.5" cy="17.4" r="5.2" />
<path fill="#ffffff" d="M 25.79,3.14 c 0,0.49-3.71,0.88-8.29,0.88 S 9.2,3.62,9.21,3.14 H 25.79 z" />
<path fill="#c1c1c1" d="m 25.79,31.86 c 0,-0.49 -3.71,-0.88 -8.29,-0.88 -4.58,0 -8.29163,0.39 -8.29,0.88 z" />
<path fill="#dad9d9" d="m 34.15,17.56 c -0.42,-0.24 -2.62,2.77 -4.9,6.74 -2.29,4 -3.8,7.38 -3.38,7.62 z" />
<path fill="#dad9d9" d="M 34.15,17.5 c -0.42,0.24 -2.62 -2.77 -4.9 -6.74 s -3.8 -7.38 -3.38 -7.62 L 34.15,17.5 z" />
<path fill="#dad9d9" d="M 0.913,17.56 c 0.42,-0.24 2.62,2.77 4.9,6.74 2.29,3.97 3.8,7.38 3.38,7.62 z" />
<path fill="#ffffff" d="M 0.913,17.5 c 0.42,0.24 2.62-2.77,4.9-6.74 s 3.8-7.38,3.38-7.62.913,17.5 z" />
</svg>