<?xml version="1.0" encoding="UTF-8" ?>
<svg width="33" height="33" viewBox="0 0 33 33" version="1.0" xmlns="http://www.w3.org/2000/svg" xmlns:svg="http://www.w3.org/2000/svg">
<path id="heart" fill="#ffffff" transform="matrix(2.08,0,0,2.27,3.9,4.32)" d="m 3.37,0.711 h -0.23 c -0.26,0.01 -0.51,0.09 -0.81,0.221 -0.31,0.138 -0.65,0.328 -0.97,0.598 -0.655,0.53 -1.258,1.38 -1.256,2.52 0,2.15 1.376,3.48 1.916,4.02 1.26,1.26 2.5,2.13 3.66,3.23 0.11,0.1 0.32,0.4 0.32,0.4 0,0 0.21,-0.3 0.33,-0.4 1.18,-1.1 2.4,-1.97 3.66,-3.23 0.51,-0.54 1.91,-1.87 1.91,-4.02 0,-1.14 -0.6,-1.99 -1.2,-2.52 -0.4,-0.27 -0.71,-0.46 -1.01,-0.598 -0.31,-0.134 -0.56,-0.211 -0.82,-0.221 -0.62,-0.02 -1.18,0.06 -1.74,0.285 -0.35,0.144 -0.67,0.394 -0.95,0.604 -0.1,0.1 -0.12,0.1 -0.17,0.14 -0.1,-0.1 -0.11,-0.1 -0.18,-0.14 -0.28,-0.21 -0.6,-0.46 -0.95,-0.604 -0.48,-0.195 -0.98,-0.285 -1.51,-0.289 z" />
</svg>
