<?xml version="1.0" encoding="UTF-8"?>
<svg width="33" height="33" viewBox="0 0 33 33" version="1.0" xmlns="http://www.w3.org/2000/svg" xmlns:svg="http://www.w3.org/2000/svg">
<path id="spade" fill="#ffffff" transform="translate(-1.4)" d="m 17.9,3.88 -8.57,6.22 c -2.48,1.4 -4.01,4 -4.03,6.9 0,4.4 3.58,8 8,8 1.2,0 2.4,-0.3 3.5,-0.8 v 2.9 c -1.9,0.3 -4,0.6 -6.3,0.8 0.3,1 0.4,1.9 0.4,2.9 4.7,-0.4 9.4,-0.4 14,0 0,-1 0.2,-2 0.6,-2.9 -2.3,-0.1 -4.4,-0.4 -6.7,-0.8 v -2.9 c 1.1,0.5 2.4,0.8 3.6,0.8 4.4,0 8,-3.6 8,-8 0,-2.6 -1.3,-5 -3.4,-6.5 v 0 z" />
</svg>
