<?xml version="1.0" encoding="UTF-8" ?>
<svg width="33" height="33" viewBox="0 0 33 33" version="1.0" xmlns="http://www.w3.org/2000/svg" xmlns:svg="http://www.w3.org/2000/svg">
<path id="clubs" fill="#ffffff" d="m 10.9,9.89 c -3.63,-0.48 -6.74,2.21 -6.82,7.31 0,2.1 0.73,3.6 2.24,5.1 1.51,1.5 3.55,2.3 5.68,2.3 1.2,0 2.3,-0.3 3.4,-0.8 0.2,0.8 0.3,2 0,3.6 l -4.3,0.4 c -1.28,1 -1,2.5 0.4,2.9 4.9,-0.4 5.3,-0.4 10,0 1.5,-0.5 1.8,-2.1 0.4,-2.9 l -4.1,-0.3 c -0.3,-1.4 -0.2,-2.8 0,-3.7 1.1,0.5 2.2,0.8 3.4,0.8 2.1,0 4.2,-0.8 5.7,-2.3 1.5,-1.5 2.2,-3 2.2,-5.1 -0.1,-5.1 -3.2,-7.77 -6.8,-7.29 1.1,-4.66 -1.8,-6.62 -5.7,-6.63 -3.9,-0 -6.83,1.95 -5.7,6.61 z" />
</svg>
