<?xml version="1.0" encoding="UTF-8" standalone="no"?>
<!-- Created with Inkscape (http://www.inkscape.org/) -->

<svg width="20" height="20" viewBox="0 0 20 20" version="1.1" id="svg1" inkscape:version="1.3.2 (091e20e, 2023-11-25, custom)" sodipodi:docname="palette-20.svg" xmlns:inkscape="http://www.inkscape.org/namespaces/inkscape" xmlns:sodipodi="http://sodipodi.sourceforge.net/DTD/sodipodi-0.dtd" xmlns="http://www.w3.org/2000/svg" xmlns:svg="http://www.w3.org/2000/svg">
  <sodipodi:namedview id="namedview1" pagecolor="#ffffff" bordercolor="#666666" borderopacity="1.0" inkscape:showpageshadow="2" inkscape:pageopacity="0.0" inkscape:pagecheckerboard="0" inkscape:deskcolor="#363636" inkscape:document-units="px" inkscape:zoom="43.6" inkscape:cx="2.19" inkscape:cy="15.6" inkscape:window-width="3840" inkscape:window-height="2054" inkscape:window-x="2869" inkscape:window-y="-11" inkscape:window-maximized="1" inkscape:current-layer="layer1" />
  <defs id="defs1" />
  <g inkscape:label="Layer 1" inkscape:groupmode="layer" id="layer1">
    <path id="path4-6" style="fill:#5c95d6;stroke-width:2.498;paint-order:fill markers stroke" d="m 9,0 c -2,0 -5,1 -6,3 -1,2 2,2 2,5 0,2 -4,2 -4,6 0,3 4,6 8,6 6,0 10,-4 10,-10 0,-6 -4,-10 -10,-10 z m -1.16,11.2 c 0.44,0 0.83,0.1 1.05,0.4 0.6,0.8 -0.37,2.1 -1.25,2.7 -0.88,0.6 -2.89,1.3 -3.52,0.4 -0.63,-0.9 0.64,-2.2 1.54,-2.8 0.56,-0.4 1.45,-0.7 2.18,-0.7 z" />
  </g>
</svg>
