<?xml version="1.0" encoding="UTF-8" standalone="no"?>
<!-- Created with Inkscape (http://www.inkscape.org/) -->

<svg
   width="30"
   height="380"
   viewBox="0 0 30 380"
   version="1.1"
   id="svg1"
   inkscape:version="1.4.2 (f4327f4, 2025-05-13)"
   sodipodi:docname="scratch.svg"
   xmlns:inkscape="http://www.inkscape.org/namespaces/inkscape"
   xmlns:sodipodi="http://sodipodi.sourceforge.net/DTD/sodipodi-0.dtd"
   xmlns="http://www.w3.org/2000/svg"
   xmlns:svg="http://www.w3.org/2000/svg">
  <sodipodi:namedview
     id="namedview1"
     pagecolor="#ffffff"
     bordercolor="#666666"
     borderopacity="1.0"
     inkscape:showpageshadow="2"
     inkscape:pageopacity="0.0"
     inkscape:pagecheckerboard="0"
     inkscape:deskcolor="#404040"
     inkscape:document-units="px"
     inkscape:zoom="37.747369"
     inkscape:cx="17.365449"
     inkscape:cy="13.020775"
     inkscape:window-width="3840"
     inkscape:window-height="2054"
     inkscape:window-x="2869"
     inkscape:window-y="-11"
     inkscape:window-maximized="1"
     inkscape:current-layer="layer1"
     showguides="true"
     showgrid="false" />
  <defs
     id="defs1" />
  <g
     inkscape:label="Layer 1"
     inkscape:groupmode="layer"
     id="layer1">
    <linearGradient
       id="pg"
       y2="285.47687"
       gradientUnits="userSpaceOnUse"
       x2="15.800335">
      <stop
         offset="0"
         stop-color="#282828"
         id="stop1" />
      <stop
         offset="1"
         stop-color="#181818"
         id="stop2" />
    </linearGradient>
    <rect
       id="panel"
       width="30"
       height="380"
       fill="url(#pg)"
       style="fill-opacity:1" />
    <g
       id="g3"
       transform="translate(0,0)">
      <rect
         id="mast"
         width="30"
         height="20"
         fill="#f9a806"
         x="0"
         y="0" />
    </g>
    <g
       stroke="#f22"
       id="g2">
      <circle
         stroke-width="2.5"
         cx="15"
         cy="118.5"
         r="10"
         id="circle1"
         style="display:inline" />
      <path
         stroke-width="2"
         d="M 10,114 l 10,10 M 20,114 l -10,10"
         id="path2" />
    </g>
    <path id="Rui" d="m 6.5644531,5.5395508 h 2.953125 q 1.3466799,0 2.1259769,0.7109375 0.786133,0.7109375 0.786133,1.9208984 0,0.6904297 -0.362305,1.4355469 -0.355469,0.7451174 -1.319336,1.1689454 l 2.508789,3.739258 H 11.041992 L 8.7177734,11.04248 h -0.21875 v 3.472657 H 6.5644531 Z m 1.9482422,1.5996094 v 2.3378906 h 0.4169922 q 1.5107425,0 1.5107425,-1.2373047 0,-0.5058594 -0.396485,-0.7998047 Q 9.6542969,7.1391602 8.9570313,7.1391602 Z m 5.4345707,1.5107421 h 1.777343 v 2.8164067 q 0,0.608398 0.307618,1.018554 0.314453,0.403321 0.77246,0.403321 0.485352,0 0.813477,-0.389649 0.334961,-0.396484 0.334961,-0.991211 V 8.6499023 h 1.777344 v 3.4179687 q 0,1.086914 -0.833985,1.825195 -0.827148,0.731446 -2.064453,0.731446 -1.3125,0 -2.098633,-0.738282 -0.786132,-0.738281 -0.786132,-1.961914 z m 7.300781,-2.1875 q 0,-0.4443359 0.321289,-0.765625 0.321289,-0.321289 0.772461,-0.321289 0.451172,0 0.772461,0.321289 0.321289,0.3212891 0.321289,0.765625 0,0.4511719 -0.321289,0.772461 -0.321289,0.321289 -0.772461,0.321289 -0.451172,0 -0.772461,-0.321289 -0.321289,-0.3212891 -0.321289,-0.772461 z m 0.225586,2.1738282 h 1.75 v 5.8789065 h -1.75 z" />
  </g>
</svg>
