<?xml version="1.0" encoding="UTF-8" standalone="no"?>
<!-- Created with Inkscape (http://www.inkscape.org/) -->

<svg
   width="40"
   height="40"
   viewBox="0 0 40 40"
   version="1.1"
   id="svg1"
   inkscape:version="1.4.2 (f4327f4, 2025-05-13)"
   sodipodi:docname="scratch.svg"
   xmlns:inkscape="http://www.inkscape.org/namespaces/inkscape"
   xmlns:sodipodi="http://sodipodi.sourceforge.net/DTD/sodipodi-0.dtd"
   xmlns="http://www.w3.org/2000/svg"
   xmlns:svg="http://www.w3.org/2000/svg">
  <sodipodi:namedview
     id="namedview1"
     pagecolor="#ffffff"
     bordercolor="#666666"
     borderopacity="1.0"
     inkscape:showpageshadow="2"
     inkscape:pageopacity="0.0"
     inkscape:pagecheckerboard="0"
     inkscape:deskcolor="#404040"
     inkscape:document-units="px"
     inkscape:zoom="6.6728552"
     inkscape:cx="28.848221"
     inkscape:cy="114.56865"
     inkscape:window-width="3840"
     inkscape:window-height="2054"
     inkscape:window-x="2869"
     inkscape:window-y="-11"
     inkscape:window-maximized="1"
     inkscape:current-layer="layer1"
     showguides="true"
     showgrid="false" />
  <defs
     id="defs1" />
  <g
     inkscape:label="Layer 1"
     inkscape:groupmode="layer"
     id="layer1">
    <linearGradient
       id="pg"
       x2="0"
       y2="380"
       gradientUnits="userSpaceOnUse">
      <stop
         offset="0"
         stop-color="#282828"
         id="stop1" />
      <stop
         offset="1"
         stop-color="#181818"
         id="stop2" />
    </linearGradient>
    <rect
       id="panel"
       width="150"
       height="380"
       fill="url(#pg)"
       style="fill:url(#pg);fill-opacity:1;stroke-width:1"
       x="0"
       y="0"
       sodipodi:insensitive="true" />
    <g id="unscrew--symbol" transform="translate(0,0)">
        <g fill="#dedede" stroke="#000000" stroke-width="0.65">
        <path d="M 15.425436,7.8085303 A 2.7158203,2.3466859 0 0 1 12.709616,10.155216 2.7158203,2.3466859 0 0 1 9.9937954,7.8085303 2.7158203,2.3466859 0 0 1 12.709616,5.4618444 2.7158203,2.3466859 0 0 1 15.425436,7.8085303 Z" />
        <path d="M 14.983646,7.6765047 A 2.3128896,1.63816 82.209365 0 1 13.618478,10.128989 2.3128896,1.63816 82.209365 0 1 11.720736,7.9874325 2.3128896,1.63816 82.209365 0 1 13.085903,5.534948 2.3128896,1.63816 82.209365 0 1 14.983646,7.6765047 Z" />
        <path d="M 14.426986,7.645123 A 2.4291327,1.6394665 83.225802 0 1 13.061819,10.222921 2.4291327,1.6394665 83.225802 0 1 11.164076,7.9719382 2.4291327,1.6394665 83.225802 0 1 12.529244,5.3941403 2.4291327,1.6394665 83.225802 0 1 14.426986,7.645123 Z" />
        <path d="M 13.205108,7.6685611 A 2.4291327,1.6394665 83.225802 0 1 11.839941,10.246359 2.4291327,1.6394665 83.225802 0 1 9.9421985,7.9953762 2.4291327,1.6394665 83.225802 0 1 11.307366,5.4175784 2.4291327,1.6394665 83.225802 0 1 13.205108,7.6685611 Z" />
        <path d="M 11.893994,7.6685606 A 2.4291327,1.6394665 83.225802 0 1 10.528827,10.246359 2.4291327,1.6394665 83.225802 0 1 8.6310845,7.9953757 2.4291327,1.6394665 83.225802 0 1 9.9962516,5.4175779 2.4291327,1.6394665 83.225802 0 1 11.893994,7.6685606 Z" />
        <path d="M 10.58288,7.6685611 A 2.4291327,1.6394665 83.225802 0 1 9.2177127,10.246359 2.4291327,1.6394665 83.225802 0 1 7.3199706,7.9953762 2.4291327,1.6394665 83.225802 0 1 8.6851377,5.4175782 2.4291327,1.6394665 83.225802 0 1 10.58288,7.6685611 Z" />
        <path d="M 9.2218682,8.0357163 c 0,2.7935757 -1.6844848,5.0616297 -3.762402,5.0658407 -2.0779172,0.0042 -1.9055633,-0.0095 -1.9055633,-0.0095 L 3.538727,2.9961978 c 0,0 1.2453504,-0.0097 1.9207392,-0.011072 2.0779172,-0.00421 3.762402,2.2570167 3.762402,5.0505926 z" />
        <ellipse cx="3.7450166" cy="8.0433397" rx="3.1182647" ry="5.0582228" />
        </g>
        <path id="slot" fill="#000000" stroke="none" d="M 5.4622338,9.4251559 4.6801273,8.1078809 C 4.5600611,7.905665 4.5601065,7.6209517 4.6802314,7.4188017 L 5.4621752,6.1029046 c 0.034084,-0.057355 0.030395,-0.1393972 -0.0086,-0.191001 L 4.9765754,5.2804009 C 4.9376001,5.2288032 4.8756417,5.2239144 4.8323175,5.2690246 L 3.8375781,6.3045513 C 3.6848357,6.4635561 3.4697231,6.4635264 3.3170034,6.3044674 L 2.3227796,5.2690245 C 2.2794541,5.2238935 2.2174828,5.2287845 2.1785037,5.2803907 L 1.7014611,5.9119293 c -0.038976,0.051598 -0.042663,0.1336158 -0.0086,0.1909773 l 0.7820367,1.3166259 c 0.120089,0.2021733 0.120089,0.4868876 -2e-7,0.6890615 l -0.782011,1.3165847 c -0.034071,0.057367 -0.030379,0.1393853 0.0086,0.1909783 l 0.4770426,0.631539 c 0.038971,0.05159 0.1009156,0.05649 0.144237,0.01139 L 3.3175766,9.2239125 c 0.1527242,-0.1589217 0.3677467,-0.1588922 0.5204437,7.78e-5 l 0.9942643,1.0350647 c 0.043331,0.0451 0.105282,0.04023 0.1442578,-0.01139 l 0.477079,-0.631587 c 0.038971,-0.05158 0.042668,-0.1335795 0.00862,-0.1909462 z"/>
    </g>
    </g>
</svg>
