<?xml version="1.0" encoding="UTF-8" standalone="no"?>
<!-- Created with Inkscape (http://www.inkscape.org/) -->

<svg
   width="30"
   height="380"
   viewBox="0 0 30 380"
   version="1.1"
   id="svg1"
   inkscape:version="1.4.2 (f4327f4, 2025-05-13)"
   sodipodi:docname="scratch.svg"
   xmlns:inkscape="http://www.inkscape.org/namespaces/inkscape"
   xmlns:sodipodi="http://sodipodi.sourceforge.net/DTD/sodipodi-0.dtd"
   xmlns="http://www.w3.org/2000/svg"
   xmlns:svg="http://www.w3.org/2000/svg">
  <sodipodi:namedview
     id="namedview1"
     pagecolor="#ffffff"
     bordercolor="#666666"
     borderopacity="1.0"
     inkscape:showpageshadow="2"
     inkscape:pageopacity="0.0"
     inkscape:pagecheckerboard="0"
     inkscape:deskcolor="#404040"
     inkscape:document-units="px"
     inkscape:zoom="75.494737"
     inkscape:cx="15.252719"
     inkscape:cy="6.3249442"
     inkscape:window-width="3840"
     inkscape:window-height="2054"
     inkscape:window-x="2869"
     inkscape:window-y="-11"
     inkscape:window-maximized="1"
     inkscape:current-layer="g2"
     showguides="true"
     showgrid="false" />
  <defs
     id="defs1" />
  <g
     inkscape:label="Layer 1"
     inkscape:groupmode="layer"
     id="layer1">
    <linearGradient
       id="pg"
       y2="285.47687"
       gradientUnits="userSpaceOnUse"
       x2="15.800335">
      <stop
         offset="0"
         stop-color="#282828"
         id="stop1" />
      <stop
         offset="1"
         stop-color="#181818"
         id="stop2" />
    </linearGradient>
    <rect
       id="panel"
       width="30"
       height="380"
       fill="url(#pg)"
       style="fill-opacity:1" />
    <g
       id="g3"
       transform="translate(0,0)">
      <rect
         id="mast"
         width="30"
         height="20"
         fill="#f9a806"
         x="0"
         y="0" />
      <path
         d="m 7.8530273,4.4912109 -1.203125,1.319336 Q 5.699707,5.25 5.2827148,5.25 4.9614258,5.25 4.7290039,5.4960937 4.496582,5.7353516 4.496582,6.0703125 q 0,0.6630859 1.203125,1.1484375 0.881836,0.3759766 1.3330078,0.6835937 0.4511719,0.3007813 0.7519532,0.8408204 0.3076172,0.540039 0.3076172,1.1689453 0,1.1552736 -0.9365235,2.0097656 -0.9296875,0.854492 -2.2011719,0.854492 -1.3945312,0 -2.7548828,-1.3125 L 3.4711914,9.9804688 q 0.8544922,0.8818362 1.5996094,0.8818362 0.3486328,0 0.6699219,-0.307617 0.321289,-0.314454 0.321289,-0.6562505 0,-0.7041016 -1.4833984,-1.2373047 Q 3.730957,8.3535156 3.3754883,8.0869141 3.0200195,7.8134766 2.7739258,7.3007812 2.534668,6.78125 2.534668,6.2412109 q 0,-1.196289 0.7792968,-1.9414062 0.7792969,-0.7451172 2.0371094,-0.7451172 1.4902344,0 2.5019531,0.9365234 z M 9.3569336,3.5273438 h 1.7363284 v 5.5439453 l 1.736328,-2.296875 h 2.098633 L 12.97998,9.3652344 15.092285,12.65332 h -1.96875 L 11.093262,9.5429688 V 12.65332 H 9.3569336 Z m 6.6035154,1.0732421 q 0,-0.4443359 0.321289,-0.765625 0.321289,-0.321289 0.772461,-0.321289 0.451172,0 0.772461,0.321289 0.321289,0.3212891 0.321289,0.765625 0,0.4511719 -0.321289,0.772461 -0.321289,0.321289 -0.772461,0.321289 -0.451172,0 -0.772461,-0.321289 -0.321289,-0.3212891 -0.321289,-0.772461 z m 0.225586,2.1738282 h 1.75 V 12.65332 h -1.75 z m 6.81543,-3.0283203 V 5.4277344 Q 22.60498,5.1611328 22.317871,5.1611328 q -0.369141,0 -0.601562,0.2666016 -0.225586,0.2666015 -0.225586,0.6904297 v 0.65625 h 1.49707 V 8.3671875 H 21.477051 V 12.65332 h -1.75 V 8.3671875 H 19.20752 V 6.7744141 h 0.519531 V 6.0566406 q 0,-1.4970703 0.635742,-2.0234375 Q 20.998535,3.5 21.853027,3.5 q 0.676758,0 1.148438,0.2460938 z m 4.798828,0 v 1.6816406 q -0.396484,-0.2666016 -0.683594,-0.2666016 -0.36914,0 -0.601562,0.2666016 -0.225586,0.2666015 -0.225586,0.6904297 v 0.65625 h 1.49707 V 8.3671875 H 26.275879 V 12.65332 h -1.75 V 8.3671875 H 24.006348 V 6.7744141 h 0.519531 V 6.0566406 q 0,-1.4970703 0.635742,-2.0234375 Q 25.797363,3.5 26.651855,3.5 q 0.676758,0 1.148438,0.2460938 z"
         id="text4"
         style="font-weight:bold;font-size:14px;line-height:1.25;font-family:'Tw Cen MT';-inkscape-font-specification:'Tw Cen MT Bold';font-variant-ligatures:none;text-orientation:upright;fill:#000000"
         aria-label="Skiff" />
      <path
         fill="#000000"
         d="m 5.3953154,18.012058 c 0.8332082,-0.619758 6.9512636,-2.95927 9.3258286,-3.673511 3.241892,-0.975123 7.792522,-1.419076 9.744982,-0.05941 3.592263,2.501601 1.136958,4.967614 0.816374,4.772868 -0.320584,-0.194746 0.218242,-2.099404 -2.785865,-3.477631 C 21.04146,14.906764 17.151582,15.187165 15,15.594309 12.652306,16.038563 4.0124605,19.040655 5.3953154,18.012058 Z"
         id="path1" />
    </g>
    <g stroke="#f22" >
        <circle stroke-width="2.5" cx="15" cy="118.5" r="10"/>
        <path stroke-width="2" d="M 10,114 l 10,10 M 20,114 l -10,10"/>
    </g>
  </g>
</svg>
