<?xml version="1.0" encoding="UTF-8" standalone="no"?>
<!-- Created with Inkscape (http://www.inkscape.org/) -->

<svg
   width="150"
   height="380"
   viewBox="0 0 150 380"
   version="1.1"
   id="svg1"
   inkscape:version="1.4.2 (f4327f4, 2025-05-13)"
   sodipodi:docname="scratch.svg"
   xmlns:inkscape="http://www.inkscape.org/namespaces/inkscape"
   xmlns:sodipodi="http://sodipodi.sourceforge.net/DTD/sodipodi-0.dtd"
   xmlns:xlink="http://www.w3.org/1999/xlink"
   xmlns="http://www.w3.org/2000/svg"
   xmlns:svg="http://www.w3.org/2000/svg">
  <sodipodi:namedview
     id="namedview1"
     pagecolor="#ffffff"
     bordercolor="#666666"
     borderopacity="1.0"
     inkscape:showpageshadow="2"
     inkscape:pageopacity="0.0"
     inkscape:pagecheckerboard="0"
     inkscape:deskcolor="#404040"
     inkscape:document-units="px"
     inkscape:zoom="64"
     inkscape:cx="17.1"
     inkscape:cy="1.07"
     inkscape:window-width="3840"
     inkscape:window-height="2054"
     inkscape:window-x="2869"
     inkscape:window-y="-11"
     inkscape:window-maximized="1"
     inkscape:current-layer="layer1"
     showguides="true"
     showgrid="false" />
  <defs
     id="defs1">
    <linearGradient
       id="linearGradient27"
       inkscape:collect="always">
      <stop
         style="stop-color:#bfbfbf;stop-opacity:1;"
         offset="0"
         id="stop27" />
      <stop
         style="stop-color:#595959;stop-opacity:1;"
         offset="1"
         id="stop28" />
    </linearGradient>
    <linearGradient
       id="linearGradient21"
       inkscape:collect="always">
      <stop
         style="stop-color:#adadad;stop-opacity:1;"
         offset="0"
         id="stop21" />
      <stop
         style="stop-color:#737373;stop-opacity:1;"
         offset="1"
         id="stop22" />
    </linearGradient>
    <linearGradient
       id="linearGradient11"
       inkscape:collect="always">
      <stop
         style="stop-color:#d9d9d9;stop-opacity:1;"
         offset="0"
         id="stop11" />
      <stop
         style="stop-color:#575757;stop-opacity:1;"
         offset="1"
         id="stop12" />
    </linearGradient>
    <linearGradient
       id="bw"
       x1="94"
       y1="244"
       x2="180"
       y2="244"
       gradientUnits="userSpaceOnUse"
       gradientTransform="matrix(1.17,0,0,1.17,-57,-241)">
      <stop
         offset="0"
         stop-color="#ffffff"
         id="stop1-4" />
      <stop
         offset="1"
         stop-color="#000000"
         id="stop2-8" />
    </linearGradient>
    <linearGradient
       inkscape:collect="always"
       xlink:href="#linearGradient11"
       id="linearGradient12"
       x1="4.99"
       y1="1"
       x2="5.1"
       y2="16.5"
       gradientUnits="userSpaceOnUse"
       gradientTransform="matrix(1.01,0,0,1.03,-0.209,-0.282)" />
    <linearGradient
       inkscape:collect="always"
       xlink:href="#linearGradient21"
       id="linearGradient22"
       x1="1.45"
       y1="1.5"
       x2="1.45"
       y2="16.5"
       gradientUnits="userSpaceOnUse" />
    <linearGradient
       inkscape:collect="always"
       xlink:href="#linearGradient11"
       id="linearGradient25"
       gradientUnits="userSpaceOnUse"
       gradientTransform="matrix(1.01,0,0,1.03,102,86.7)"
       x1="4.99"
       y1="1"
       x2="5.1"
       y2="16.5" />
    <linearGradient
       inkscape:collect="always"
       xlink:href="#linearGradient21"
       id="linearGradient26"
       gradientUnits="userSpaceOnUse"
       x1="1.45"
       y1="1.5"
       x2="1.45"
       y2="16.5"
       gradientTransform="translate(102,87)" />
    <radialGradient
       inkscape:collect="always"
       xlink:href="#linearGradient27"
       id="radialGradient28"
       cx="16.1"
       cy="52.3"
       fx="16.1"
       fy="52.3"
       r="4.25"
       gradientUnits="userSpaceOnUse" />
    <radialGradient
       inkscape:collect="always"
       xlink:href="#linearGradient27"
       id="radialGradient29"
       gradientUnits="userSpaceOnUse"
       cx="16.1"
       cy="52.3"
       fx="16.1"
       fy="52.3"
       r="4.25"
       gradientTransform="translate(-33.6,-106)" />
    <linearGradient
       inkscape:collect="always"
       xlink:href="#pg"
       id="linearGradient2"
       gradientUnits="userSpaceOnUse"
       gradientTransform="scale(1,0.999)"
       x2="0"
       y2="380" />
  </defs>
  <g
     inkscape:label="Layer 1"
     inkscape:groupmode="layer"
     id="layer1">
    <linearGradient
       id="pg"
       x2="0"
       y2="380"
       gradientUnits="userSpaceOnUse"
       gradientTransform="scale(1,0.395)">
      <stop
         offset="0"
         stop-color="#282828"
         id="stop3"
         style="stop-color:#181818;stop-opacity:1;" />
      <stop
         offset="1"
         stop-color="#181818"
         id="stop4"
         style="stop-color:#282828;stop-opacity:1;" />
    </linearGradient>
    <rect
       id="panel"
       width="150"
       height="380"
       fill="url(#pg)"
       style="display:inline;fill:url(#linearGradient2);fill-opacity:1;stroke-width:0.999671"
       x="0"
       y="0"
       sodipodi:insensitive="true" />
    <g
       id="unscrew--symbol"
       transform="translate(128,17.2)">
      <g
         fill="#dedede"
         stroke="#000000"
         stroke-width="0.65"
         id="g7">
        <path
           d="M 15.4,7.81 A 2.72,2.35 0 0 1 12.7,10.2 2.72,2.35 0 0 1 9.99,7.81 2.72,2.35 0 0 1 12.7,5.46 2.72,2.35 0 0 1 15.4,7.81 Z"
           id="path1" />
        <path
           d="M 15,7.68 A 2.31,1.64 82.2 0 1 13.6,10.1 2.31,1.64 82.2 0 1 11.7,7.99 2.31,1.64 82.2 0 1 13.1,5.53 2.31,1.64 82.2 0 1 15,7.68 Z"
           id="path2" />
        <path
           d="M 14.4,7.65 A 2.43,1.64 83.2 0 1 13.1,10.2 2.43,1.64 83.2 0 1 11.2,7.97 2.43,1.64 83.2 0 1 12.5,5.39 2.43,1.64 83.2 0 1 14.4,7.65 Z"
           id="path3" />
        <path
           d="M 13.2,7.67 A 2.43,1.64 83.2 0 1 11.8,10.2 2.43,1.64 83.2 0 1 9.94,8 2.43,1.64 83.2 0 1 11.3,5.42 2.43,1.64 83.2 0 1 13.2,7.67 Z"
           id="path4" />
        <path
           d="M 11.9,7.67 A 2.43,1.64 83.2 0 1 10.5,10.2 2.43,1.64 83.2 0 1 8.63,8 2.43,1.64 83.2 0 1 10,5.42 2.43,1.64 83.2 0 1 11.9,7.67 Z"
           id="path5" />
        <path
           d="M 10.6,7.67 A 2.43,1.64 83.2 0 1 9.22,10.2 2.43,1.64 83.2 0 1 7.32,8 2.43,1.64 83.2 0 1 8.69,5.42 2.43,1.64 83.2 0 1 10.6,7.67 Z"
           id="path6" />
        <path
           d="m 9.22,8.04 c 0,2.76 -1.68,5.06 -3.76,5.06 -2.08,0 -1.91,0 -1.91,0 L 3.54,3 c 0,0 1.24,0 1.92,0 2.08,0 3.76,2.25 3.76,5.05 z"
           id="path7" />
        <ellipse
           cx="3.75"
           cy="8.04"
           rx="3.12"
           ry="5.06"
           id="ellipse7" />
      </g>
      <path
         id="slot"
         fill="#000000"
         stroke="none"
         d="M 5.46,9.43 4.68,8.11 C 4.56,7.91 4.56,7.62 4.68,7.42 L 5.46,6.1 c 0,0 0,-0.14 0,-0.19 L 4.98,5.28 c 0,0 -0.1,-0.1 -0.15,0 L 3.84,6.3 C 3.68,6.46 3.47,6.46 3.32,6.3 l -1,-1.03 c 0,0 -0.1,0 -0.14,0 L 1.7,5.91 c 0,0 0,0.14 0,0.19 l 0.78,1.32 c 0.12,0.2 0.12,0.49 0,0.69 L 1.69,9.43 c 0,0.1 0,0.13 0,0.19 l 0.48,0.58 c 0,0.1 0.1,0.1 0.14,0.1 l 1,-1.08 c 0.15,-0.16 0.37,-0.15 0.52,0 l 0.99,1.08 c 0,0 0.11,0 0.15,-0.1 L 5.45,9.62 c 0,-0.1 0,-0.14 0,-0.19 z" />
    </g>
    <g
       id="g22"
       transform="translate(94.2,61.6)">
      <rect
         style="fill:#333333;fill-opacity:1;stroke-width:1.49657;paint-order:fill markers stroke"
         id="rect1"
         width="47.9"
         height="18"
         x="0"
         y="0" />
      <rect
         style="fill:url(#linearGradient12);fill-opacity:1;stroke-width:1.5029;paint-order:fill markers stroke"
         id="rect10"
         width="46.5"
         height="16.5"
         x="0.75"
         y="0.748" />
      <rect
         style="fill:url(#linearGradient22);fill-opacity:1;stroke-width:1.49485;paint-order:fill markers stroke"
         id="rect11"
         width="45"
         height="15"
         x="1.45"
         y="1.5" />
      <text
         xml:space="preserve"
         style="font-style:normal;font-variant:normal;font-weight:normal;font-stretch:normal;font-size:12px;line-height:1.25;font-family:'Hanken Grotesk';-inkscape-font-specification:'Hanken Grotesk';font-variant-ligatures:none;text-align:center;text-orientation:upright;text-anchor:middle"
         x="23.9"
         y="12.9"
         id="text15"><tspan
           sodipodi:role="line"
           id="tspan15"
           x="23.9"
           y="12.9"
           style="font-size:12px">Oblique</tspan></text>
    </g>
    <g
       id="g1"
       transform="translate(-7.8)">
      <rect
         style="fill:#333333;fill-opacity:1;stroke-width:1.49657;paint-order:fill markers stroke"
         id="rect22"
         width="47.9"
         height="18"
         x="102"
         y="86.9" />
      <rect
         style="fill:url(#linearGradient25);fill-opacity:1;stroke-width:1.5029;paint-order:fill markers stroke"
         id="rect23"
         width="46.5"
         height="16.5"
         x="103"
         y="87.7" />
      <rect
         style="fill:url(#linearGradient26);fill-opacity:1;stroke-width:1.49485;paint-order:fill markers stroke"
         id="rect24"
         width="45"
         height="15"
         x="103"
         y="88.4" />
      <text
         xml:space="preserve"
         style="font-style:normal;font-variant:normal;font-weight:normal;font-stretch:normal;font-size:12px;line-height:1.25;font-family:'Hanken Grotesk';-inkscape-font-specification:'Hanken Grotesk';font-variant-ligatures:none;text-align:center;text-orientation:upright;text-anchor:middle;fill:#000000;fill-opacity:1"
         x="126"
         y="100"
         id="text24"><tspan
           sodipodi:role="line"
           id="tspan24"
           x="126"
           y="100"
           style="font-size:12px;fill:#000000;fill-opacity:1">Upright</tspan></text>
    </g>
    <text
       xml:space="preserve"
       style="font-style:normal;font-variant:normal;font-weight:normal;font-stretch:normal;font-size:12px;line-height:1.25;font-family:'Hanken Grotesk';-inkscape-font-specification:'Hanken Grotesk';font-variant-ligatures:none;text-align:center;text-orientation:upright;text-anchor:middle;fill:#999999;fill-opacity:1"
       x="128"
       y="126"
       id="text24-7"><tspan
         sodipodi:role="line"
         id="tspan24-1"
         x="128"
         y="126"
         style="font-size:12px;fill:#999999;fill-opacity:1">Upright</tspan></text>
    <g
       id="g28"
       transform="translate(80.4,88.6)">
      <circle
         style="fill:#9c9c9c;fill-opacity:1;stroke:#000000;stroke-width:0.75;stroke-dasharray:none;stroke-opacity:1;paint-order:fill markers stroke"
         id="path26"
         cx="16.8"
         cy="52.8"
         r="4.25" />
      <circle
         style="fill:url(#radialGradient28);fill-opacity:1;stroke:none;stroke-width:1;stroke-dasharray:none;stroke-opacity:1;paint-order:fill markers stroke"
         id="circle26"
         cx="16.8"
         cy="52.8"
         r="4" />
    </g>
    <g
       id="g29"
       style="display:inline"
       transform="translate(80.4,69.1)">
      <circle
         style="fill:#9c9c9c;fill-opacity:1;stroke:#000000;stroke-width:0.75;stroke-dasharray:none;stroke-opacity:1;paint-order:fill markers stroke"
         id="circle28"
         cx="16.8"
         cy="52.8"
         r="4.25" />
      <circle
         style="fill:url(#radialGradient29);fill-opacity:1;stroke:none;stroke-width:1;stroke-dasharray:none;stroke-opacity:1;paint-order:fill markers stroke"
         id="circle29"
         cx="-16.8"
         cy="-52.8"
         r="4"
         transform="scale(-1)" />
    </g>
    <text
       xml:space="preserve"
       style="font-style:normal;font-variant:normal;font-weight:normal;font-stretch:normal;font-size:12px;line-height:1.25;font-family:'Hanken Grotesk';-inkscape-font-specification:'Hanken Grotesk';font-variant-ligatures:none;text-align:center;text-orientation:upright;text-anchor:middle;fill:#999999;fill-opacity:1"
       x="130"
       y="145"
       id="text15-8"><tspan
         sodipodi:role="line"
         id="tspan15-2"
         x="130"
         y="145"
         style="font-size:12px;fill:#999999;fill-opacity:1">Oblique</tspan></text>
    <path
       style="fill:none;stroke:#4073bf;stroke-width:0.25;stroke-linecap:butt;stroke-linejoin:miter;stroke-dasharray:none;stroke-opacity:1"
       d="M 3.54,13.2 H 90.5"
       id="path50"
       sodipodi:nodetypes="cc"
       inkscape:label="sep" />
  </g>
</svg>
