<?xml version="1.0" encoding="UTF-8" standalone="no"?>
<!-- Created with Inkscape (http://www.inkscape.org/) -->

<svg
   width="150"
   height="380"
   viewBox="0 0 150 380"
   version="1.1"
   id="svg1"
   inkscape:version="1.4.2 (f4327f4, 2025-05-13)"
   sodipodi:docname="scratch.svg"
   xmlns:inkscape="http://www.inkscape.org/namespaces/inkscape"
   xmlns:sodipodi="http://sodipodi.sourceforge.net/DTD/sodipodi-0.dtd"
   xmlns:xlink="http://www.w3.org/1999/xlink"
   xmlns="http://www.w3.org/2000/svg"
   xmlns:svg="http://www.w3.org/2000/svg">
  <sodipodi:namedview
     id="namedview1"
     pagecolor="#ffffff"
     bordercolor="#666666"
     borderopacity="1.0"
     inkscape:showpageshadow="2"
     inkscape:pageopacity="0.0"
     inkscape:pagecheckerboard="0"
     inkscape:deskcolor="#404040"
     inkscape:document-units="px"
     inkscape:zoom="11.5"
     inkscape:cx="-15.8"
     inkscape:cy="13"
     inkscape:window-width="3840"
     inkscape:window-height="2054"
     inkscape:window-x="2869"
     inkscape:window-y="-11"
     inkscape:window-maximized="1"
     inkscape:current-layer="layer1"
     showguides="true"
     showgrid="false" />
  <defs
     id="defs1">
    <linearGradient
       id="linearGradient27"
       inkscape:collect="always">
      <stop
         style="stop-color:#bfbfbf;stop-opacity:1;"
         offset="0"
         id="stop27" />
      <stop
         style="stop-color:#595959;stop-opacity:1;"
         offset="1"
         id="stop28" />
    </linearGradient>
    <linearGradient
       id="linearGradient21"
       inkscape:collect="always">
      <stop
         style="stop-color:#adadad;stop-opacity:1;"
         offset="0"
         id="stop21" />
      <stop
         style="stop-color:#737373;stop-opacity:1;"
         offset="1"
         id="stop22" />
    </linearGradient>
    <linearGradient
       id="linearGradient11"
       inkscape:collect="always">
      <stop
         style="stop-color:#d9d9d9;stop-opacity:1;"
         offset="0"
         id="stop11" />
      <stop
         style="stop-color:#575757;stop-opacity:1;"
         offset="1"
         id="stop12" />
    </linearGradient>
    <linearGradient
       inkscape:collect="always"
       xlink:href="#linearGradient11"
       id="linearGradient12"
       x1="4.99"
       y1="1"
       x2="5.1"
       y2="16.5"
       gradientUnits="userSpaceOnUse"
       gradientTransform="matrix(1.01,0,0,1.03,-0.209,-0.282)" />
    <linearGradient
       inkscape:collect="always"
       xlink:href="#linearGradient21"
       id="linearGradient22"
       x1="1.45"
       y1="1.5"
       x2="1.45"
       y2="16.5"
       gradientUnits="userSpaceOnUse" />
    <linearGradient
       inkscape:collect="always"
       xlink:href="#linearGradient11"
       id="linearGradient25"
       gradientUnits="userSpaceOnUse"
       gradientTransform="matrix(1.01,0,0,1.03,102,86.7)"
       x1="4.99"
       y1="1"
       x2="5.1"
       y2="16.5" />
    <linearGradient
       inkscape:collect="always"
       xlink:href="#linearGradient21"
       id="linearGradient26"
       gradientUnits="userSpaceOnUse"
       x1="1.45"
       y1="1.5"
       x2="1.45"
       y2="16.5"
       gradientTransform="translate(102,87)" />
    <radialGradient
       inkscape:collect="always"
       xlink:href="#linearGradient27"
       id="radialGradient28"
       cx="16.1"
       cy="52.3"
       fx="16.1"
       fy="52.3"
       r="4.25"
       gradientUnits="userSpaceOnUse" />
    <radialGradient
       inkscape:collect="always"
       xlink:href="#linearGradient27"
       id="radialGradient29"
       gradientUnits="userSpaceOnUse"
       cx="16.1"
       cy="52.3"
       fx="16.1"
       fy="52.3"
       r="4.25"
       gradientTransform="translate(-33.6,-106)" />
    <linearGradient
       inkscape:collect="always"
       xlink:href="#pg"
       id="linearGradient2"
       gradientUnits="userSpaceOnUse"
       gradientTransform="scale(1,0.999)"
       x2="0"
       y2="380" />
  </defs>
  <g
     inkscape:label="Layer 1"
     inkscape:groupmode="layer"
     id="layer1">
    <linearGradient
       id="pg"
       x2="0"
       y2="380"
       gradientUnits="userSpaceOnUse"
       gradientTransform="scale(1,0.395)">
      <stop
         offset="0"
         stop-color="#282828"
         id="stop3"
         style="stop-color:#181818;stop-opacity:1;" />
      <stop
         offset="1"
         stop-color="#181818"
         id="stop4"
         style="stop-color:#282828;stop-opacity:1;" />
    </linearGradient>
    <rect
       id="panel"
       width="150"
       height="380"
       fill="url(#pg)"
       style="display:inline;fill:url(#linearGradient2);fill-opacity:1;stroke-width:0.999671"
       x="0"
       y="0"
       sodipodi:insensitive="true" />
    <g
       id="unscrew--symbol"
       transform="translate(128,17.2)">
      <g
         fill="#dedede"
         stroke="#000000"
         stroke-width="0.65"
         id="g7">
        <path
           d="M 15.4,7.81 A 2.72,2.35 0 0 1 12.7,10.2 2.72,2.35 0 0 1 9.99,7.81 2.72,2.35 0 0 1 12.7,5.46 2.72,2.35 0 0 1 15.4,7.81 Z"
           id="path1" />
        <path
           d="M 15,7.68 A 2.31,1.64 82.2 0 1 13.6,10.1 2.31,1.64 82.2 0 1 11.7,7.99 2.31,1.64 82.2 0 1 13.1,5.53 2.31,1.64 82.2 0 1 15,7.68 Z"
           id="path2" />
        <path
           d="M 14.4,7.65 A 2.43,1.64 83.2 0 1 13.1,10.2 2.43,1.64 83.2 0 1 11.2,7.97 2.43,1.64 83.2 0 1 12.5,5.39 2.43,1.64 83.2 0 1 14.4,7.65 Z"
           id="path3" />
        <path
           d="M 13.2,7.67 A 2.43,1.64 83.2 0 1 11.8,10.2 2.43,1.64 83.2 0 1 9.94,8 2.43,1.64 83.2 0 1 11.3,5.42 2.43,1.64 83.2 0 1 13.2,7.67 Z"
           id="path4" />
        <path
           d="M 11.9,7.67 A 2.43,1.64 83.2 0 1 10.5,10.2 2.43,1.64 83.2 0 1 8.63,8 2.43,1.64 83.2 0 1 10,5.42 2.43,1.64 83.2 0 1 11.9,7.67 Z"
           id="path5" />
        <path
           d="M 10.6,7.67 A 2.43,1.64 83.2 0 1 9.22,10.2 2.43,1.64 83.2 0 1 7.32,8 2.43,1.64 83.2 0 1 8.69,5.42 2.43,1.64 83.2 0 1 10.6,7.67 Z"
           id="path6" />
        <path
           d="m 9.22,8.04 c 0,2.76 -1.68,5.06 -3.76,5.06 -2.08,0 -1.91,0 -1.91,0 L 3.54,3 c 0,0 1.24,0 1.92,0 2.08,0 3.76,2.25 3.76,5.05 z"
           id="path7" />
        <ellipse
           cx="3.75"
           cy="8.04"
           rx="3.12"
           ry="5.06"
           id="ellipse7" />
      </g>
      <path
         id="slot"
         fill="#000000"
         stroke="none"
         d="M 5.46,9.43 4.68,8.11 C 4.56,7.91 4.56,7.62 4.68,7.42 L 5.46,6.1 c 0,0 0,-0.14 0,-0.19 L 4.98,5.28 c 0,0 -0.1,-0.1 -0.15,0 L 3.84,6.3 C 3.68,6.46 3.47,6.46 3.32,6.3 l -1,-1.03 c 0,0 -0.1,0 -0.14,0 L 1.7,5.91 c 0,0 0,0.14 0,0.19 l 0.78,1.32 c 0.12,0.2 0.12,0.49 0,0.69 L 1.69,9.43 c 0,0.1 0,0.13 0,0.19 l 0.48,0.58 c 0,0.1 0.1,0.1 0.14,0.1 l 1,-1.08 c 0.15,-0.16 0.37,-0.15 0.52,0 l 0.99,1.08 c 0,0 0.11,0 0.15,-0.1 L 5.45,9.62 c 0,-0.1 0,-0.14 0,-0.19 z" />
    </g>
    <g
       id="g22"
       transform="translate(94.2,61.6)">
      <rect
         style="fill:#333333;fill-opacity:1;stroke-width:1.49657;paint-order:fill markers stroke"
         id="rect1"
         width="47.9"
         height="18"
         x="0"
         y="0" />
      <rect
         style="fill:url(#linearGradient12);fill-opacity:1;stroke-width:1.5029;paint-order:fill markers stroke"
         id="rect10"
         width="46.5"
         height="16.5"
         x="0.75"
         y="0.748" />
      <rect
         style="fill:url(#linearGradient22);fill-opacity:1;stroke-width:1.49485;paint-order:fill markers stroke"
         id="rect11"
         width="45"
         height="15"
         x="1.45"
         y="1.5" />
      <text
         xml:space="preserve"
         style="font-style:normal;font-variant:normal;font-weight:normal;font-stretch:normal;font-size:12px;line-height:1.25;font-family:'Hanken Grotesk';-inkscape-font-specification:'Hanken Grotesk';font-variant-ligatures:none;text-align:center;text-orientation:upright;text-anchor:middle"
         x="23.9"
         y="12.9"
         id="text15"><tspan
           sodipodi:role="line"
           id="tspan15"
           x="23.9"
           y="12.9"
           style="font-size:12px">Oblique</tspan></text>
    </g>
    <g
       id="g1"
       transform="translate(-7.8)">
      <rect
         style="fill:#333333;fill-opacity:1;stroke-width:1.49657;paint-order:fill markers stroke"
         id="rect22"
         width="47.9"
         height="18"
         x="102"
         y="86.9" />
      <rect
         style="fill:url(#linearGradient25);fill-opacity:1;stroke-width:1.5029;paint-order:fill markers stroke"
         id="rect23"
         width="46.5"
         height="16.5"
         x="103"
         y="87.7" />
      <rect
         style="fill:url(#linearGradient26);fill-opacity:1;stroke-width:1.49485;paint-order:fill markers stroke"
         id="rect24"
         width="45"
         height="15"
         x="103"
         y="88.4" />
      <text
         xml:space="preserve"
         style="font-style:normal;font-variant:normal;font-weight:normal;font-stretch:normal;font-size:12px;line-height:1.25;font-family:'Hanken Grotesk';-inkscape-font-specification:'Hanken Grotesk';font-variant-ligatures:none;text-align:center;text-orientation:upright;text-anchor:middle;fill:#000000;fill-opacity:1"
         x="126"
         y="100"
         id="text24"><tspan
           sodipodi:role="line"
           id="tspan24"
           x="126"
           y="100"
           style="font-size:12px;fill:#000000;fill-opacity:1">Upright</tspan></text>
    </g>
    <text
       xml:space="preserve"
       style="font-style:normal;font-variant:normal;font-weight:normal;font-stretch:normal;font-size:12px;line-height:1.25;font-family:'Hanken Grotesk';-inkscape-font-specification:'Hanken Grotesk';font-variant-ligatures:none;text-align:center;text-orientation:upright;text-anchor:middle;fill:#999999;fill-opacity:1"
       x="128"
       y="126"
       id="text24-7"><tspan
         sodipodi:role="line"
         id="tspan24-1"
         x="128"
         y="126"
         style="font-size:12px;fill:#999999;fill-opacity:1">Upright</tspan></text>
    <g
       id="g28"
       transform="translate(80.4,88.6)">
      <circle
         style="fill:#9c9c9c;fill-opacity:1;stroke:#000000;stroke-width:0.75;stroke-dasharray:none;stroke-opacity:1;paint-order:fill markers stroke"
         id="path26"
         cx="16.8"
         cy="52.8"
         r="4.25" />
      <circle
         style="fill:url(#radialGradient28);fill-opacity:1;stroke:none;stroke-width:1;stroke-dasharray:none;stroke-opacity:1;paint-order:fill markers stroke"
         id="circle26"
         cx="16.8"
         cy="52.8"
         r="4" />
    </g>
    <g
       id="g29"
       style="display:inline"
       transform="translate(80.4,69.1)">
      <circle
         style="fill:#9c9c9c;fill-opacity:1;stroke:#000000;stroke-width:0.75;stroke-dasharray:none;stroke-opacity:1;paint-order:fill markers stroke"
         id="circle28"
         cx="16.8"
         cy="52.8"
         r="4.25" />
      <circle
         style="fill:url(#radialGradient29);fill-opacity:1;stroke:none;stroke-width:1;stroke-dasharray:none;stroke-opacity:1;paint-order:fill markers stroke"
         id="circle29"
         cx="-16.8"
         cy="-52.8"
         r="4"
         transform="scale(-1)" />
    </g>
    <text
       xml:space="preserve"
       style="font-style:normal;font-variant:normal;font-weight:normal;font-stretch:normal;font-size:12px;line-height:1.25;font-family:'Hanken Grotesk';-inkscape-font-specification:'Hanken Grotesk';font-variant-ligatures:none;text-align:center;text-orientation:upright;text-anchor:middle;fill:#999999;fill-opacity:1"
       x="130"
       y="145"
       id="text15-8"><tspan
         sodipodi:role="line"
         id="tspan15-2"
         x="130"
         y="145"
         style="font-size:12px;fill:#999999;fill-opacity:1">Oblique</tspan></text>
    <path
       d="M 8.08,1.34 6.36,3.22 Q 5,2.42 4.4,2.42 3.95,2.42 3.61,2.78 3.28,3.12 3.28,3.6 q 0,0.94 1.72,1.64 1.26,0.53 1.9,0.97 0.65,0.43 1.08,1.2 0.44,0.78 0.44,1.67 0,1.62 -1.34,2.92 -1.33,1.2 -3.14,1.2 -2,0 -3.9400781,-1.9 L 1.82,9.18 Q 3.04,10.4 4.1,10.4 4.6,10.4 5.06,10 5.52,9.55 5.52,9.06 5.52,8.06 3.4,7.3 2.19,6.86 1.68,6.48 1.17,6.09 0.82,5.35 0.478,4.61 0.478,3.84 0.478,2.13 1.59,1.07 2.71,0.002 4.5,0.002 q 2.13,0 3.58,1.338 z M 10.5,0.178 h 2.7 V 5.6 h 0.1 l 4.2,-5.422 h 3.4 L 16,6.3 21.1,13 H 17.8 L 13.3,7 h -0.1 v 6 h -2.7 z m 12.5,0 h 2.7 V 13 H 23 Z m 5.3,0 h 7.2 V 2.66 h -4.4 v 2.62 h 4.4 v 2.5 H 31.1 V 13 h -2.8 z m 9.6,0 h 7.2 V 2.66 h -4.5 v 2.62 h 4.5 v 2.5 H 40.7 V 13 h -2.8 z"
       id="text11"
       style="font-weight:bold;font-size:20px;line-height:1.25;font-family:'Tw Cen MT';-inkscape-font-specification:'Tw Cen MT Bold';font-variant-ligatures:none;text-orientation:upright"
       aria-label="SKIFF" />
    <path
       d="M 11.6,2.96 9.77,4.68 Q 9.19,3.68 8.34,3.2 7.49,2.7 6.56,2.7 q -1.5,0 -2.61,1.14 -1.11,1.14 -1.11,2.7 0,1.65 1.11,2.8 1.11,1.16 2.67,1.16 0.85,0 1.63,-0.4 Q 9.04,9.62 9.52,8.44 H 6.48 V 5.94 H 12.4 V 7.6 q 0,1.28 -0.9,2.8 -0.9,1.4 -2.29,2.1 -1.44,0.7 -2.9,0.7 -2.66,0 -4.48,-1.9 Q -2.97e-4,9.33 -2.97e-4,6.5 -2.97e-4,3.81 1.87,1.91 3.76,0.002 6.41,0.002 q 3.37,0 5.19,2.958 z m 2.9,-2.782 h 2.7 V 8.02 q 0,1.09 0.6,1.76 0.6,0.62 1.6,0.62 1.1,0 1.7,-0.62 0.7,-0.68 0.7,-1.9 V 0.178 h 2.7 V 8.48 q 0,1.09 -0.6,2.32 -0.6,1.1 -1.7,1.8 -1.2,0.6 -2.7,0.6 -2.6,0 -3.8,-1.5 -1.2,-1.5 -1.2,-3.08 z m 12.5,0 h 2.8 V 13 H 27 Z m 5.3,0 h 4.4 q 2.8,0 4.5,1.772 1.7,1.76 1.7,4.65 0,2.9 -1.8,4.7 Q 39.4,13 36.4,13 H 32.3 Z M 35.1,2.6 v 7.9 h 1.1 Q 37.9,10.5 39,9.59 40.1,8.66 40.1,6.5 40.1,5.24 39.5,4.27 39,3.29 38,2.95 37,2.6 36.1,2.6 Z m 10,-2.422 h 7.2 V 2.72 H 47.8 V 5.3 h 4.5 v 2.5 h -4.5 v 2.7 h 4.5 V 13 h -7.2 z"
       id="text12"
       style="font-weight:bold;font-size:20px;line-height:1.25;font-family:'Tw Cen MT';-inkscape-font-specification:'Tw Cen MT Bold';font-variant-ligatures:none;text-orientation:upright"
       aria-label="GUIDE" />
    <path
       d="M -7.03e-4,-0.022 H 4.22 q 1.92,0 3.04,1.015 Q 8.38,2.01 8.38,3.74 8.38,4.72 7.86,5.79 7.35,6.85 5.98,7.46 L 9.56,12.8 H 6.4 L 3.08,7.84 H 2.76 V 12.8 H -7.03e-4 Z M 2.78,2.26 V 5.6 h 0.6 Q 5.54,5.6 5.54,3.84 5.54,3.11 4.97,2.69 4.41,2.26 3.42,2.26 Z m 8.12,-2.282 h 2.7 V 7.82 q 0,1.09 0.6,1.76 0.6,0.62 1.6,0.62 1.1,0 1.8,-0.62 0.6,-0.68 0.6,-1.9 v -7.702 h 2.7 V 8.28 q 0,1.09 -0.6,2.32 -0.5,1.1 -1.7,1.8 Q 17.4,13 16,13 13.3,13 12.1,11.5 10.9,10 10.9,8.42 Z m 12.5,0 h 2.8 V 12.8 h -2.8 z"
       id="text13"
       style="font-weight:bold;font-size:20px;line-height:1.25;font-family:'Tw Cen MT';-inkscape-font-specification:'Tw Cen MT Bold';font-variant-ligatures:none;text-orientation:upright"
       aria-label="RUI" />
  </g>
</svg>
