<?xml version="1.0" encoding="UTF-8" standalone="no"?>
<!-- Created with Inkscape (http://www.inkscape.org/) -->

<svg
   width="150"
   height="380"
   viewBox="0 0 150 380"
   version="1.1"
   id="svg1"
   inkscape:version="1.4.2 (f4327f4, 2025-05-13)"
   sodipodi:docname="scratch.svg"
   xmlns:inkscape="http://www.inkscape.org/namespaces/inkscape"
   xmlns:sodipodi="http://sodipodi.sourceforge.net/DTD/sodipodi-0.dtd"
   xmlns="http://www.w3.org/2000/svg"
   xmlns:svg="http://www.w3.org/2000/svg">
  <sodipodi:namedview
     id="namedview1"
     pagecolor="#ffffff"
     bordercolor="#666666"
     borderopacity="1.0"
     inkscape:showpageshadow="2"
     inkscape:pageopacity="0.0"
     inkscape:pagecheckerboard="0"
     inkscape:deskcolor="#404040"
     inkscape:document-units="px"
     inkscape:zoom="6.6728552"
     inkscape:cx="28.848221"
     inkscape:cy="126.10794"
     inkscape:window-width="3840"
     inkscape:window-height="2054"
     inkscape:window-x="2869"
     inkscape:window-y="-11"
     inkscape:window-maximized="1"
     inkscape:current-layer="layer1"
     showguides="true"
     showgrid="false" />
  <defs
     id="defs1" />
  <g
     inkscape:label="Layer 1"
     inkscape:groupmode="layer"
     id="layer1">
    <linearGradient
       id="pg"
       y2="285.47687"
       gradientUnits="userSpaceOnUse"
       x2="15.800335"
       gradientTransform="scale(5,1)">
      <stop
         offset="0"
         stop-color="#282828"
         id="stop1" />
      <stop
         offset="1"
         stop-color="#181818"
         id="stop2" />
    </linearGradient>
    <rect
       id="panel"
       width="150"
       height="380"
       fill="url(#pg)"
       style="fill:url(#pg);fill-opacity:1;stroke-width:1"
       x="0"
       y="0" />
    <g
       id="g3"
       transform="translate(0,80)">
      <rect
         id="mast"
         width="30"
         height="20"
         fill="#f9a806"
         x="0"
         y="0" />
      <path
         id="Rui"
         d="m 6.5644531,5.5395508 h 2.953125 q 1.3466799,0 2.1259769,0.7109375 0.786133,0.7109375 0.786133,1.9208984 0,0.6904297 -0.362305,1.4355469 -0.355469,0.7451174 -1.319336,1.1689454 l 2.508789,3.739258 H 11.041992 L 8.7177734,11.04248 h -0.21875 v 3.472657 H 6.5644531 Z m 1.9482422,1.5996094 v 2.3378906 h 0.4169922 q 1.5107425,0 1.5107425,-1.2373047 0,-0.5058594 -0.396485,-0.7998047 Q 9.6542969,7.1391602 8.9570313,7.1391602 Z m 5.4345707,1.5107421 h 1.777343 v 2.8164067 q 0,0.608398 0.307618,1.018554 0.314453,0.403321 0.77246,0.403321 0.485352,0 0.813477,-0.389649 0.334961,-0.396484 0.334961,-0.991211 V 8.6499023 h 1.777344 v 3.4179687 q 0,1.086914 -0.833985,1.825195 -0.827148,0.731446 -2.064453,0.731446 -1.3125,0 -2.098633,-0.738282 -0.786132,-0.738281 -0.786132,-1.961914 z m 7.300781,-2.1875 q 0,-0.4443359 0.321289,-0.765625 0.321289,-0.321289 0.772461,-0.321289 0.451172,0 0.772461,0.321289 0.321289,0.3212891 0.321289,0.765625 0,0.4511719 -0.321289,0.772461 -0.321289,0.321289 -0.772461,0.321289 -0.451172,0 -0.772461,-0.321289 -0.321289,-0.3212891 -0.321289,-0.772461 z m 0.225586,2.1738282 h 1.75 v 5.8789065 h -1.75 z" />
    </g>
    <g
       stroke="#ff2222"
       id="g2">
      <circle
         stroke-width="2.5"
         cx="15"
         cy="118.5"
         r="10"
         id="circle1"
         style="display:inline" />
      <path
         stroke-width="2"
         d="m 10,114 10,10 m 0,-10 -10,10"
         id="path2" />
    </g>
    <path
       style="font-size:28px;line-height:1.25;font-family:'Palatino Linotype';-inkscape-font-specification:'Palatino Linotype';font-variant-ligatures:none;letter-spacing:6.53px;text-orientation:upright;fill:#e5e5e5;fill-opacity:0.5"
       d="m -177.01985,54.938507 0.10937,-0.0957 q 4.68946,0.08203 6.00196,0.08203 4.48437,0 7.98437,-0.08203 l 0.0684,0.0957 q -0.3418,1.3125 -0.50586,4.115234 l -0.082,0.109375 h -0.66992 l -0.12305,-0.109375 q 0.0137,-0.123046 0.0137,-0.21875 0,-1.162109 -0.17773,-2.214843 -0.86133,-0.382813 -2.39258,-0.492188 -1.51758,-0.123047 -2.2832,-0.123047 -1.08008,0 -2.76172,0.150391 l -0.0547,2.1875 -0.041,2.501953 -0.041,2.775391 q 1.47656,0.08203 2.7207,0.08203 1.25782,0 2.10547,-0.08203 0.84766,-0.08203 0.98438,-0.164063 0.15039,-0.0957 0.21875,-0.341797 0.082,-0.259765 0.13672,-0.902343 l 0.0547,-0.847657 0.10938,-0.109375 h 0.6289 l 0.10938,0.109375 q -0.0273,1.490235 -0.0684,2.994141 l 0.0684,3.076172 -0.10938,0.109375 h -0.6289 l -0.10938,-0.109375 -0.0957,-0.820313 q -0.12305,-0.957031 -0.17773,-1.134765 -0.0547,-0.191407 -0.25977,-0.328125 -0.19141,-0.136719 -1.01172,-0.21875 -0.82031,-0.08203 -2.25586,-0.08203 -0.79297,0 -2.41992,0.06836 -0.0684,1.148437 -0.0684,3.828125 0,2.871094 0.0684,4.224609 h 2.51563 q 3.32226,0 4.15625,-0.08203 0.83398,-0.08203 1.58593,-0.396484 0.12305,-0.314454 0.39649,-1.449219 0.28711,-1.148438 0.32812,-1.435547 l 0.13672,-0.0957 h 0.65625 l 0.10938,0.0957 q -0.12305,0.587891 -0.2461,2.050781 -0.10937,1.462891 -0.10937,2.501953 l -0.0957,0.109375 q -2.61132,-0.08203 -6.83593,-0.08203 l -3.71875,-0.02734 q -1.29883,0 -2.70703,0.109375 l -0.10938,-0.109375 v -0.451172 l 0.10938,-0.136718 q 0.80664,-0.410157 0.91601,-0.50586 0.12305,-0.109375 0.19141,-2.392578 0.082,-2.296875 0.082,-3.5 v -5.017578 l -0.0137,-3.103516 q 0,-1.011718 -0.0273,-1.640625 -0.0273,-0.642578 -0.0957,-0.916015 -0.0684,-0.273438 -0.16406,-0.382813 -0.082,-0.109375 -0.28711,-0.177734 -0.19141,-0.08203 -0.66992,-0.136719 l -1.03907,-0.08203 -0.10937,-0.0957 z m 7.80664,-1.107422 z m -0.0547,21.150391 z m 24.08469,-19.359375 v -0.574219 l 0.10937,-0.123047 q 2.61133,-0.300781 4.40235,-1.011719 l 0.25976,0.164063 q -0.15039,1.572266 -0.15039,6.302734 v 8.955078 q 0,1.38086 0.041,2.419922 0.0547,1.025391 0.17773,1.216797 0.12305,0.191406 0.39649,0.314453 0.28711,0.123047 1.59961,0.232422 l 0.12304,0.109375 v 0.519531 l -0.12304,0.123047 q -1.47657,-0.0957 -2.29688,-0.0957 -0.73828,0 -2.10547,0.0957 l -0.15039,-0.15039 q 0.041,-1.339844 0.041,-1.873047 0,-0.06836 0.0137,-0.519531 -0.75195,0.546875 -1.50391,1.216796 -1.10742,0.984375 -1.44921,1.230469 -0.62891,0.314453 -1.79102,0.314453 -1.88672,0 -3.21289,-0.929687 -1.3125,-0.929688 -1.87305,-2.365235 -0.56054,-1.449218 -0.56054,-2.966796 0,-1.544922 0.57421,-2.966797 0.58789,-1.435547 1.6543,-2.091797 1.08008,-0.65625 2.33789,-1.353516 1.27149,-0.710937 2.51563,-0.710937 1.73632,0 3.30859,0.861328 l -0.0547,-3.048828 q -0.0273,-1.585938 -0.082,-2.201172 -0.0547,-0.628906 -0.13672,-0.738281 -0.082,-0.123047 -0.28711,-0.177735 -0.1914,-0.05469 -1.65429,-0.05469 z m 2.33789,8.68164 q -0.84766,-0.957031 -1.88672,-1.46289 -1.02539,-0.50586 -2.06445,-0.50586 -1.14844,0 -2.14649,0.628907 -0.98437,0.615234 -1.42187,1.845703 -0.4375,1.216797 -0.4375,2.652344 0,2.392578 1.20312,3.841796 1.2168,1.449219 3.04883,1.449219 0.99805,0 1.76367,-0.451172 0.7793,-0.464843 1.27149,-1.24414 0.50586,-0.779297 0.58789,-1.558594 0.082,-0.779297 0.082,-2.857422 z m 16.03195,-9.283203 q 0.64258,0 1.09375,0.451172 0.45118,0.451172 0.45118,1.09375 0,0.628906 -0.45118,1.080078 -0.45117,0.451172 -1.09375,0.451172 -0.6289,0 -1.09375,-0.4375 -0.45117,-0.451172 -0.45117,-1.09375 0,-0.642578 0.45117,-1.09375 0.46485,-0.451172 1.09375,-0.451172 z m 1.16211,6.111328 0.25977,0.177735 q -0.15039,1.791015 -0.15039,4.552734 v 3.089844 q 0,0.300781 0.0547,1.941406 0.0547,1.626953 0.10937,1.900391 0.0684,0.273437 0.19141,0.396484 0.12304,0.123047 0.30078,0.164063 0.17773,0.02734 1.47656,0.109375 l 0.12305,0.109375 v 0.574218 l -0.10938,0.123047 q -1.70898,-0.109375 -3.29492,-0.109375 -1.57226,0 -3.28125,0.109375 l -0.12305,-0.123047 v -0.574218 l 0.12305,-0.109375 q 1.32617,-0.08203 1.49024,-0.123047 0.17773,-0.04102 0.30078,-0.164063 0.13672,-0.136718 0.17773,-0.396484 0.0547,-0.273438 0.10938,-1.763672 0.0684,-1.503906 0.0684,-2.269531 v -2.69336 q 0,-0.546875 -0.0547,-1.490234 -0.0547,-0.943359 -0.0957,-1.162109 -0.0273,-0.21875 -0.20507,-0.314453 -0.17774,-0.109375 -0.71094,-0.109375 l -1.14844,-0.01367 -0.12305,-0.109375 v -0.587891 l 0.10938,-0.109375 q 2.61133,-0.314453 4.40234,-1.025391 z m -1.0664,13.84961 z m 11.27414,-11.552735 v -0.355468 l 0.0957,-0.136719 q 1.28516,-0.478516 2.07812,-0.888672 0,-3.568359 -0.082,-4.15625 1.40821,-0.492187 2.31055,-1.052734 l 0.32813,0.273437 q -0.13672,0.861328 -0.32813,5.003906 0.68359,0.01367 1.47656,0.01367 1.61328,0 2.31055,-0.08203 l 0.0957,0.0957 -0.25976,1.148438 -0.10938,0.123047 q -0.69726,-0.01367 -1.54492,-0.01367 -0.76562,0 -1.96875,0.01367 l -0.082,5.564453 q 0,1.927734 0.082,2.529297 0.0957,0.58789 0.49219,0.929687 0.41015,0.328125 1.20312,0.328125 0.91602,0 1.69532,-0.478516 l 0.32812,0.492188 q -0.32812,0.232422 -1.57227,1.367187 -0.71093,0.328125 -1.44921,0.328125 -3.07618,0 -3.07618,-2.980468 0,-1.09375 0.0547,-1.859375 0.0137,-0.232422 0.0137,-0.478516 v -5.673828 h -0.56054 q -0.61524,0 -1.40821,0.05469 z m 18.971405,-8.408203 q 0.642579,0 1.09375,0.451172 0.451172,0.451172 0.451172,1.09375 0,0.628906 -0.451172,1.080078 -0.451171,0.451172 -1.09375,0.451172 -0.628906,0 -1.09375,-0.4375 -0.451171,-0.451172 -0.451171,-1.09375 0,-0.642578 0.451171,-1.09375 0.464844,-0.451172 1.09375,-0.451172 z m 1.16211,6.111328 0.259765,0.177735 q -0.15039,1.791015 -0.15039,4.552734 v 3.089844 q 0,0.300781 0.05469,1.941406 0.05469,1.626953 0.109375,1.900391 0.06836,0.273437 0.191407,0.396484 0.123046,0.123047 0.300781,0.164063 0.177734,0.02734 1.476562,0.109375 l 0.123047,0.109375 v 0.574218 l -0.109375,0.123047 q -1.708984,-0.109375 -3.294922,-0.109375 -1.572265,0 -3.28125,0.109375 l -0.123047,-0.123047 v -0.574218 l 0.123047,-0.109375 q 1.326172,-0.08203 1.490235,-0.123047 0.177734,-0.04102 0.300781,-0.164063 0.136719,-0.136718 0.177734,-0.396484 0.05469,-0.273438 0.109375,-1.763672 0.06836,-1.503906 0.06836,-2.269531 v -2.69336 q 0,-0.546875 -0.05469,-1.490234 -0.05469,-0.943359 -0.0957,-1.162109 -0.02734,-0.21875 -0.205078,-0.314453 -0.177734,-0.109375 -0.710938,-0.109375 l -1.148437,-0.01367 -0.123047,-0.109375 v -0.587891 l 0.109375,-0.109375 q 2.611328,-0.314453 4.402344,-1.025391 z m -1.066406,13.84961 z m 15.321014,-13.84961 0.259766,0.177735 q -0.08203,0.916015 -0.109375,2.40625 1.09375,-0.902344 2.078125,-1.832031 0.287109,-0.259766 0.533203,-0.382813 0.259765,-0.123047 0.847656,-0.259766 0.587891,-0.136718 1.203125,-0.136718 1.039062,0 2.009766,0.423828 0.984375,0.423828 1.476562,1.011719 0.505859,0.574218 0.697266,1.367187 0.191406,0.792969 0.191406,1.955078 v 2.40625 q 0,0.232422 0.06836,3.404297 0.02734,1.298828 0.28711,1.544922 0.259765,0.246094 1.695312,0.246094 l 0.109375,0.109375 v 0.58789 l -0.109375,0.109375 q -1.736328,-0.109375 -2.351562,-0.109375 -0.355469,0 -1.996094,0.109375 l -0.164063,-0.15039 q 0.177735,-1.777344 0.177735,-4.634766 v -1.791016 q 0,-1.613281 -0.08203,-2.324218 -0.06836,-0.710938 -0.451172,-1.285157 -0.382813,-0.58789 -1.025391,-0.902343 -0.642578,-0.328125 -1.53125,-0.328125 -0.710937,0 -1.216797,0.15039 -0.505859,0.136719 -1.134765,0.587891 -0.628907,0.4375 -0.929688,0.833984 -0.300781,0.382813 -0.369141,0.72461 -0.05469,0.328125 -0.05469,1.421875 v 2.378906 q 0,0.300781 0.05469,1.941406 0.05469,1.626953 0.109375,1.900391 0.06836,0.273437 0.191407,0.396484 0.123047,0.123047 0.300781,0.164063 0.177734,0.02734 1.476562,0.109375 l 0.123047,0.109375 v 0.574218 l -0.109375,0.123047 q -1.708984,-0.109375 -3.294922,-0.109375 -1.572265,0 -3.28125,0.109375 l -0.123046,-0.123047 v -0.574218 l 0.123046,-0.109375 q 1.326172,-0.08203 1.490235,-0.123047 0.177734,-0.04102 0.300781,-0.164063 0.136719,-0.136718 0.177734,-0.396484 0.05469,-0.273438 0.109375,-1.763672 0.06836,-1.503906 0.06836,-2.269531 v -2.69336 q 0,-0.546875 -0.05469,-1.490234 -0.05469,-0.943359 -0.0957,-1.162109 -0.02734,-0.21875 -0.205078,-0.314453 -0.177734,-0.109375 -0.710937,-0.109375 l -1.148438,-0.01367 -0.123047,-0.109375 v -0.587891 l 0.109375,-0.109375 q 2.611328,-0.314453 4.402344,-1.025391 z m 33.231171,0.94336 0.109375,0.246094 q -0.560547,0.861328 -0.697266,1.121093 h -2.542969 q 0.382813,0.751953 0.382813,1.572266 0,0.970703 -0.451172,1.886719 -0.4375,0.916015 -1.230469,1.558593 -0.792969,0.642579 -1.804687,1.025391 -0.998047,0.382813 -2.283204,0.382813 h -0.628906 q -0.80664,0.642578 -1.039062,0.957031 -0.232422,0.314453 -0.232422,0.642578 0,0.601562 0.546875,0.847656 0.560547,0.246094 2.296875,0.246094 l 3.0625,-0.04102 q 1.449219,0 2.214844,0.341797 0.779296,0.341797 1.257812,1.230469 0.478516,0.875 0.478516,1.859375 0,1.503906 -0.984375,2.994141 -0.970703,1.503906 -2.816407,2.283203 -1.845703,0.779297 -3.9375,0.779297 -1.189453,0 -2.242187,-0.259766 -1.039063,-0.259766 -1.832031,-0.792969 -0.779297,-0.519531 -1.257813,-1.367187 -0.478515,-0.847657 -0.478515,-1.763672 0,-0.50586 0.15039,-1.066406 0.150391,-0.546875 0.574219,-1.189454 l 2.474609,-1.380859 q -1.189453,-0.369141 -1.503906,-0.724609 -0.300781,-0.369141 -0.300781,-0.875 0,-0.519532 0.341797,-1.230469 l 2.201172,-1.585938 q -1.941407,-0.505859 -2.625,-1.517578 -0.669922,-1.011718 -0.669922,-2.214843 0,-1.107422 0.478515,-2.105469 0.478516,-1.011719 1.435547,-1.613281 0.970703,-0.601563 2.160156,-0.94336 1.203125,-0.355469 2.1875,-0.355469 1.708985,0 3.253907,1.107422 2.474609,0 3.951172,-0.05469 z m -11.115235,3.171875 q 0,0.833984 0.328125,1.791015 0.328125,0.957032 1.052735,1.449219 0.738281,0.492188 1.654296,0.492188 1.216797,0 2.091797,-0.792969 0.888672,-0.792969 0.888672,-2.474609 0,-1.421875 -0.80664,-2.556641 -0.806641,-1.134766 -2.283204,-1.134766 -1.24414,0 -2.091796,0.820313 -0.833985,0.80664 -0.833985,2.40625 z m 4.00586,9.173828 q -2.201172,0 -2.542969,0.05469 -0.328125,0.05469 -0.94336,0.464844 -0.615234,0.410156 -1.011718,1.107422 -0.382813,0.710938 -0.382813,1.585938 0,1.544921 1.148438,2.515625 1.148437,0.970703 3.0625,0.970703 1.435547,0 2.652343,-0.601563 1.216797,-0.601562 1.791016,-1.613281 0.587891,-1.011719 0.587891,-1.941406 0,-0.929688 -0.492188,-1.59961 -0.478515,-0.65625 -1.257812,-0.80664 -0.765625,-0.136719 -2.611328,-0.136719 z"
       id="text1"
       transform="rotate(-74.247007)"
       aria-label="Editing" />
  </g>
</svg>
