<?xml version="1.0" encoding="UTF-8" standalone="no"?>
<!-- Created with Inkscape (http://www.inkscape.org/) -->

<svg
   width="150"
   height="40"
   viewBox="0 0 150 40"
   version="1.1"
   id="svg1"
   inkscape:version="1.4.2 (f4327f4, 2025-05-13)"
   sodipodi:docname="scratch.svg"
   xmlns:inkscape="http://www.inkscape.org/namespaces/inkscape"
   xmlns:sodipodi="http://sodipodi.sourceforge.net/DTD/sodipodi-0.dtd"
   xmlns="http://www.w3.org/2000/svg"
   xmlns:svg="http://www.w3.org/2000/svg">
  <sodipodi:namedview
     id="namedview1"
     pagecolor="#ffffff"
     bordercolor="#666666"
     borderopacity="1.0"
     inkscape:showpageshadow="2"
     inkscape:pageopacity="0.0"
     inkscape:pagecheckerboard="0"
     inkscape:deskcolor="#404040"
     inkscape:document-units="px"
     inkscape:zoom="6.67"
     inkscape:cx="28.9"
     inkscape:cy="54.6"
     inkscape:window-width="3840"
     inkscape:window-height="2054"
     inkscape:window-x="2869"
     inkscape:window-y="-11"
     inkscape:window-maximized="1"
     inkscape:current-layer="layer1"
     showguides="true"
     showgrid="false" />
  <defs
     id="defs1">
    <linearGradient
       id="bw"
       x1="94"
       y1="244"
       x2="180"
       y2="244"
       gradientUnits="userSpaceOnUse"
       gradientTransform="matrix(1.17,0,0,1.17,-57,-241)">
      <stop
         offset="0"
         stop-color="#ffffff"
         id="stop1-4" />
      <stop
         offset="1"
         stop-color="#000000"
         id="stop2-8" />
    </linearGradient>
  </defs>
  <g
     inkscape:label="Layer 1"
     inkscape:groupmode="layer"
     id="layer1">
    <linearGradient
       id="pg"
       x2="0"
       y2="380"
       gradientUnits="userSpaceOnUse">
      <stop
         offset="0"
         stop-color="#282828"
         id="stop1" />
      <stop
         offset="1"
         stop-color="#181818"
         id="stop2" />
    </linearGradient>
    <rect
       id="panel"
       width="150"
       height="380"
       fill="url(#pg)"
       style="fill:url(#pg);fill-opacity:1;stroke-width:1"
       x="0"
       y="0"
       sodipodi:insensitive="true" />
    <g
       id="unscrew--symbol"
       transform="translate(5.72,1.56)">
      <g
         fill="#dedede"
         stroke="#000000"
         stroke-width="0.65"
         id="g7">
        <path
           d="M 15.4,7.81 A 2.72,2.35 0 0 1 12.7,10.2 2.72,2.35 0 0 1 9.99,7.81 2.72,2.35 0 0 1 12.7,5.46 2.72,2.35 0 0 1 15.4,7.81 Z"
           id="path1" />
        <path
           d="M 15,7.68 A 2.31,1.64 82.2 0 1 13.6,10.1 2.31,1.64 82.2 0 1 11.7,7.99 2.31,1.64 82.2 0 1 13.1,5.53 2.31,1.64 82.2 0 1 15,7.68 Z"
           id="path2" />
        <path
           d="M 14.4,7.65 A 2.43,1.64 83.2 0 1 13.1,10.2 2.43,1.64 83.2 0 1 11.2,7.97 2.43,1.64 83.2 0 1 12.5,5.39 2.43,1.64 83.2 0 1 14.4,7.65 Z"
           id="path3" />
        <path
           d="M 13.2,7.67 A 2.43,1.64 83.2 0 1 11.8,10.2 2.43,1.64 83.2 0 1 9.94,8 2.43,1.64 83.2 0 1 11.3,5.42 2.43,1.64 83.2 0 1 13.2,7.67 Z"
           id="path4" />
        <path
           d="M 11.9,7.67 A 2.43,1.64 83.2 0 1 10.5,10.2 2.43,1.64 83.2 0 1 8.63,8 2.43,1.64 83.2 0 1 10,5.42 2.43,1.64 83.2 0 1 11.9,7.67 Z"
           id="path5" />
        <path
           d="M 10.6,7.67 A 2.43,1.64 83.2 0 1 9.22,10.2 2.43,1.64 83.2 0 1 7.32,8 2.43,1.64 83.2 0 1 8.69,5.42 2.43,1.64 83.2 0 1 10.6,7.67 Z"
           id="path6" />
        <path
           d="m 9.22,8.04 c 0,2.76 -1.68,5.06 -3.76,5.06 -2.08,0 -1.91,0 -1.91,0 L 3.54,3 c 0,0 1.24,0 1.92,0 2.08,0 3.76,2.25 3.76,5.05 z"
           id="path7" />
        <ellipse
           cx="3.75"
           cy="8.04"
           rx="3.12"
           ry="5.06"
           id="ellipse7" />
      </g>
      <path
         id="slot"
         fill="#000000"
         stroke="none"
         d="M 5.46,9.43 4.68,8.11 C 4.56,7.91 4.56,7.62 4.68,7.42 L 5.46,6.1 c 0,0 0,-0.14 0,-0.19 L 4.98,5.28 c 0,0 -0.1,-0.1 -0.15,0 L 3.84,6.3 C 3.68,6.46 3.47,6.46 3.32,6.3 l -1,-1.03 c 0,0 -0.1,0 -0.14,0 L 1.7,5.91 c 0,0 0,0.14 0,0.19 l 0.78,1.32 c 0.12,0.2 0.12,0.49 0,0.69 L 1.69,9.43 c 0,0.1 0,0.13 0,0.19 l 0.48,0.58 c 0,0.1 0.1,0.1 0.14,0.1 l 1,-1.08 c 0.15,-0.16 0.37,-0.15 0.52,0 l 0.99,1.08 c 0,0 0.11,0 0.15,-0.1 L 5.45,9.62 c 0,-0.1 0,-0.14 0,-0.19 z" />
    </g>
    <ellipse
       style="fill:#baae54;fill-opacity:0.632;stroke-width:1.5;paint-order:fill markers stroke"
       id="path8"
       cx="29.8"
       cy="29.6"
       rx="4.12"
       ry="3.9" />
  </g>
</svg>
