<?xml version="1.0" encoding="UTF-8" standalone="no"?>
<!-- Created with Inkscape (http://www.inkscape.org/) -->

<svg
   width="150"
   height="380"
   viewBox="0 0 150 380"
   version="1.1"
   id="svg1"
   inkscape:version="1.4.2 (f4327f4, 2025-05-13)"
   sodipodi:docname="scratch.svg"
   xmlns:inkscape="http://www.inkscape.org/namespaces/inkscape"
   xmlns:sodipodi="http://sodipodi.sourceforge.net/DTD/sodipodi-0.dtd"
   xmlns:xlink="http://www.w3.org/1999/xlink"
   xmlns="http://www.w3.org/2000/svg"
   xmlns:svg="http://www.w3.org/2000/svg">
  <sodipodi:namedview
     id="namedview1"
     pagecolor="#ffffff"
     bordercolor="#666666"
     borderopacity="1.0"
     inkscape:showpageshadow="2"
     inkscape:pageopacity="0.0"
     inkscape:pagecheckerboard="0"
     inkscape:deskcolor="#404040"
     inkscape:document-units="px"
     inkscape:zoom="64"
     inkscape:cx="17.1"
     inkscape:cy="4.82"
     inkscape:window-width="3840"
     inkscape:window-height="2054"
     inkscape:window-x="2869"
     inkscape:window-y="-11"
     inkscape:window-maximized="1"
     inkscape:current-layer="layer1"
     showguides="true"
     showgrid="false" />
  <defs
     id="defs1">
    <linearGradient
       id="linearGradient27"
       inkscape:collect="always">
      <stop
         style="stop-color:#bfbfbf;stop-opacity:1;"
         offset="0"
         id="stop27" />
      <stop
         style="stop-color:#595959;stop-opacity:1;"
         offset="1"
         id="stop28" />
    </linearGradient>
    <linearGradient
       id="linearGradient21"
       inkscape:collect="always">
      <stop
         style="stop-color:#adadad;stop-opacity:1;"
         offset="0"
         id="stop21" />
      <stop
         style="stop-color:#737373;stop-opacity:1;"
         offset="1"
         id="stop22" />
    </linearGradient>
    <linearGradient
       id="linearGradient11"
       inkscape:collect="always">
      <stop
         style="stop-color:#d9d9d9;stop-opacity:1;"
         offset="0"
         id="stop11" />
      <stop
         style="stop-color:#575757;stop-opacity:1;"
         offset="1"
         id="stop12" />
    </linearGradient>
    <linearGradient
       id="bw"
       x1="94"
       y1="244"
       x2="180"
       y2="244"
       gradientUnits="userSpaceOnUse"
       gradientTransform="matrix(1.17,0,0,1.17,-57,-241)">
      <stop
         offset="0"
         stop-color="#ffffff"
         id="stop1-4" />
      <stop
         offset="1"
         stop-color="#000000"
         id="stop2-8" />
    </linearGradient>
    <linearGradient
       inkscape:collect="always"
       xlink:href="#linearGradient11"
       id="linearGradient12"
       x1="4.99"
       y1="1"
       x2="5.1"
       y2="16.5"
       gradientUnits="userSpaceOnUse"
       gradientTransform="matrix(1.01,0,0,1.03,-0.209,-0.282)" />
    <linearGradient
       inkscape:collect="always"
       xlink:href="#linearGradient21"
       id="linearGradient22"
       x1="1.45"
       y1="1.5"
       x2="1.45"
       y2="16.5"
       gradientUnits="userSpaceOnUse" />
    <linearGradient
       inkscape:collect="always"
       xlink:href="#linearGradient11"
       id="linearGradient25"
       gradientUnits="userSpaceOnUse"
       gradientTransform="matrix(1.01,0,0,1.03,102,86.7)"
       x1="4.99"
       y1="1"
       x2="5.1"
       y2="16.5" />
    <linearGradient
       inkscape:collect="always"
       xlink:href="#linearGradient21"
       id="linearGradient26"
       gradientUnits="userSpaceOnUse"
       x1="1.45"
       y1="1.5"
       x2="1.45"
       y2="16.5"
       gradientTransform="translate(102,87)" />
    <radialGradient
       inkscape:collect="always"
       xlink:href="#linearGradient27"
       id="radialGradient28"
       cx="16.1"
       cy="52.3"
       fx="16.1"
       fy="52.3"
       r="4.25"
       gradientUnits="userSpaceOnUse" />
    <radialGradient
       inkscape:collect="always"
       xlink:href="#linearGradient27"
       id="radialGradient29"
       gradientUnits="userSpaceOnUse"
       cx="16.1"
       cy="52.3"
       fx="16.1"
       fy="52.3"
       r="4.25"
       gradientTransform="translate(-33.6,-106)" />
    <linearGradient
       inkscape:collect="always"
       xlink:href="#pg"
       id="linearGradient2"
       gradientUnits="userSpaceOnUse"
       gradientTransform="scale(1,0.999)"
       x2="0"
       y2="380" />
  </defs>
  <g
     inkscape:label="Layer 1"
     inkscape:groupmode="layer"
     id="layer1">
    <linearGradient
       id="pg"
       x2="0"
       y2="380"
       gradientUnits="userSpaceOnUse"
       gradientTransform="scale(1,0.395)">
      <stop
         offset="0"
         stop-color="#282828"
         id="stop3"
         style="stop-color:#181818;stop-opacity:1;" />
      <stop
         offset="1"
         stop-color="#181818"
         id="stop4"
         style="stop-color:#282828;stop-opacity:1;" />
    </linearGradient>
    <rect
       id="panel"
       width="150"
       height="380"
       fill="url(#pg)"
       style="display:inline;fill:url(#linearGradient2);fill-opacity:1;stroke-width:0.999671"
       x="0"
       y="0"
       sodipodi:insensitive="true" />
    <g
       id="unscrew--symbol"
       transform="translate(128,17.2)">
      <g
         fill="#dedede"
         stroke="#000000"
         stroke-width="0.65"
         id="g7">
        <path
           d="M 15.4,7.81 A 2.72,2.35 0 0 1 12.7,10.2 2.72,2.35 0 0 1 9.99,7.81 2.72,2.35 0 0 1 12.7,5.46 2.72,2.35 0 0 1 15.4,7.81 Z"
           id="path1" />
        <path
           d="M 15,7.68 A 2.31,1.64 82.2 0 1 13.6,10.1 2.31,1.64 82.2 0 1 11.7,7.99 2.31,1.64 82.2 0 1 13.1,5.53 2.31,1.64 82.2 0 1 15,7.68 Z"
           id="path2" />
        <path
           d="M 14.4,7.65 A 2.43,1.64 83.2 0 1 13.1,10.2 2.43,1.64 83.2 0 1 11.2,7.97 2.43,1.64 83.2 0 1 12.5,5.39 2.43,1.64 83.2 0 1 14.4,7.65 Z"
           id="path3" />
        <path
           d="M 13.2,7.67 A 2.43,1.64 83.2 0 1 11.8,10.2 2.43,1.64 83.2 0 1 9.94,8 2.43,1.64 83.2 0 1 11.3,5.42 2.43,1.64 83.2 0 1 13.2,7.67 Z"
           id="path4" />
        <path
           d="M 11.9,7.67 A 2.43,1.64 83.2 0 1 10.5,10.2 2.43,1.64 83.2 0 1 8.63,8 2.43,1.64 83.2 0 1 10,5.42 2.43,1.64 83.2 0 1 11.9,7.67 Z"
           id="path5" />
        <path
           d="M 10.6,7.67 A 2.43,1.64 83.2 0 1 9.22,10.2 2.43,1.64 83.2 0 1 7.32,8 2.43,1.64 83.2 0 1 8.69,5.42 2.43,1.64 83.2 0 1 10.6,7.67 Z"
           id="path6" />
        <path
           d="m 9.22,8.04 c 0,2.76 -1.68,5.06 -3.76,5.06 -2.08,0 -1.91,0 -1.91,0 L 3.54,3 c 0,0 1.24,0 1.92,0 2.08,0 3.76,2.25 3.76,5.05 z"
           id="path7" />
        <ellipse
           cx="3.75"
           cy="8.04"
           rx="3.12"
           ry="5.06"
           id="ellipse7" />
      </g>
      <path
         id="slot"
         fill="#000000"
         stroke="none"
         d="M 5.46,9.43 4.68,8.11 C 4.56,7.91 4.56,7.62 4.68,7.42 L 5.46,6.1 c 0,0 0,-0.14 0,-0.19 L 4.98,5.28 c 0,0 -0.1,-0.1 -0.15,0 L 3.84,6.3 C 3.68,6.46 3.47,6.46 3.32,6.3 l -1,-1.03 c 0,0 -0.1,0 -0.14,0 L 1.7,5.91 c 0,0 0,0.14 0,0.19 l 0.78,1.32 c 0.12,0.2 0.12,0.49 0,0.69 L 1.69,9.43 c 0,0.1 0,0.13 0,0.19 l 0.48,0.58 c 0,0.1 0.1,0.1 0.14,0.1 l 1,-1.08 c 0.15,-0.16 0.37,-0.15 0.52,0 l 0.99,1.08 c 0,0 0.11,0 0.15,-0.1 L 5.45,9.62 c 0,-0.1 0,-0.14 0,-0.19 z" />
    </g>
    <g
       id="g22"
       transform="translate(94.2,61.6)">
      <rect
         style="fill:#333333;fill-opacity:1;stroke-width:1.49657;paint-order:fill markers stroke"
         id="rect1"
         width="47.9"
         height="18"
         x="0"
         y="0" />
      <rect
         style="fill:url(#linearGradient12);fill-opacity:1;stroke-width:1.5029;paint-order:fill markers stroke"
         id="rect10"
         width="46.5"
         height="16.5"
         x="0.75"
         y="0.748" />
      <rect
         style="fill:url(#linearGradient22);fill-opacity:1;stroke-width:1.49485;paint-order:fill markers stroke"
         id="rect11"
         width="45"
         height="15"
         x="1.45"
         y="1.5" />
      <text
         xml:space="preserve"
         style="font-style:normal;font-variant:normal;font-weight:normal;font-stretch:normal;font-size:12px;line-height:1.25;font-family:'Hanken Grotesk';-inkscape-font-specification:'Hanken Grotesk';font-variant-ligatures:none;text-align:center;text-orientation:upright;text-anchor:middle"
         x="23.9"
         y="12.9"
         id="text15"><tspan
           sodipodi:role="line"
           id="tspan15"
           x="23.9"
           y="12.9"
           style="font-size:12px">Oblique</tspan></text>
    </g>
    <g
       id="g1"
       transform="translate(-7.8)">
      <rect
         style="fill:#333333;fill-opacity:1;stroke-width:1.49657;paint-order:fill markers stroke"
         id="rect22"
         width="47.9"
         height="18"
         x="102"
         y="86.9" />
      <rect
         style="fill:url(#linearGradient25);fill-opacity:1;stroke-width:1.5029;paint-order:fill markers stroke"
         id="rect23"
         width="46.5"
         height="16.5"
         x="103"
         y="87.7" />
      <rect
         style="fill:url(#linearGradient26);fill-opacity:1;stroke-width:1.49485;paint-order:fill markers stroke"
         id="rect24"
         width="45"
         height="15"
         x="103"
         y="88.4" />
      <text
         xml:space="preserve"
         style="font-style:normal;font-variant:normal;font-weight:normal;font-stretch:normal;font-size:12px;line-height:1.25;font-family:'Hanken Grotesk';-inkscape-font-specification:'Hanken Grotesk';font-variant-ligatures:none;text-align:center;text-orientation:upright;text-anchor:middle;fill:#000000;fill-opacity:1"
         x="126"
         y="100"
         id="text24"><tspan
           sodipodi:role="line"
           id="tspan24"
           x="126"
           y="100"
           style="font-size:12px;fill:#000000;fill-opacity:1">Upright</tspan></text>
    </g>
    <text
       xml:space="preserve"
       style="font-style:normal;font-variant:normal;font-weight:normal;font-stretch:normal;font-size:12px;line-height:1.25;font-family:'Hanken Grotesk';-inkscape-font-specification:'Hanken Grotesk';font-variant-ligatures:none;text-align:center;text-orientation:upright;text-anchor:middle;fill:#999999;fill-opacity:1"
       x="128"
       y="126"
       id="text24-7"><tspan
         sodipodi:role="line"
         id="tspan24-1"
         x="128"
         y="126"
         style="font-size:12px;fill:#999999;fill-opacity:1">Upright</tspan></text>
    <g
       id="g28"
       transform="translate(80.4,88.6)">
      <circle
         style="fill:#9c9c9c;fill-opacity:1;stroke:#000000;stroke-width:0.75;stroke-dasharray:none;stroke-opacity:1;paint-order:fill markers stroke"
         id="path26"
         cx="16.8"
         cy="52.8"
         r="4.25" />
      <circle
         style="fill:url(#radialGradient28);fill-opacity:1;stroke:none;stroke-width:1;stroke-dasharray:none;stroke-opacity:1;paint-order:fill markers stroke"
         id="circle26"
         cx="16.8"
         cy="52.8"
         r="4" />
    </g>
    <g
       id="g29"
       style="display:inline"
       transform="translate(80.4,69.1)">
      <circle
         style="fill:#9c9c9c;fill-opacity:1;stroke:#000000;stroke-width:0.75;stroke-dasharray:none;stroke-opacity:1;paint-order:fill markers stroke"
         id="circle28"
         cx="16.8"
         cy="52.8"
         r="4.25" />
      <circle
         style="fill:url(#radialGradient29);fill-opacity:1;stroke:none;stroke-width:1;stroke-dasharray:none;stroke-opacity:1;paint-order:fill markers stroke"
         id="circle29"
         cx="-16.8"
         cy="-52.8"
         r="4"
         transform="scale(-1)" />
    </g>
    <text
       xml:space="preserve"
       style="font-style:normal;font-variant:normal;font-weight:normal;font-stretch:normal;font-size:12px;line-height:1.25;font-family:'Hanken Grotesk';-inkscape-font-specification:'Hanken Grotesk';font-variant-ligatures:none;text-align:center;text-orientation:upright;text-anchor:middle;fill:#999999;fill-opacity:1"
       x="130"
       y="145"
       id="text15-8"><tspan
         sodipodi:role="line"
         id="tspan15-2"
         x="130"
         y="145"
         style="font-size:12px;fill:#999999;fill-opacity:1">Oblique</tspan></text>
    <path
       style="fill:none;stroke:#4073bf;stroke-width:0.25;stroke-linecap:butt;stroke-linejoin:miter;stroke-dasharray:none;stroke-opacity:1"
       d="M 3.54,13.2 H 90.5"
       id="path50"
       sodipodi:nodetypes="cc"
       inkscape:label="sep" />
    <path
       style="font-size:12px;line-height:1.25;font-family:'Hanken Grotesk';-inkscape-font-specification:'Hanken Grotesk';font-variant-ligatures:none;text-orientation:upright;fill:#808080"
       d="M 0,6.01 V 0.094 H 1.02 V 1.35 L 0.78,1.44 Q 0.948,0.982 1.24,0.67 1.52,0.346 1.93,0.178 q 0.41,-0.18 0.9,-0.18 0.97,0 1.53,0.576 Q 4.91,1.14 4.91,2.25 V 6.01 H 3.89 V 2.63 Q 3.89,1.73 3.55,1.31 3.23,0.874 2.56,0.874 2.06,0.874 1.72,1.1 1.38,1.33 1.2,1.82 1.02,2.3 1.02,3.06 V 6.01 Z M 10.5,6.01 10.4,4.82 V 2.3 Q 10.4,1.62 10,1.25 9.62,0.874 8.88,0.874 8.4,0.874 7.98,1.08 7.56,1.27 7.16,1.74 L 6.43,1.11 Q 6.92,0.538 7.56,0.274 8.2,-0.002 8.95,-0.002 q 1.15,0 1.85,0.6 0.6,0.602 0.6,1.702 v 3.71 z m -2,0.1 Q 7.82,6.11 7.32,5.88 6.83,5.64 6.55,5.22 6.29,4.8 6.29,4.25 6.29,3.75 6.48,3.42 6.68,3.07 7,2.88 7.31,2.67 7.7,2.6 8.11,2.52 8.56,2.52 H 10.5 V 3.29 H 8.7 q -0.26,0 -0.55,0 -0.29,0 -0.51,0.21 Q 7.49,3.66 7.39,3.84 7.31,4.02 7.31,4.26 7.31,4.73 7.66,5 8,5.28 8.59,5.28 9.08,5.28 9.48,5.05 9.89,4.82 10.1,4.43 10.4,4.02 10.4,3.51 l 0.4,0.44 Q 10.7,4.58 10.4,5.07 10.1,5.57 9.61,5.84 9.13,6.11 8.5,6.11 Z M 13,6.01 V 0.094 h 1.1 V 1.62 H 13.9 Q 14,1.2 14.1,0.898 q 0.2,-0.312 0.5,-0.504 0.2,-0.204 0.5,-0.3 0.3,-0.096 0.7,-0.096 0.5,0 0.9,0.204 0.4,0.204 0.7,0.624 0.2,0.404 0.3,1.044 l -0.5,0 q 0.1,-0.62 0.4,-1.036 0.3,-0.432 0.7,-0.648 0.4,-0.228 1,-0.228 0.7,0 1.2,0.336 0.4,0.324 0.6,0.876 0.2,0.54 0.2,1.2 v 3.6 h -1 V 2.65 Q 20.3,2.1 20.2,1.7 20.1,1.31 19.8,1.09 19.5,0.874 19.1,0.874 18.6,0.874 18.3,1.09 18,1.31 17.9,1.75 17.7,2.18 17.7,2.83 v 3.18 h -1 V 2.57 Q 16.7,1.71 16.4,1.29 16.1,0.874 15.5,0.874 15,0.874 14.7,1.1 14.4,1.32 14.2,1.75 14.1,2.18 14.1,2.83 v 3.18 z m 12.5,0.1 Q 24.8,6.11 24.3,5.88 23.7,5.64 23.4,5.22 23.1,4.8 22.9,4.26 22.7,3.71 22.7,3.09 22.7,2.48 22.9,1.93 23,1.37 23.4,0.934 23.7,0.502 24.2,0.25 q 0.5,-0.252 1.2,-0.252 0.7,0 1.2,0.24 0.5,0.228 0.8,0.636 0.3,0.406 0.5,0.916 0.1,0.5 0.1,1.04 0,0 0,0.23 0,0.17 0,0.3 h -4.3 q 0,0.86 0.5,1.34 0.5,0.48 1.3,0.48 0.5,0 0.9,-0.17 0.4,-0.16 0.7,-0.54 L 27.8,5.1 Q 27.5,5.45 27.1,5.67 26.8,5.89 26.4,6 26,6.11 25.5,6.11 Z M 27,2.84 Q 27,2.75 27,2.65 27,2.55 27,2.46 27,2.17 26.9,1.88 26.8,1.59 26.6,1.37 26.4,1.13 26.1,0.994 25.8,0.85 25.4,0.85 q -0.5,0 -0.9,0.24 -0.4,0.24 -0.6,0.64 -0.2,0.39 -0.2,0.87 h 3.6 z"
       id="text1"
       aria-label="name" />
  </g>
</svg>
