<?xml version="1.0" encoding="utf-8"?>
<svg version="1.0" xmlns:svg="http://www.w3.org/2000/svg" xmlns="http://www.w3.org/2000/svg"
width="304" height="380" viewBox="0 0 304 380">
<circle id="%skiff%mark%Sine" r="1" />
<rect id="rail-bg" fill="#050505" width="304.5" height="100%" />
<g id="plain-rail" fill="#999">
    <rect width="304.5" height="15" />
    <rect y="365" width="304.5" height="15" />
</g>
<path id="sine" transform="translate(-1.5,140)scale(1.034,1)"  fill="none" stroke="#999" stroke-width="3" stroke-linecap="square" d="M 0 32.9091 C 1.03704 34.6843 2.07407 36.5759 3.11111 38.5458 C 4.14815 40.5156 5.18519 42.5638 6.22222 44.6484 C 7.25926 46.733 8.2963 48.8541 9.33333 50.9687 C 10.3704 53.0832 11.4074 55.191 12.4444 57.2495 C 13.4815 59.308 14.5185 61.3168 15.5556 63.2355 C 16.5926 65.1543 17.6296 66.9823 18.6667 68.6832 C 19.7037 70.3841 20.7407 71.9571 21.7778 73.371 C 22.8148 74.7849 23.8519 76.0388 24.8889 77.1082 C 25.9259 78.1776 26.963 79.0614 28 79.7428 C 29.037 80.4242 30.0741 80.9019 31.1111 81.1676 C 32.1481 81.4333 33.1852 81.4856 34.2222 81.3248 C 35.2593 81.1639 36.2963 80.7886 37.3333 80.2078 C 38.3704 79.627 39.4074 78.8394 40.4444 77.8622 C 41.4815 76.885 42.5185 75.7172 43.5556 74.3834 C 44.5926 73.0496 45.6296 71.5489 46.6667 69.9128 C 47.7037 68.2766 48.7407 66.5042 49.7778 64.6322 C 50.8148 62.7603 51.8519 60.7882 52.8889 58.7566 C 53.9259 56.7249 54.963 54.6334 56 52.5247 C 57.037 50.416 58.0741 48.2902 59.1111 46.1902 C 60.1481 44.0902 61.1852 42.0164 62.2222 40.0106 C 63.2593 38.0048 64.2963 36.0675 65.3333 34.2374 C 66.3704 32.4073 67.4074 30.6852 68.4444 29.1052 C 69.4815 27.5253 70.5185 26.0885 71.5556 24.8229 C 72.5926 23.5574 73.6296 22.4643 74.6667 21.5647 C 75.7037 20.6651 76.7407 19.9602 77.7778 19.463 C 78.8148 18.9659 79.8519 18.6778 80.8889 18.6034 C 81.9259 18.529 82.963 18.6695 84 19.0208 C 85.037 19.3721 86.0741 19.9355 87.1111 20.6982 C 88.1481 21.461 89.1852 22.4243 90.2222 23.5674 C 91.2593 24.7106 92.2963 26.0347 93.3333 27.5118 C 94.3704 28.9889 95.4074 30.6198 96.4444 32.3708 C 97.4815 34.1217 98.5185 35.9933 99.5556 37.9468 C 100.593 39.9004 101.63 41.9364 102.667 44.0131 C 103.704 46.0899 104.741 48.2075 105.778 50.3229 C 106.815 52.4384 107.852 54.5515 108.889 56.6196 C 109.926 58.6877 110.963 60.7104 112 62.647 C 113.037 64.5837 114.074 66.4336 115.111 68.1601 C 116.148 69.8865 117.185 71.4885 118.222 72.9345 C 119.259 74.3804 120.296 75.6693 121.333 76.776 C 122.37 77.8827 123.407 78.8061 124.444 79.5285 C 125.481 80.2509 126.519 80.7712 127.556 81.08 C 128.593 81.3887 129.63 81.4847 130.667 81.3673 C 131.704 81.2499 132.741 80.9177 133.778 80.3788 C 134.815 79.8399 135.852 79.0931 136.889 78.1547 C 137.926 77.2163 138.963 76.0852 140 74.7855 C 141.037 73.4857 142.074 72.0163 143.111 70.4081 C 144.148 68.7998 145.185 67.052 146.222 65.2006 C 147.259 63.3493 148.296 61.394 149.333 59.3749 C 150.37 57.3559 151.407 55.2727 152.444 53.1679 C 153.481 51.0632 154.519 48.9369 155.556 46.8321 C 156.593 44.7273 157.63 42.6443 158.667 40.6251 C 159.704 38.6058 160.741 36.6509 161.778 34.7994 C 162.815 32.9478 163.852 31.2004 164.889 29.5919 C 165.926 27.9834 166.963 26.5146 168 25.2145 C 169.037 23.9145 170.074 22.7841 171.111 21.8453 C 172.148 20.9065 173.185 20.1605 174.222 19.6212 C 175.259 19.0819 176.296 18.7506 177.333 18.6327 C 178.37 18.5148 179.407 18.6117 180.444 18.92 C 181.481 19.2284 182.519 19.7495 183.556 20.4715 C 184.593 21.1935 185.63 22.1176 186.667 23.224 C 187.704 24.3303 188.741 25.6199 189.778 27.0655 C 190.815 28.5112 191.852 30.1138 192.889 31.8399 C 193.926 33.5661 194.963 35.4165 196 37.353 C 197.037 39.2894 198.074 41.3124 199.111 43.3804 C 200.148 45.4484 201.185 47.5616 202.222 49.6771 C 203.259 51.7925 204.296 53.91 205.333 55.9869 C 206.37 58.0637 207.407 60.0994 208.444 62.0532 C 209.481 64.0069 210.519 65.878 211.556 67.6292 C 212.593 69.3804 213.63 71.0108 214.667 72.4882 C 215.704 73.9656 216.741 75.289 217.778 76.4326 C 218.815 77.5761 219.852 78.5386 220.889 79.3018 C 221.926 80.0649 222.963 80.6275 224 80.9792 C 225.037 81.3309 226.074 81.4706 227.111 81.3966 C 228.148 81.3226 229.185 81.0337 230.222 80.537 C 231.259 80.0403 232.296 79.3345 233.333 78.4353 C 234.37 77.5361 235.407 76.4422 236.444 75.1771 C 237.481 73.9119 238.519 72.4744 239.556 70.8948 C 240.593 69.3151 241.63 67.5925 242.667 65.7626 C 243.704 63.9328 244.741 61.9951 245.778 59.9894 C 246.815 57.9837 247.852 55.9097 248.889 53.8098 C 249.926 51.7099 250.963 49.584 252 47.4753 C 253.037 45.3666 254.074 43.2752 255.111 41.2434 C 256.148 39.2117 257.185 37.2399 258.222 35.3678 C 259.259 33.4956 260.296 31.7237 261.333 30.0872 C 262.37 28.4508 263.407 26.9508 264.444 25.6166 C 265.481 24.2825 266.519 23.1153 267.556 22.1378 C 268.593 21.1602 269.63 20.3734 270.667 19.7922 C 271.704 19.2109 272.741 18.8365 273.778 18.6752 C 274.815 18.514 275.852 18.5671 276.889 18.8324 C 277.926 19.0977 278.963 19.5763 280 20.2572 C 281.037 20.9382 282.074 21.8228 283.111 22.8918 C 284.148 23.9609 285.185 25.2154 286.222 26.629 C 287.259 28.0426 288.296 29.6161 289.333 31.3168 C 290.37 33.0174 291.407 34.8459 292.444 36.7645 C 293.481 38.683 294.519 40.6921 295.556 42.7505 C 296.593 44.8089 297.63 46.9168 298.667 49.0313 C 299.704 51.1459 300.741 53.2669 301.778 55.3516 C 302.815 57.4363 303.852 59.4842 304.889 61.4542 C 305.926 63.4242 306.963 65.3157 308 67.0909" />
<g id="rail-hole" fill="#000">
    <circle cx="7.5" cy="7.7" r="1.85" />
    <circle cx="7.5" cy="372.6" r="1.85" />
    <circle cx="22.5" cy="7.7" r="1.85" />
    <circle cx="22.5" cy="372.6" r="1.85" />
    <circle cx="37.5" cy="7.7" r="1.85" />
    <circle cx="37.5" cy="372.6" r="1.85" />
    <circle cx="52.5" cy="7.7" r="1.85" />
    <circle cx="52.5" cy="372.6" r="1.85" />
    <circle cx="67.5" cy="7.7" r="1.85" />
    <circle cx="67.5" cy="372.6" r="1.85" />
    <circle cx="82.5" cy="7.7" r="1.85" />
    <circle cx="82.5" cy="372.6" r="1.85" />
    <circle cx="97.5" cy="7.7" r="1.85" />
    <circle cx="97.5" cy="372.6" r="1.85" />
    <circle cx="112.5" cy="7.7" r="1.85" />
    <circle cx="112.5" cy="372.6" r="1.85" />
    <circle cx="127.5" cy="7.7" r="1.85" />
    <circle cx="127.5" cy="372.6" r="1.85" />
    <circle cx="142.5" cy="7.7" r="1.85" />
    <circle cx="142.5" cy="372.6" r="1.85" />
    <circle cx="157.5" cy="7.7" r="1.85" />
    <circle cx="157.5" cy="372.6" r="1.85" />
    <circle cx="172.5" cy="7.7" r="1.85" />
    <circle cx="172.5" cy="372.6" r="1.85" />
    <circle cx="187.5" cy="7.7" r="1.85" />
    <circle cx="187.5" cy="372.6" r="1.85" />
    <circle cx="202.5" cy="7.7" r="1.85" />
    <circle cx="202.5" cy="372.6" r="1.85" />
    <circle cx="217.5" cy="7.7" r="1.85" />
    <circle cx="217.5" cy="372.6" r="1.85" />
    <circle cx="232.5" cy="7.7" r="1.85" />
    <circle cx="232.5" cy="372.6" r="1.85" />
    <circle cx="247.5" cy="7.7" r="1.85" />
    <circle cx="247.5" cy="372.6" r="1.85" />
    <circle cx="262.5" cy="7.7" r="1.85" />
    <circle cx="262.5" cy="372.6" r="1.85" />
    <circle cx="277.5" cy="7.7" r="1.85" />
    <circle cx="277.5" cy="372.6" r="1.85" />
    <circle cx="292.5" cy="7.7" r="1.85" />
    <circle cx="292.5" cy="372.6" r="1.85" />
</g>
</svg>