<?xml version="1.0" encoding="UTF-8"?>
<svg width="220" height="165" viewBox="0 0 220 165" version="1.1" xmlns="http://www.w3.org/2000/svg" xmlns:svg="http://www.w3.org/2000/svg">
<linearGradient id="pg" y2="100%" gradientUnits="userSpaceOnUse">
    <stop offset="0" stop-color="#282828" />
    <stop offset="1" stop-color="#101010" />
</linearGradient>
<g font-family="Hanken Grotesk" font-size="14">
<rect id="panel" fill="url(#pg)" width="100%" height="100%" />
<rect id="mast" fill="#f9a806" width="100%" height="18"/>
<rect id="k:close" fill="#f22" x="202" y="2" width="14" height="14" />
<rect id="k:dlg-title" fill="#a0a0a0d0" x="7.5" y="3" width="180" height="14" />

<rect id="k:skiff-check" fill="#a6a6a6" x="7.5" y="24" width="14" height="14" />
<rect id="k:skiff-check-label" fill="#634" x="24" y="24" width="90" height="12" />
<text fill="#a6a6a6" x="24" y="34" font-size="12">Enable Skiff</text>

<g transform="translate(25,45)">
    <rect   id="k:skiff-edge-label"  fill="#634" x="0" y="4" width="40" height="12"/>
    <text fill="#a6a6a6" x="0" y="14" font-size="12">EDGE</text>
    <rect   id="k:skiff-edge-swatch" fill="#d65cab"  x="44"   y="5" width="18" height="10" />
    <circle id="k:skiff-edge-co"     fill="#d65cab" cx="74"  cy="10" r="10" />
    <circle id="k:skiff-edge"        fill="#5c95d6" cx="114"  cy="10" r="14" />

    <rect   id="k:skiff-bezel-label"   fill="#634" x="0" y="35" width="40" height="12"/>
    <text fill="#a6a6a6" x="0" y="45" font-size="12">BEZEL</text>
    <rect   id="k:skiff-bezel-swatch"  fill="#d65cab" x="44" y="36" width="18" height="10" />
    <circle id="k:skiff-bezel-co"      fill="#d65cab" cx="74" cy="42" r="10" />
    <circle id="k:skiff-bezel"         fill="#5c95d6" cx="114" cy="42" r="14" />

    <rect   id="k:skiff-inside-label"   fill="#634" x="0" y="66" width="40" height="12"/>
    <text fill="#a6a6a6" x="0" y="76" font-size="12">INSIDE</text>
    <rect   id="k:skiff-inside-swatch"  fill="#d65cab"  x="44"  y="67" width="18" height="10" />
    <circle id="k:skiff-inside-co"      fill="#d65cab" cx="74" cy="72" r="10" />

    <rect   id="k:shadow-check"       fill="#a6a6a6"  x="0"   y="90" width="14" height="14" />
    <rect   id="k:shadow-check-label" fill="#aaa"     x="17"  y="90" width="40" height="12"/>
</g>

<rect id="dlg-border" fill="none" stroke="#c5c5c5" stroke-width="1.5" x=".75" y=".75" width="218.5" height="163" />
</g>
</svg>
