<?xml version="1.0" encoding="UTF-8"?>
<svg width="220" height="220" viewBox="0 0 220 220" version="1.1" xmlns="http://www.w3.org/2000/svg" xmlns:svg="http://www.w3.org/2000/svg">
<linearGradient id="pg" y2="100%" gradientUnits="userSpaceOnUse">
    <stop offset="0" stop-color="#282828" />
    <stop offset="1" stop-color="#101010" />
</linearGradient>
<rect id="panel" fill="url(#pg)" width="100%" height="100%" />
<rect id="mast" fill="#f9a806" width="100%" height="18"/>
<rect id="k:close" fill="#f22" x="202" y="2" width="14" height="14" />
<rect id="k:dlg-title" fill="#a0a0a0d0" x="7.5" y="3" width="180" height="14" />

<rect id="k:pic-check" fill="#a6a6a6"  x="7.5" y="24"  width="14" height="14" />
<rect id="k:pic-check-label" fill="#a6a6a6"  x="25" y="25"  width="65" height="12" />
<rect id="preview" fill="#282828" x="10" y="40" width="200" height="112" />
<rect id="k:pic-label" fill="#aaa" x="10" y="152" width="200" height="10" />

<g transform="translate(10,18)">
    <rect id="k:pic-button" fill="#a6a6a6" x="10" y="150" width="24" height="24"/>
    <rect id="k:pic-gray" fill="#a6a6a6" x="38" y="155" width="14" height="14" />
    <rect id="k:pic-fit" fill="#f22" x="56" y="156" width="30" height="12" />
    <rect id="k:fit-label" fill="#a0a0a0d0" x="53" y="170"  width="36" height="14" />

    <g transform="translate(88,150)" >
        <circle id="k:off-x"        fill="#68a7e4" cx="18" cy="14" r="14" />
        <rect   id="k:off-x-label" fill="#a0a0a0d0"   x="11"  y="30"  width="14" height="14" />
    </g>
    <g transform="translate(124,150)" >
        <circle id="k:off-y"        fill="#68a7e4" cx="14" cy="14" r="14" />
        <rect   id="k:off-y-label" fill="#a0a0a0d0"   x="7"   y="30"  width="14" height="14" />
    </g>
    <g transform="translate(160,150)" >
        <circle id="k:scale"       fill="#68a7e4" cx="15" cy="14" r="14" />
        <rect   id="k:scale-label" fill="#a0a0a0d0"  x="0"   y="30"  width="30" height="14" />
    </g>
</g>

<rect id="dlg-border" fill="none" stroke="#c5c5c5" stroke-width="1.5" x=".75" y=".75" width="218.5" height="216" />

</svg>
