<?xml version="1.0" encoding="UTF-8"?>
<svg width="220" height="280" viewBox="0 0 220 280" version="1.1" xmlns="http://www.w3.org/2000/svg" xmlns:svg="http://www.w3.org/2000/svg">
<linearGradient id="pg" y2="100%" gradientUnits="userSpaceOnUse">
    <stop offset="0" stop-color="#282828" />
    <stop offset="1" stop-color="#101010" />
</linearGradient>
<rect id="panel" fill="url(#pg)" width="100%" height="100%" />
<rect id="mast" fill="#f9a806" width="100%" height="18"/>
<rect id="k:close" fill="#f22" x="202" y="2" width="14" height="14" />
<rect id="k:dlg-title" fill="#a0a0a0d0" x="7.5" y="3" width="120" height="14" />

<rect id="k:preview" fill="#a44688" x="116" y="22" width="93.75" height="95" />

<g>
  <rect id="k:horz-switch"   fill="#8e810a" x="13" y="26" width="24" height="14" />
  <rect id="k:horz-label"    fill="#a0a0a0d0" x="42" y="26" width="18" height="14" />
  <rect id="k:horz-actual"   fill="#4a4b92" x="62" y="26" width="40" height="14" />
  <rect id="k:vert-switch"   fill="#8e810a" x="13" y="44" width="24" height="14" />
  <rect id="k:vert-label"    fill="#a0a0a0" x="42" y="44" width="18" height="14" />
  <rect id="k:vert-actual"   fill="#4a4b92" x="62" y="44" width="40" height="14" />
  <rect id="k:orient-switch" fill="#8e810a" x="8"  y="62" width="32" height="14" />
  <rect id="k:orient-label"  fill="#a0a0a0" x="42" y="62" width="18" height="14" />
  <rect id="k:orient-actual" fill="#4a4b92" x="62" y="62" width="40" height="14" />
  <rect id="k:copr-l-switch" fill="#8e810a" x="13" y="80" width="24" height="14" />
  <rect id="k:copr-l-label"  fill="#a0a0a0" x="42" y="80" width="18" height="14" />
  <rect id="k:copr-l-actual" fill="#4a4b92" x="62" y="80" width="40" height="14" />
  <rect id="k:copr-r-switch" fill="#8e810a" x="13" y="98" width="24" height="14" />
  <rect id="k:copr-r-label"  fill="#a0a0a0" x="42" y="98" width="18" height="14" />
  <rect id="k:copr-r-actual" fill="#4a4b92" x="62" y="98" width="40" height="14" />
</g>

<circle id="k:font-size" fill="#68a7e4" cx="38" cy="134" r="14" />
<rect id="k:font-size-label" fill="#aaa" x="20"   y="150" width="36" height="14" />
<rect id="k:font-btn" fill="none" stroke="#4bad4b" stroke-width=".75" x="66" y="127" width="40" height="14" />
<rect id="k:font-label" fill="#aaa" x="7.5" y="165" width="200" height="10" />

<circle id="k:left-margin"  fill="#68a7e4" cx="140" cy="134" r="14" />
<rect   id="k:L-label"      fill="#a0a0a0d0"  x="133"  y="150"  width="14" height="14" />

<circle id="k:right-margin" fill="#68a7e4" cx="187" cy="134" r="14" />
<rect   id="k:R-label"      fill="#a0a0a0d0"  x="180"  y="150"  width="14" height="14" />

<circle id="k:top-margin"  fill="#68a7e4" cx="140" cy="190" r="14" />
<rect   id="k:T-label"      fill="#a0a0a0d0"  x="133"  y="206"  width="14" height="14" />

<circle id="k:bottom-margin" fill="#68a7e4" cx="187" cy="190" r="14" />
<rect   id="k:B-label"      fill="#a0a0a0d0"  x="180"  y="206"  width="14" height="14" />

<g transform="translate(15,176)">
  <circle id="k:panel-co"       fill="#d65cab" cx="17" cy="10" r="10" />
  <rect   id="k:panel-swatch"   fill="#d65cab"  x="8"  y="22" width="18" height="10" />
  <rect   id="k:panel-co-label" fill="#aaa" x="0" y="33" width="34" height="14" />
</g>
<g transform="translate(55,176)">
  <circle id="k:text-co"     fill="#d65cab" cx="17" cy="10" r="10" />
  <rect   id="k:text-swatch" fill="#d65cab"  x="8"  y="22" width="18" height="10" />
  <rect   id="k:text-co-label"  fill="#aaa" x="0" y="33" width="34" height="14" />
</g>

<rect id="k:edit" fill="none" stroke="#4bad4b" stroke-width=".75" x="7.5" y="226" width="206" height="48" />

<rect id="dlg-border" fill="none" stroke="#c5c5c5" stroke-width="1.5" x=".75" y=".75" width="218.5" height="277" />

</svg>
