<?xml version="1.0" encoding="UTF-8"?>
<svg width="220" height="280" viewBox="0 0 220 280" version="1.1" xmlns="http://www.w3.org/2000/svg" xmlns:svg="http://www.w3.org/2000/svg">
<linearGradient id="pg" y2="100%" gradientUnits="userSpaceOnUse">
    <stop offset="0" stop-color="#282828" />
    <stop offset="1" stop-color="#101010" />
</linearGradient>
<rect id="panel" fill="url(#pg)" width="100%" height="100%" />
<rect id="mast" fill="#f9a806" width="100%" height="18"/>
<rect id="k:close" fill="#f22" x="204" y="2" width="14" height="14" />
<rect id="k:dlg-title" fill="#a0a0a0d0" x="7.5" y="3" width="120" height="14" />

<g transform="translate(180,58)">
  <circle id="k:panel-co"       fill="#d65cab" cx="10" cy="10" r="10" />
  <rect   id="k:panel-swatch"   fill="#d65cab"  x="1"  y="22" width="18" height="10" />
  <rect   id="k:panel-co-label" fill="#aaad" x="-7" y="33" width="34" height="14" />
</g>
<g transform="translate(180,106)">
  <circle id="k:text-co"     fill="#d65cab" cx="10" cy="10" r="10" />
  <rect   id="k:text-swatch" fill="#d65cab"  x="1"  y="22" width="18" height="10" />
  <rect   id="k:text-co-label"  fill="#aaad" x="-7" y="33" width="34" height="14" />
</g>

<circle id="k:left-margin"  fill="#68a7e4" cx="64" cy="44" r="14" />
<rect   id="k:L-label"      fill="#a0a0a0d0" x="32" y="36"  width="14" height="14" />
<circle id="k:right-margin" fill="#68a7e4" cx="174" cy="44" r="14" />
<rect   id="k:R-label"      fill="#a0a0a0d0" x="192" y="36"  width="14" height="14" />

<circle id="k:opt-top" fill="none" stroke="#68a7e4" stroke-width=".75" cx="60" cy="80" r="3" />
<rect id="k:top-label" fill="#aaad" x="5" y="72" width="48" height="14" />

<circle id="k:opt-mid" fill="none" stroke="#68a7e4" stroke-width=".75" cx="60" cy="100" r="3" />
<rect id="k:mid-label" fill="#aaad" x="5" y="92" width="48" height="14" />

<circle id="k:opt-bot" fill="none" stroke="#68a7e4" stroke-width=".75" cx="60" cy="120" r="3" />
<rect id="k:bot-label" fill="#aaad" x="5" y="112" width="48" height="14" />

<circle id="k:opt-invert" fill="none" stroke="#68a7e4" stroke-width=".75" cx="146" cy="50" r="3" />
<rect id="k:invert-label" fill="#aaad" x="92" y="42" width="48" height="14" />

<circle id="k:opt-normal" fill="none" stroke="#68a7e4" stroke-width=".75" cx="92" cy="146" r="3" />
<rect id="k:normal-label" fill="#aaad" x="98" y="139" width="48" height="14" />

<circle id="k:opt-Up" fill="none" stroke="#68a7e4" stroke-width=".75" cx="80" cy="110" r="3" />
<rect id="k:up-label" fill="#aaad" x="72" y="86" width="14" height="18" />

<circle id="k:opt-down" fill="none" stroke="#68a7e4" stroke-width=".75" cx="154" cy="74" r="3" />
<rect id="k:down-label" fill="#aaad" x="150" y="80" width="14" height="36" />

<rect id="k:preview" fill="#a44688" x="88" y="60" width="60" height="76" />

<circle id="k:opt-left"   fill="none" stroke="#68a7e4" stroke-width=".75" cx="44" cy="168" r="3" />
<rect id="k:left-label" fill="#aaad" x="50" y="160" width="28" height="14" />
<circle id="k:opt-center" fill="none" stroke="#68a7e4" stroke-width=".75" cx="92" cy="168" r="3" />
<rect id="k:center-label" fill="#aaad" x="98" y="160" width="48" height="14" />
<circle id="k:opt-right"  fill="none" stroke="#68a7e4" stroke-width=".75" cx="162" cy="168" r="3" />
<rect id="k:right-label" fill="#aaad" x="168" y="160" width="34" height="14" />

<rect id="k:copper-ham" fill="#a44688" x="206" y="178" width="10" height="10"/>

<circle id="k:font-size" fill="#68a7e4" cx="30" cy="196" r="14" />
<rect id="k:font-size-label" fill="#aaad" x="12" y="212" width="36" height="14" />
<rect id="k:font-btn" fill="none" stroke="#4bad4b" stroke-width=".75" x="60" y="194" width="40" height="14" />
<rect id="k:font-label" fill="#aaad" x="110" y="194" width="100" height="14" />

<rect id="k:copy-btn" fill="#aaa" x="187" y="216" width="12" height="12" />
<rect id="k:paste-btn" fill="#aaa" x="201" y="216" width="12" height="12" />
<rect id="k:edit" fill="none" stroke="#4bad4b" stroke-width=".75" x="3.5" y="230" width="210" height="45" />

</svg>
